SplineFontDB: 3.0
FontName: Norasi-Oblique
FullName: Norasi Oblique
FamilyName: Norasi
Weight: Regular
Copyright: Copyright (C) 1999, The National Font Project (v.beta). Yannis Haralambous, Virach Sornlertlamvanich and Anutara Tantraporn. All rights reserved.\n\nModified under GNU General Public License, with creators' permission, by Thai Linux Working Group (TLWG).
Version: 005.001
ItalicAngle: -12
UnderlinePosition: -100
UnderlineWidth: 50
Ascent: 800
Descent: 200
LayerCount: 2
Layer: 0 0 "Back"  1
Layer: 1 0 "Fore"  0
FSType: 0
OS2Version: 0
OS2_WeightWidthSlopeOnly: 0
OS2_UseTypoMetrics: 0
CreationTime: 1153665480
ModificationTime: 1428561488
PfmFamily: 17
TTFWeight: 400
TTFWidth: 5
LineGap: 0
VLineGap: 0
Panose: 2 7 5 6 0 0 0 2 0 4
OS2TypoAscent: 0
OS2TypoAOffset: 1
OS2TypoDescent: 0
OS2TypoDOffset: 1
OS2TypoLinegap: 0
OS2WinAscent: 1216
OS2WinAOffset: 0
OS2WinDescent: 488
OS2WinDOffset: 0
HheadAscent: 1216
HheadAOffset: 0
HheadDescent: -488
HheadDOffset: 0
OS2Vendor: 'PfEd'
Lookup: 4 0 1 "'liga' Standard Ligatures lookup 2"  {"'liga' Standard Ligatures lookup 2 subtable"  } ['liga' ('DFLT' <'dflt' > ) ]
Lookup: 4 0 1 "'liga' Standard Ligatures in Latin lookup 3"  {"'liga' Standard Ligatures in Latin lookup 3 subtable"  } ['liga' ('latn' <'dflt' > ) ]
Lookup: 4 0 0 "'frac' Diagonal Fractions lookup 4"  {"'frac' Diagonal Fractions lookup 4 subtable"  } ['frac' ('DFLT' <'dflt' > ) ]
Lookup: 6 0 0 "'ccmp' Thai Conditional Descender Removal"  {"'ccmp' Thai Conditional Descender Removal"  } ['ccmp' ('DFLT' <'dflt' > 'thai' <'KUY ' 'THA ' 'dflt' > ) ]
Lookup: 1 0 0 "'ccmp' Pali-Sanskrit Descender Removal"  {"'ccmp' Pali-Sanskrit Descender Removal" ("descless" ) } ['ccmp' ('thai' <'PAL ' 'SAN ' > ) ]
Lookup: 6 0 0 "'ccmp' Thai General Composition"  {"'ccmp' Thai Below Vowel Tone Reordering"  "'ccmp' Thai General Composition"  } ['ccmp' ('DFLT' <'dflt' > 'thai' <'KUY ' 'PAL ' 'SAN ' 'THA ' 'dflt' > ) ]

StartChar: .notdef
Encoding: 0 0 0
Width: 366
Flags: W
HStem: 0 22<22 344> 542 22<22 344>
VStem: 0 22<22 542> 344 22<22 542>
LayerCount: 2
Fore
SplineSet
22 542 m 1
 22 22 l 1
 344 22 l 1
 344 542 l 1
 22 542 l 1
366 0 m 1
 0 0 l 1
 0 564 l 1
 366 564 l 1
 366 0 l 1
EndSplineSet
EndChar

StartChar: exclam
Encoding: 33 33 2
Width: 332
Flags: W
HStem: -9 107<157.477 230.557> 657 20G<289.5 340>
VStem: 138 110<9 78.9082> 239 127<536 606.612>
LayerCount: 2
Back
SplineSet
367.631 594.36 m 1
 359.048 557.882 l 1
 233.167 175.947 l 1
 219.576 175.947 l 1
 225.3 228.16 231.021 275.365 235.312 315.418 c 0
 239.604 356.187 243.181 392.663 246.041 424.85 c 0
 248.901 457.035 251.763 486.359 253.908 513.538 c 0
 256.77 540.002 258.915 566.466 262.49 591.499 c 1
 273.936 647.288 296.822 675.182 331.153 675.182 c 0
 366.915 675.182 379.789 650.148 369.061 600.797 c 2
 367.631 594.36 l 1
253.193 40.7686 m 0
 250.331 27.1787 242.464 16.4502 229.59 7.15234 c 0
 216.001 -1.43066 202.412 -5.72168 187.392 -5.72168 c 0
 151.63 -5.72168 137.325 10.0137 145.192 40.7686 c 0
 151.63 72.9541 173.087 91.5498 209.563 95.126 c 1
 244.61 95.126 258.915 77.2451 253.193 40.7686 c 0
EndSplineSet
Fore
SplineSet
366 627 m 0xd0
 366 605 357 577 353 560 c 1
 227 176 l 1
 214 176 l 1
 227 284 l 2
 231 309 237 362 239 422 c 1
 249 551 252 677 327 677 c 0
 353 677 366 659 366 627 c 0xd0
138 32 m 0xe0
 138 67 171 98 204 98 c 0
 229 98 248 79 248 54 c 0
 248 18 215 -9 180 -9 c 0
 155 -9 138 7 138 32 c 0xe0
EndSplineSet
EndChar

StartChar: quotedbl
Encoding: 34 34 3
Width: 407
Flags: W
HStem: 431 246
VStem: 212 87<636.141 666.544> 369 21<431 452.215> 381 86<636.141 667.125>
LayerCount: 2
Back
SplineSet
492.082 632.982 m 0
 491.365 625.115 479.206 592.214 457.035 534.995 c 0
 446.307 506.386 437.009 482.783 429.855 464.902 c 0
 422.703 447.021 417.696 433.432 414.836 424.85 c 1
 394.094 424.85 l 1
 396.24 467.764 397.67 502.094 398.386 527.844 c 0
 399.101 553.592 399.815 574.333 400.532 588.637 c 0
 401.247 603.657 401.247 613.671 401.962 619.394 c 0
 402.677 625.115 403.393 630.122 404.107 632.982 c 0
 409.829 660.877 427.71 675.182 457.035 675.182 c 0
 484.213 675.182 496.372 660.877 492.082 632.982 c 0
318.994 632.982 m 0
 318.279 625.115 306.836 592.214 283.948 534.995 c 0
 273.219 506.386 264.637 482.783 256.77 464.902 c 0
 249.616 447.021 244.61 433.432 241.749 424.85 c 1
 221.008 424.85 l 1
 223.153 467.764 224.583 502.094 225.3 527.844 c 0
 226.729 553.592 227.444 574.333 227.444 588.637 c 0
 228.16 603.657 228.875 613.671 229.59 619.394 c 0
 229.59 625.115 230.306 630.122 231.735 632.982 c 0
 237.457 660.877 254.623 675.182 283.948 675.182 c 0
 311.843 675.182 323.286 660.877 318.994 632.982 c 0
EndSplineSet
Fore
SplineSet
390 431 m 1xe0
 369 431 l 1xe0
 372 521 378 620 381 636 c 0
 385 658 409 677 432 677 c 0
 453 677 467 662 467 643 c 0xd0
 467 642 466 639 466 636 c 0
 460 608 416 492 390 431 c 1xe0
221 431 m 1
 199 431 l 1
 204 521 209 620 212 636 c 0
 217 658 240 677 264 677 c 0
 284 677 299 662 299 643 c 0
 299 642 297 639 297 636 c 0
 291 608 246 492 221 431 c 1
EndSplineSet
EndChar

StartChar: numbersign
Encoding: 35 35 4
Width: 499
Flags: W
HStem: 0 21G<79 145.163 272 338.07> 215 56<62 157 236 350 428 517> 406 54<130 229 306 419 497 583> 642 20G<314.673 379 503.871 570>
DStem2: 79 0 138 0 0.344588 0.938754<20.3307 228.71 308.503 432.822 510.048 705.19> 272 0 331 0 0.339575 0.940579<20.0349 228.711 307.871 431.793 509.071 703.822>
LayerCount: 2
Back
SplineSet
600.797 405.537 m 1
 496.372 405.537 l 1
 448.451 272.504 l 1
 547.869 272.504 l 1
 534.995 216.716 l 1
 424.85 216.716 l 1
 349.75 0 l 1
 291.816 0 l 1
 367.631 216.716 l 1
 233.167 216.716 l 1
 155.206 0 l 1
 96.5566 0 l 1
 174.518 216.716 l 1
 67.2324 216.716 l 1
 80.8213 272.504 l 1
 197.405 272.504 l 1
 246.041 405.537 l 1
 135.895 405.537 l 1
 148.053 461.325 l 1
 266.782 461.325 l 1
 339.737 662.307 l 1
 396.955 662.307 l 1
 325.432 461.325 l 1
 458.465 461.325 l 1
 529.988 662.307 l 1
 587.208 662.307 l 1
 515.685 461.325 l 1
 612.241 461.325 l 1
 600.797 405.537 l 1
437.724 405.537 m 1
 304.69 405.537 l 1
 254.623 272.504 l 1
 389.803 272.504 l 1
 437.724 405.537 l 1
EndSplineSet
Fore
SplineSet
529 271 m 1
 517 215 l 1
 407 215 l 1
 331 0 l 1
 272 0 l 1
 350 215 l 1
 215 215 l 1
 138 0 l 1
 79 0 l 1
 157 215 l 1
 50 215 l 1
 62 271 l 1
 179 271 l 1
 229 406 l 1
 119 406 l 1
 130 460 l 1
 248 460 l 1
 322 662 l 1
 379 662 l 1
 306 460 l 1
 439 460 l 1
 511 662 l 1
 570 662 l 1
 497 460 l 1
 595 460 l 1
 583 406 l 1
 478 406 l 1
 428 271 l 1
 529 271 l 1
419 406 m 1
 287 406 l 1
 236 271 l 1
 371 271 l 1
 419 406 l 1
EndSplineSet
EndChar

StartChar: dollar
Encoding: 36 36 5
Width: 499
Flags: W
HStem: 0 28<165.69 230 270 318.503> 637 27<321.019 363 404 449.902>
VStem: 82 15<149.319 182> 157 80<459.218 557.841> 413 86<122.103 237.305> 516 14<499 529.448>
DStem2: 211 -86 245 -86 0.207912 0.978148<7.069 88.071 123.776 394.836 503.85 738.803 773.738 831.203>
LayerCount: 2
Back
SplineSet
524.267 178.809 m 0
 502.094 77.9609 423.418 18.5957 288.239 0 c 1
 269.644 -86.543 l 1
 234.597 -86.543 l 1
 253.193 0 l 1
 183.814 0 124.451 17.8809 74.3848 52.9277 c 1
 102.278 185.961 l 1
 117.299 185.961 l 1
 119.444 81.5371 166.65 29.3242 258.915 29.3242 c 1
 321.14 317.564 l 1
 295.392 334.73 273.936 349.75 255.338 364.054 c 0
 237.457 378.359 223.153 391.233 212.426 402.677 c 0
 183.1 439.869 173.087 480.638 181.669 524.267 c 0
 191.683 572.188 218.861 610.81 263.922 640.135 c 0
 302.544 667.313 347.604 680.903 398.386 680.903 c 1
 411.26 745.274 l 1
 447.021 745.274 l 1
 433.432 680.903 l 1
 514.253 666.599 l 2
 544.293 660.877 568.612 647.288 585.776 627.261 c 1
 560.743 512.823 l 1
 546.439 512.823 l 1
 549.3 597.936 509.963 644.426 427.71 653.01 c 1
 373.353 401.247 l 1
 457.035 342.598 l 1
 500.664 301.829 l 1
 527.127 268.212 534.995 227.444 524.267 178.809 c 0
341.167 417.696 m 1
 391.233 653.01 l 1
 318.994 641.564 276.081 605.803 262.49 545.008 c 0
 257.484 520.691 262.49 497.804 276.796 476.346 c 1
 341.167 417.696 l 1
439.154 155.206 m 0
 445.591 187.392 439.154 216.001 421.988 240.318 c 0
 411.975 253.193 389.088 273.219 353.326 300.398 c 1
 294.677 29.3242 l 1
 374.782 42.1992 422.703 83.6826 439.154 155.206 c 0
EndSplineSet
Fore
SplineSet
347 391 m 1
 454 321 499 291 499 218 c 0
 499 141 466 88 417 53 c 0
 374 23 341 12 264 0 c 1
 245 -86 l 1
 211 -86 l 1
 230 0 l 1
 146 3 107 15 54 51 c 1
 82 182 l 1
 97 182 l 1
 100 76 142 29 236 28 c 1
 296 311 l 1
 234 350 215 365 192 393 c 1
 167 420 157 445 157 476 c 0
 157 539 192 590 237 623 c 1
 277 647 306 658 371 664 c 1
 384 727 l 1
 417 727 l 1
 404 664 l 1
 488 655 527 639 555 611 c 1
 530 499 l 1
 516 499 l 1
 516 504 l 2
 516 586 480 627 398 637 c 1
 347 391 l 1
363 637 m 1
 250 615 237 544 237 511 c 0
 237 478 258 453 315 407 c 1
 363 637 l 1
327 293 m 1
 270 28 l 1
 401 50 413 144 413 180 c 0
 413 220 391 246 327 293 c 1
EndSplineSet
EndChar

StartChar: percent
Encoding: 37 37 6
Width: 832
Flags: W
HStem: -13 21G<198 261.42> 0 29<555.716 632.635> 289 35<226.928 313.428> 338 33<701.217 786.881> 583 25<506.26 642.109> 633 29<376.832 434.17> 657 20G<706 778>
VStem: 146 72<329.731 441.109> 473 70<35.9731 148.864> 479 25<519.86 592.673> 803 29<228.081 319.226>
DStem2: 198 -13 246 -13 0.610598 0.791941<29.3087 792.687 808.731 876.162>
LayerCount: 2
Back
SplineSet
801.062 693.062 m 1
 256.055 -10.0137 l 1
 208.134 -10.0137 l 1
 700.214 623.684 l 1
 659.445 606.518 620.823 597.936 584.347 597.936 c 0
 552.876 597.936 531.419 600.797 518.545 607.949 c 1
 517.114 562.174 l 1
 506.386 516.399 487.075 473.485 458.465 432.002 c 0
 454.89 426.995 449.883 421.273 444.161 414.121 c 0
 437.724 406.254 431.287 398.386 423.418 389.803 c 0
 366.915 326.863 308.266 296.106 248.901 296.106 c 0
 211.709 296.106 185.246 309.697 170.226 336.875 c 0
 154.491 364.054 150.199 396.955 158.066 434.862 c 0
 170.94 493.512 204.557 548.585 258.915 600.797 c 0
 316.85 652.293 373.353 678.043 429.141 678.043 c 0
 451.312 678.043 475.631 668.744 500.664 650.148 c 1
 532.134 632.982 560.743 623.684 585.776 623.684 c 0
 639.419 623.684 698.068 647.288 760.294 693.062 c 1
 801.062 693.062 l 1
851.129 268.212 m 0
 838.255 205.272 807.5 146.624 758.863 92.2656 c 0
 705.937 30.7549 649.433 0 588.638 0 c 0
 547.869 0 519.26 12.874 504.24 39.3379 c 0
 488.505 65.8018 484.213 99.418 492.082 140.901 c 0
 505.671 198.12 540.002 252.478 594.36 303.259 c 0
 651.578 354.757 707.366 380.505 763.155 380.505 c 0
 838.255 380.505 867.579 343.312 851.129 268.212 c 0
490.65 567.181 m 0
 493.512 576.479 494.227 592.929 492.082 615.102 c 1
 474.916 620.108 458.465 627.261 444.161 637.274 c 2
 433.432 645.856 l 1
 429.141 647.288 l 2
 393.379 647.288 351.895 615.816 304.69 552.161 c 0
 263.922 495.657 238.889 447.021 230.306 406.969 c 0
 220.293 356.187 236.027 331.153 276.796 331.153 c 0
 322.571 331.153 369.061 359.762 416.267 417.696 c 0
 456.319 467.049 480.638 517.114 490.65 567.181 c 0
823.235 261.062 m 0
 828.242 283.948 826.096 304.69 816.798 321.856 c 0
 807.5 338.306 791.764 346.888 768.876 346.888 c 0
 725.962 346.888 680.903 313.272 632.982 244.61 c 0
 593.644 190.253 570.757 144.478 563.605 108.716 c 0
 552.161 56.5039 568.612 30.7549 612.241 30.7549 c 0
 657.3 30.7549 702.359 59.3643 746.705 115.868 c 0
 786.757 163.788 812.507 211.709 823.235 261.062 c 0
EndSplineSet
Fore
SplineSet
473 92 m 0x79a0
 473 208 611 371 749 371 c 0
 803 371 832 344 832 296 c 0
 832 191 707 0 570 0 c 0
 508 0 473 35 473 92 c 0x79a0
592 29 m 0
 701 29 803 215 803 277 c 0
 803 312 781 338 749 338 c 0
 652 338 543 139 543 76 c 0
 543 48 562 29 592 29 c 0
423 662 m 0xbd60
 505 662 465 608 568 608 c 0
 630 608 674 625 738 677 c 1
 778 677 l 1x3b60
 246 -13 l 1
 198 -13 l 1
 683 614 l 1
 639 590 611 583 567 583 c 0
 538 583 520 586 502 593 c 1
 504 586 504 580 504 574 c 0
 504 494 391 289 240 289 c 0
 185 289 146 331 146 388 c 0
 146 493 282 662 423 662 c 0xbd60
265 324 m 0
 366 324 479 486 479 577 c 0
 479 584 478 592 478 601 c 1
 420 615 429 633 417 633 c 0x3d60
 335 633 218 430 218 369 c 0
 218 341 236 324 265 324 c 0
EndSplineSet
EndChar

StartChar: ampersand
Encoding: 38 38 7
Width: 777
Flags: W
HStem: -13 72<584.831 677.087> -13 53<163.622 325.947> 406 20<586 622.404 754.715 797> 645 32<444.586 538.499>
VStem: 67 101<81.0354 191.794> 308 87<416.983 565.873> 560 52<515.912 630.321>
LayerCount: 2
Back
SplineSet
789.618 99.418 m 1
 785.327 90.835 779.606 81.5371 771.022 71.5234 c 0
 763.155 62.2256 753.142 51.4971 742.413 40.7686 c 0
 702.36 7.15234 660.162 -10.0137 615.102 -10.0137 c 0
 563.605 -10.0137 512.823 19.3115 462.757 77.9609 c 1
 411.26 40.7686 l 1
 371.922 19.3115 l 1
 322.571 -0.714844 273.219 -10.0137 223.868 -10.0137 c 0
 172.372 -10.0137 134.464 2.14551 110.861 27.8945 c 0
 86.543 52.9277 80.1064 91.5498 90.835 143.762 c 0
 106.57 221.723 173.087 291.816 291.816 354.757 c 1
 336.875 376.213 l 1
 328.292 458.465 l 1
 329.724 518.545 l 1
 334.73 540.002 342.598 560.028 354.757 579.34 c 0
 366.2 598.65 380.505 615.102 397.67 629.407 c 0
 414.836 642.996 433.432 654.439 454.175 663.022 c 0
 474.916 670.891 495.657 675.182 517.114 675.182 c 0
 554.307 675.182 583.632 664.452 606.518 642.996 c 0
 628.69 621.538 636.559 592.214 628.69 555.021 c 0
 623.684 533.565 615.102 514.253 602.942 495.657 c 0
 590.783 477.776 572.902 460.61 550.731 444.161 c 0
 540.001 436.294 524.981 426.995 506.386 417.696 c 0
 487.075 407.684 464.188 396.24 436.294 384.081 c 1
 447.021 345.458 459.896 309.697 475.631 275.365 c 0
 490.65 241.034 507.101 208.849 525.697 178.809 c 1
 602.228 256.77 644.426 316.85 653.01 359.048 c 0
 659.445 389.088 640.85 404.107 599.367 404.107 c 1
 603.657 426.28 l 1
 821.804 426.28 l 1
 817.512 404.107 l 1
 794.625 401.247 776.744 396.955 763.155 391.233 c 0
 748.85 385.512 730.254 369.775 708.798 345.458 c 1
 675.182 300.398 l 1
 653.725 273.936 632.268 248.187 610.095 222.438 c 0
 587.923 197.405 565.75 173.087 542.147 149.484 c 1
 550.015 131.604 560.028 115.868 572.902 102.278 c 0
 585.776 88.6895 602.228 77.9609 622.254 68.6621 c 0
 632.982 62.2256 649.433 58.6494 670.89 58.6494 c 0
 694.492 58.6494 715.234 63.6562 733.831 72.9541 c 0
 738.838 75.0996 744.56 79.3906 750.996 85.8281 c 0
 756.719 92.2656 765.301 100.848 776.029 111.576 c 1
 789.618 99.418 l 1
575.763 559.313 m 0
 580.77 582.916 577.909 602.942 567.181 619.394 c 0
 556.452 636.559 539.287 644.426 515.685 644.426 c 0
 462.757 644.426 430.57 615.102 419.128 556.453 c 0
 409.829 515.685 413.406 468.479 427.71 416.267 c 1
 514.968 457.035 563.605 504.956 575.763 559.313 c 0
445.591 103.709 m 1
 409.114 161.644 374.782 241.034 342.598 342.598 c 1
 290.385 311.843 l 1
 254.623 283.948 l 1
 219.576 250.331 198.12 215.286 190.253 180.239 c 0
 186.676 161.644 185.961 143.762 188.821 126.597 c 0
 191.683 109.431 197.405 94.4111 206.702 81.5371 c 0
 215.286 67.9473 226.729 57.9336 241.034 50.0664 c 0
 255.338 42.1992 271.789 37.9072 290.385 37.9072 c 0
 331.868 37.9072 384.081 60.0801 445.591 103.709 c 1
EndSplineSet
Fore
SplineSet
507 179 m 1x7e
 609 287 637 335 637 374 c 0
 637 393 621 401 582 406 c 1
 586 426 l 1
 801 426 l 1
 797 406 l 1
 746 398 724 387 690 346 c 1
 656 300 l 1
 612 246 579 209 523 149 c 1
 557 89 602 59 658 59 c 0
 694 59 718 70 759 111 c 1
 770 100 l 1
 727 29 661 -13 596 -13 c 0xbe
 538 -13 495 13 445 78 c 1
 357 12 291 -13 209 -13 c 0
 119 -13 67 29 67 101 c 0
 67 211 154 293 274 354 c 2
 318 376 l 1
 311 420 308 448 308 472 c 0
 308 595 403 677 499 677 c 0
 568 677 612 637 612 580 c 0
 612 458 450 398 417 384 c 1
 442 297 464 248 507 179 c 1x7e
495 645 m 0
 431 645 395 587 395 510 c 0
 395 483 400 454 409 416 c 1
 423 423 560 482 560 580 c 0
 560 618 535 645 495 645 c 0
325 343 m 1
 218 283 168 230 168 149 c 0
 168 86 211 40 272 40 c 0x7e
 313 40 357 57 426 104 c 1
 384 174 360 229 325 343 c 1
EndSplineSet
EndChar

StartChar: quotesingle
Encoding: 39 39 8
Width: 238
Flags: W
HStem: 431 246
VStem: 212 87<636.141 666.544>
LayerCount: 2
Back
SplineSet
317.564 594.36 m 0
 311.843 569.327 293.246 539.287 261.062 505.671 c 0
 231.735 477.062 201.695 456.319 171.657 444.161 c 1
 166.65 462.757 l 1
 231.735 499.949 266.782 536.426 273.936 572.902 c 0
 276.081 581.486 271.789 585.776 262.49 585.776 c 2
 250.331 584.347 l 1
 237.457 582.916 l 2
 194.543 582.916 176.662 600.082 184.531 634.412 c 0
 192.398 668.744 216.716 688.056 257.484 693.062 c 1
 275.365 693.062 290.385 687.34 303.259 675.182 c 0
 321.14 656.585 325.432 630.122 317.564 594.36 c 0
EndSplineSet
Fore
SplineSet
221 431 m 1
 199 431 l 1
 204 521 209 620 212 636 c 0
 217 658 240 677 264 677 c 0
 284 677 299 662 299 643 c 0
 299 642 297 639 297 636 c 0
 291 608 246 492 221 431 c 1
EndSplineSet
EndChar

StartChar: parenleft
Encoding: 40 40 9
Width: 332
Flags: W
HStem: 657 20G<396 445>
VStem: 89 78<16.2679 257.206>
LayerCount: 2
Back
SplineSet
308.982 -162.358 m 1
 293.246 -178.809 l 1
 256.77 -157.352 226.015 -128.742 201.695 -92.2656 c 0
 176.662 -56.5039 155.921 -12.1592 139.471 39.3379 c 0
 135.895 50.0664 133.749 60.0801 130.888 69.3779 c 0
 128.742 78.6758 126.597 88.6895 125.881 97.9873 c 0
 120.159 145.908 124.451 202.412 139.471 268.212 c 0
 177.379 447.736 291.816 589.354 482.068 693.062 c 1
 487.79 676.611 l 1
 425.563 634.412 377.643 592.929 345.458 552.161 c 0
 316.133 512.823 291.816 470.624 271.789 424.85 c 0
 251.763 379.074 237.457 329.007 228.16 275.365 c 1
 206.702 153.774 l 1
 201.695 124.451 200.98 92.9805 203.842 58.6494 c 0
 207.419 -37.9072 242.464 -111.576 308.982 -162.358 c 1
EndSplineSet
Fore
SplineSet
167 81 m 0
 167 -41 190 -85 271 -161 c 1
 253 -177 l 1
 209 -145 187 -123 157 -75 c 0
 111 -4 89 63 89 141 c 0
 89 176 94 212 103 252 c 0
 127 369 183 469 272 557 c 0
 318 602 354 628 438 677 c 1
 445 661 l 1
 359 602 322 565 281 504 c 0
 223 417 167 229 167 81 c 0
EndSplineSet
EndChar

StartChar: parenright
Encoding: 41 41 10
Width: 332
Flags: W
HStem: 657 20G<170 207.5>
VStem: 272 78<242.644 479.865>
LayerCount: 2
Back
SplineSet
374.782 243.181 m 0
 356.187 154.491 317.564 73.6689 257.484 0.714844 c 0
 198.12 -72.2383 123.735 -131.604 33.6162 -178.809 c 1
 26.4639 -162.358 l 1
 53.6426 -143.762 77.9609 -125.881 98.7021 -108 c 0
 120.159 -89.4043 138.756 -70.8086 155.921 -52.2119 c 0
 173.087 -32.9004 188.106 -12.1592 201.695 9.29785 c 0
 214.569 31.4707 226.729 55.7881 238.889 82.252 c 0
 258.2 125.881 273.936 177.379 285.378 236.027 c 0
 296.106 282.518 303.976 324.001 307.551 360.479 c 0
 311.843 396.24 313.272 426.995 311.843 452.743 c 0
 303.976 552.161 268.212 627.261 205.272 676.611 c 1
 222.438 693.062 l 1
 290.385 650.863 337.591 587.208 364.769 500.664 c 0
 391.233 419.128 394.809 333.299 374.782 243.181 c 0
EndSplineSet
Fore
SplineSet
272 420 m 0
 272 539 249 586 170 661 c 1
 185 677 l 1
 230 645 250 623 281 574 c 0
 328 502 350 432 350 353 c 0
 350 317 347 117 167 -57 c 0
 120 -103 83 -129 0 -177 c 1
 -4 -161 l 1
 79 -103 116 -67 158 -4 c 0
 215 83 272 274 272 420 c 0
EndSplineSet
EndChar

StartChar: asterisk
Encoding: 42 42 11
Width: 499
Flags: W
HStem: 352 79<164.347 223.321> 508 84<193.501 261.348 477.666 535.172> 657 20G<389 403>
VStem: 277 77<276.163 346.859> 350 75<594.864 670.167>
LayerCount: 2
Back
SplineSet
557.882 395.525 m 0
 554.307 371.207 539.287 359.048 514.253 359.048 c 0
 501.379 359.048 484.93 374.067 464.188 404.107 c 0
 452.743 420.558 441.301 434.147 431.287 444.161 c 0
 421.273 453.458 411.975 460.61 404.107 464.188 c 2
 398.386 467.049 l 1
 396.955 459.896 l 2
 391.948 441.301 389.088 424.135 388.373 406.969 c 0
 386.941 390.519 387.656 374.782 389.803 360.479 c 2
 395.525 314.703 l 1
 389.803 289.67 372.638 274.65 344.027 271.074 c 1
 321.14 271.074 311.843 284.663 317.564 311.843 c 1
 342.598 367.631 l 1
 352.611 386.941 359.762 403.393 364.054 415.551 c 0
 368.346 427.71 371.922 436.294 373.353 440.584 c 1
 377.643 459.896 l 1
 377.643 467.049 l 1
 322.571 433.432 l 1
 286.81 404.107 l 1
 253.193 373.353 l 1
 241.034 364.769 227.444 360.479 213.854 360.479 c 0
 191.683 360.479 182.385 371.207 185.961 392.663 c 0
 190.968 414.836 211.709 430.57 248.901 439.154 c 0
 306.836 454.175 348.319 468.479 374.782 483.498 c 1
 364.769 490.65 l 2
 361.908 494.942 332.584 504.956 276.796 521.406 c 0
 237.457 534.28 220.293 550.731 223.868 571.473 c 0
 226.015 580.055 231.021 588.637 238.889 596.506 c 0
 243.896 600.797 252.478 604.373 265.352 606.518 c 0
 281.088 606.518 296.106 595.075 310.412 572.902 c 0
 331.153 539.287 356.187 514.968 385.512 497.804 c 1
 388.373 511.393 l 2
 389.803 520.691 391.233 531.419 391.948 543.578 c 0
 392.663 555.021 391.948 568.612 391.233 584.347 c 0
 389.088 600.797 388.373 615.102 389.088 626.545 c 0
 389.088 637.274 390.519 646.571 392.663 653.01 c 0
 398.386 679.473 414.121 693.062 439.154 693.062 c 0
 462.757 693.062 471.339 679.473 465.617 653.01 c 1
 440.584 597.936 l 2
 422.703 558.599 411.975 533.565 409.829 522.837 c 2
 404.107 496.372 l 1
 413.406 500.664 l 2
 437.724 513.538 467.049 536.426 502.094 568.612 c 0
 531.419 594.36 552.876 607.949 565.75 607.949 c 0
 591.499 607.949 602.228 595.79 596.506 571.473 c 0
 591.499 553.592 581.486 540.718 567.181 532.851 c 1
 507.101 519.975 l 2
 469.909 512.107 437.724 499.233 409.829 482.068 c 1
 416.267 476.346 l 1
 455.604 455.604 l 1
 519.975 439.154 l 2
 551.446 431.287 563.605 416.981 557.882 395.525 c 0
EndSplineSet
Fore
SplineSet
472 350 m 0xe8
 423 350 425 426 357 456 c 1
 352 432 349 400 349 376 c 0
 349 356 354 333 354 315 c 0
 354 289 325 265 305 265 c 0
 289 265 277 278 277 294 c 0xf0
 277 296 278 299 278 302 c 0
 285 343 332 373 338 456 c 1
 283 425 274 420 226 375 c 0
 207 356 196 352 180 352 c 0
 161 352 149 362 149 378 c 0
 149 420 208 429 221 431 c 0
 271 439 289 447 334 472 c 1
 308 486 290 499 246 508 c 0
 205 516 186 529 186 546 c 0
 186 567 203 592 229 592 c 0
 268 592 264 536 346 486 c 1
 349 510 353 530 353 558 c 0
 353 577 350 603 350 623 c 0
 350 670 384 677 394 677 c 0
 412 677 425 665 425 647 c 0
 425 645 423 642 423 639 c 0
 410 593 392 597 363 483 c 1
 395 502 419 516 456 552 c 0
 486 580 505 593 521 593 c 0
 539 593 549 582 549 565 c 0
 549 532 530 519 488 513 c 1
 442 505 422 498 368 470 c 1
 374 464 l 1
 452 417 516 439 516 397 c 0
 516 371 495 350 472 350 c 0xe8
EndSplineSet
EndChar

StartChar: plus
Encoding: 43 43 12
Width: 563
Flags: W
HStem: 0 21G<249 319.273> 220 66<89 296 375 582>
DStem2: 249 0 315 0 0.207912 0.978148<13.7222 224.964 305.947 516.211>
LayerCount: 2
Back
SplineSet
630.122 234.597 m 1
 396.955 234.597 l 1
 346.888 0 l 1
 296.106 0 l 1
 345.458 234.597 l 1
 113.007 234.597 l 1
 123.021 285.378 l 1
 356.187 285.378 l 1
 405.537 518.545 l 1
 457.035 518.545 l 1
 406.969 285.378 l 1
 640.135 285.378 l 1
 630.122 234.597 l 1
EndSplineSet
Fore
SplineSet
309 286 m 1
 356 505 l 1
 422 505 l 1
 375 286 l 1
 595 286 l 1
 582 220 l 1
 362 220 l 1
 315 0 l 1
 249 0 l 1
 296 220 l 1
 76 220 l 1
 89 286 l 1
 309 286 l 1
EndSplineSet
EndChar

StartChar: comma
Encoding: 44 44 13
Width: 249
Flags: W
HStem: -1 104<84.5566 153.227>
VStem: 154 47<-22.3991 53.5>
LayerCount: 2
Back
SplineSet
203.842 5.72168 m 0
 201.695 -5.00684 195.975 -17.8809 185.961 -32.1855 c 0
 175.947 -47.2051 163.788 -62.2256 148.053 -79.3906 c 0
 115.868 -111.576 85.1133 -132.318 57.2188 -142.332 c 1
 52.9277 -121.59 l 1
 117.299 -85.1133 153.06 -49.3516 159.498 -12.874 c 0
 161.644 -4.29102 158.066 0 148.053 0 c 2
 135.895 -1.43066 l 1
 124.451 -2.86133 l 2
 81.5371 -2.86133 63.6562 12.874 70.0928 45.0596 c 0
 77.2451 84.3975 100.848 103.709 142.332 103.709 c 0
 168.795 103.709 186.676 94.4111 196.688 75.0996 c 0
 207.419 56.5039 209.563 32.9004 203.842 5.72168 c 0
EndSplineSet
Fore
SplineSet
64 32 m 0
 64 76 100 103 138 103 c 0
 176 103 201 73 201 34 c 0
 201 -1 168 -89 54 -141 c 1
 48 -122 l 1
 120 -79 154 -35 154 -13 c 0
 154 -6 148 -1 142 -1 c 0
 139 -1 125 -6 114 -6 c 0
 83 -6 64 9 64 32 c 0
EndSplineSet
EndChar

StartChar: hyphen
Encoding: 45 45 14
Width: 332
Flags: W
HStem: 193 63<94 327>
VStem: 81 259
LayerCount: 2
Back
SplineSet
395.525 188.821 m 1
 77.9609 188.821 l 1
 87.9736 237.457 l 1
 405.537 237.457 l 1
 395.525 188.821 l 1
EndSplineSet
Fore
SplineSet
94 256 m 1
 340 256 l 1
 327 193 l 1
 81 193 l 1
 94 256 l 1
EndSplineSet
EndChar

StartChar: period
Encoding: 46 46 15
Width: 249
Flags: W
HStem: -12 112<99.1615 171.483>
VStem: 78 114<7.9707 79.2069>
LayerCount: 2
Back
SplineSet
212.426 43.6289 m 0
 209.563 29.3242 200.98 17.166 186.676 6.4375 c 0
 172.372 -3.57617 158.066 -8.58301 143.762 -8.58301 c 0
 128.742 -8.58301 116.583 -3.57617 108 6.4375 c 0
 98.7021 17.166 95.126 29.3242 97.9873 43.6289 c 0
 102.278 59.3643 110.861 72.9541 123.735 85.1133 c 0
 136.609 96.5566 151.63 102.278 166.65 102.278 c 0
 181.669 102.278 193.828 96.5566 203.842 84.3975 c 0
 213.14 72.2383 216.001 58.6494 212.426 43.6289 c 0
EndSplineSet
Fore
SplineSet
192 54 m 0
 192 16 154 -12 122 -12 c 0
 95 -12 78 9 78 32 c 0
 78 64 109 100 145 100 c 0
 171 100 192 81 192 54 c 0
EndSplineSet
EndChar

StartChar: slash
Encoding: 47 47 16
Width: 276
Flags: W
HStem: -15 21G<-12 66.8382> 657 20G<352.162 431>
DStem2: -12 -15 56 -15 0.476447 0.879203<32.3984 787.076>
LayerCount: 2
Back
SplineSet
489.22 693.062 m 1
 14.3047 -177.379 l 1
 -37.9072 -177.379 l 1
 434.862 693.062 l 1
 489.22 693.062 l 1
EndSplineSet
Fore
SplineSet
431 677 m 1
 56 -15 l 1
 -12 -15 l 1
 363 677 l 1
 431 677 l 1
EndSplineSet
EndChar

StartChar: zero
Encoding: 48 48 17
Width: 499
Flags: W
HStem: -15 27<210.324 299.693> 650 27<342.83 429.998>
VStem: 82 85<81.984 322.463> 472 89<338.793 575.481>
LayerCount: 2
Back
SplineSet
571.473 331.153 m 0
 553.592 246.041 523.552 173.087 480.638 113.007 c 0
 424.135 30.04 354.757 -11.4434 272.504 -11.4434 c 0
 230.306 -11.4434 197.405 -0.714844 173.087 20.7422 c 0
 148.768 42.1992 130.888 69.3779 120.875 102.994 c 0
 110.861 136.609 105.854 173.802 107.285 213.854 c 0
 108 253.908 112.292 293.246 120.159 331.153 c 0
 128.027 368.346 140.186 406.969 156.637 447.736 c 0
 173.087 487.79 193.828 524.981 218.861 558.599 c 0
 243.896 592.214 273.219 620.108 306.12 642.281 c 0
 339.021 664.452 376.928 675.182 419.128 675.182 c 0
 500.664 675.182 552.161 632.982 572.902 547.869 c 0
 589.354 488.505 588.637 416.267 571.473 331.153 c 0
476.346 331.153 m 0
 522.121 543.578 500.664 650.148 413.406 650.148 c 0
 326.863 650.148 261.062 543.578 215.286 331.153 c 0
 169.511 118.014 190.253 11.4434 278.226 11.4434 c 0
 364.054 11.4434 429.855 118.014 476.346 331.153 c 0
EndSplineSet
Fore
SplineSet
561 453 m 0
 561 258 442 -15 248 -15 c 0
 127 -15 82 81 82 212 c 0
 82 425 206 677 397 677 c 0
 501 677 561 589 561 453 c 0
388 650 m 0
 234 650 167 273 167 152 c 0
 167 59 196 12 253 12 c 0
 428 12 472 459 472 508 c 0
 472 602 444 650 388 650 c 0
EndSplineSet
EndChar

StartChar: one
Encoding: 49 49 18
Width: 499
Flags: W
HStem: 0 15<122 183.277 331.766 394> 657 20G<392.204 442>
VStem: 119 323
DStem2: 211.944 0 299.058 0 0.207912 0.978148<71.0545 580.065>
LayerCount: 2
Back
SplineSet
429.141 0 m 1
 153.774 0 l 1
 156.637 14.3047 l 1
 190.968 14.3047 216.001 20.0264 232.45 30.04 c 0
 248.187 40.0527 259.63 60.7949 266.782 92.2656 c 2
 363.339 545.008 l 2
 369.775 576.479 362.624 591.499 339.737 591.499 c 0
 336.16 591.499 311.843 585.062 268.212 571.473 c 1
 271.074 582.916 l 1
 468.479 675.182 l 1
 477.776 673.751 l 1
 349.75 74.3848 l 2
 344.027 46.4902 349.75 28.6094 366.2 20.7422 c 0
 376.928 16.4502 399.101 14.3047 432.002 14.3047 c 1
 429.141 0 l 1
EndSplineSet
Fore
SplineSet
309 593 m 0
 289 593 261 580 233 571 c 1
 236 584 l 1
 435 677 l 1
 442 674 l 1
 315 75 l 2
 313 66 312 59 312 51 c 0
 312 23 333 16 397 15 c 1
 394 0 l 1
 119 0 l 1
 122 15 l 1
 176 16 220 19 231 92 c 1
 328 546 l 2
 330 555 331 562 331 568 c 0
 331 586 324 593 309 593 c 0
EndSplineSet
EndChar

StartChar: two
Encoding: 50 50 19
Width: 499
Flags: W
HStem: 0 76<144 420> 602 75<288.294 399.333>
VStem: 441 92<445.551 560.736>
DStem2: 32 12 144 76 0.755575 0.655062<126.548 444.957>
LayerCount: 2
Back
SplineSet
536.426 135.895 m 1
 452.743 0 l 1
 62.9404 0 l 1
 65.8018 11.4434 l 1
 283.948 202.412 l 2
 390.519 293.246 452.743 378.359 469.909 458.465 c 0
 479.923 505.671 474.916 540.718 454.89 565.75 c 0
 434.862 590.068 401.247 602.228 354.757 602.228 c 0
 314.703 602.228 279.656 587.208 250.331 557.882 c 0
 231.735 540.718 210.279 511.393 184.531 469.909 c 1
 165.219 476.346 l 1
 188.106 537.857 221.008 586.493 263.922 621.538 c 0
 306.836 657.3 359.048 675.182 420.558 675.182 c 0
 472.056 675.182 511.393 658.73 538.572 624.4 c 0
 565.035 590.783 572.902 547.869 562.174 494.942 c 0
 545.725 421.988 486.359 341.167 384.081 251.763 c 2
 177.379 74.3848 l 1
 416.267 74.3848 l 2
 440.584 74.3848 460.61 80.1064 476.346 90.835 c 0
 489.937 98.7021 505.671 115.152 522.837 140.901 c 1
 536.426 135.895 l 1
EndSplineSet
Fore
SplineSet
504 138 m 1
 420 0 l 1
 29 0 l 1
 32 12 l 1
 250 201 l 2
 397 328 441 436 441 495 c 0
 441 560 397 602 325 602 c 0
 255 602 214 570 152 472 c 1
 132 478 l 1
 164 548 186 580 226 614 c 1
 271 655 328 677 382 677 c 0
 473 677 533 618 533 538 c 0
 533 424 432 323 350 252 c 2
 144 76 l 1
 384 76 l 2
 428 76 442 85 492 142 c 1
 504 138 l 1
EndSplineSet
EndChar

StartChar: three
Encoding: 51 51 20
Width: 499
Flags: W
HStem: -15 37<121.5 267.173> 617 60<292.643 404.012>
VStem: 401 82<165.438 277.747> 431 85<493.35 591.477>
LayerCount: 2
Back
SplineSet
509.963 215.286 m 0
 494.942 140.901 454.89 83.6826 388.373 42.1992 c 0
 327.577 6.4375 259.63 -11.4434 184.531 -11.4434 c 0
 155.921 -11.4434 135.895 -8.58301 123.021 -1.43066 c 1
 93.6953 6.4375 80.8213 20.7422 85.1133 42.1992 c 0
 90.835 65.8018 105.854 77.9609 130.173 77.9609 c 0
 143.762 77.9609 164.504 68.6621 191.683 50.0664 c 0
 222.438 30.04 245.324 20.7422 262.49 20.7422 c 0
 305.405 20.7422 341.882 36.4766 371.922 68.6621 c 0
 400.532 95.8418 419.843 131.604 430.57 175.947 c 0
 435.577 199.55 434.862 220.293 429.141 238.889 c 1
 420.558 298.969 362.624 329.724 256.055 329.724 c 1
 257.484 342.598 l 1
 376.213 377.643 443.444 434.147 459.896 511.393 c 0
 467.049 542.147 462.042 567.896 445.591 586.493 c 0
 428.425 605.803 404.107 615.102 371.922 615.102 c 0
 311.843 615.102 254.623 580.055 202.412 509.963 c 1
 187.392 514.253 l 1
 243.181 621.538 320.425 675.182 419.128 675.182 c 0
 462.757 675.182 497.087 663.737 522.121 640.85 c 0
 547.154 617.963 555.021 585.062 546.439 542.147 c 0
 534.995 489.936 493.512 443.444 423.418 401.247 c 1
 455.604 385.512 477.776 369.061 490.65 351.895 c 0
 517.114 318.279 523.552 273.219 509.963 215.286 c 0
EndSplineSet
Fore
SplineSet
390 401 m 1xd0
 421 386 483 363 483 267 c 0
 483 164 422 91 371 53 c 0
 315 12 230 -15 154 -15 c 0
 89 -15 50 4 50 34 c 0
 50 50 64 78 97 78 c 0
 114 78 130 70 157 53 c 1
 187 29 207 22 233 22 c 0
 316 22 401 110 401 207 c 0xe0
 401 259 374 302 327 319 c 0
 305 328 283 330 223 330 c 1
 226 343 l 1
 299 368 330 382 366 412 c 1
 403 441 431 489 431 535 c 0
 431 584 395 617 340 617 c 0
 277 617 226 583 168 510 c 1
 155 514 l 1
 189 574 209 601 245 627 c 0
 289 659 335 677 385 677 c 0
 466 677 516 633 516 568 c 0
 516 468 415 416 390 401 c 1xd0
EndSplineSet
EndChar

StartChar: four
Encoding: 52 52 21
Width: 499
Flags: W
HStem: 0 21G<293 375.192> 167 64<103 328 420 507> 657 20G<451.704 514>
DStem2: 62 231 103 231 0.674975 0.73784<27.674 489.996> 293 0 371 0 0.207912 0.978148<16.2171 170.628 252.357 586.406>
LayerCount: 2
Back
SplineSet
528.559 163.788 m 1
 430.57 163.788 l 1
 395.525 0 l 1
 318.994 0 l 1
 354.757 163.788 l 1
 79.3906 163.788 l 1
 92.2656 226.729 l 1
 492.082 662.307 l 1
 536.426 662.307 l 1
 444.161 226.729 l 1
 542.147 226.729 l 1
 528.559 163.788 l 1
366.2 226.729 m 1
 436.294 559.313 l 1
 131.604 226.729 l 1
 366.2 226.729 l 1
EndSplineSet
Fore
SplineSet
521 231 m 1
 507 167 l 1
 406 167 l 1
 371 0 l 1
 293 0 l 1
 328 167 l 1
 47 167 l 1
 62 231 l 1
 470 677 l 1
 514 677 l 1
 420 231 l 1
 521 231 l 1
341 231 m 1
 413 574 l 1
 103 231 l 1
 341 231 l 1
EndSplineSet
EndChar

StartChar: five
Encoding: 53 53 22
Width: 499
Flags: W
HStem: -15 38<116.5 267.627> 583 79<315 534.016>
VStem: 404 82<194.589 317.112>
DStem2: 155 425 245 498 0.559533 0.828808<110.861 215.441>
LayerCount: 2
Back
SplineSet
625.115 683.765 m 1
 568.612 594.36 l 2
 564.32 588.637 556.453 585.776 543.578 585.776 c 2
 346.888 585.776 l 1
 286.81 500.664 l 1
 344.027 492.082 389.803 478.491 425.563 460.61 c 0
 461.325 442.729 484.93 420.558 496.372 395.525 c 1
 518.545 356.187 l 1
 525.697 325.432 l 1
 528.559 301.113 525.697 266.782 517.114 223.868 c 0
 500.664 150.914 460.61 92.9805 398.386 50.0664 c 0
 336.875 8.58301 270.358 -11.4434 197.405 -11.4434 c 0
 111.576 -11.4434 72.9541 7.15234 82.252 45.0596 c 0
 87.2588 71.5234 102.994 85.1133 130.173 85.1133 c 0
 153.06 85.1133 176.662 74.3848 202.412 52.9277 c 0
 227.444 32.9004 248.187 23.6025 263.922 23.6025 c 0
 306.836 23.6025 345.458 42.9141 380.505 82.252 c 0
 411.26 115.868 430.57 155.921 439.154 202.412 c 0
 454.89 273.219 433.432 328.292 373.353 366.2 c 0
 322.571 397.67 265.352 413.406 200.98 413.406 c 0
 194.543 413.406 193.113 417.696 195.975 426.28 c 1
 356.187 663.737 l 1
 565.75 663.737 l 2
 582.916 663.737 600.797 673.036 617.963 691.632 c 1
 625.115 683.765 l 1
EndSplineSet
Fore
SplineSet
404 242 m 0
 404 378 231 412 164 412 c 0
 157 412 154 413 154 417 c 0
 154 420 155 422 155 425 c 1
 315 662 l 1
 524 662 l 2
 545 662 557 666 576 688 c 1
 583 681 l 1
 526 592 l 2
 521 584 517 583 501 583 c 2
 306 583 l 1
 245 498 l 1
 357 478 410 454 445 410 c 0
 473 375 486 341 486 300 c 0
 486 168 379 -15 151 -15 c 0
 82 -15 41 6 41 38 c 0
 41 69 62 85 92 85 c 0
 114 85 135 75 163 53 c 1
 187 29 202 23 223 23 c 0
 312 23 404 126 404 242 c 0
EndSplineSet
EndChar

StartChar: six
Encoding: 54 54 23
Width: 499
Flags: W
HStem: -15 30<221.863 325.771> 382 46<279.426 388.634> 668 16<552.549 590>
VStem: 83 88<75.0327 297.542> 426 95<167.054 342.544>
LayerCount: 2
Back
SplineSet
532.851 215.286 m 0
 526.412 183.1 515.685 153.06 499.949 125.166 c 0
 484.93 97.2715 466.332 73.6689 444.876 53.6426 c 0
 422.703 33.6162 396.955 17.8809 368.346 5.72168 c 0
 339.737 -5.72168 308.266 -11.4434 273.936 -11.4434 c 0
 233.167 -11.4434 200.266 -2.86133 176.662 14.3047 c 0
 152.345 32.1855 135.18 55.0732 124.451 82.9668 c 0
 113.723 110.861 108.716 142.332 109.431 178.809 c 0
 109.431 214.569 113.723 251.048 121.59 286.81 c 0
 132.318 339.737 153.774 389.803 185.961 437.009 c 0
 218.146 484.93 256.77 525.697 301.113 560.743 c 0
 345.458 596.506 394.809 623.684 448.451 644.426 c 0
 502.094 665.169 555.738 675.182 609.38 675.182 c 1
 609.38 659.445 l 1
 526.412 645.142 454.89 614.387 394.094 565.75 c 0
 333.299 516.399 287.524 454.175 256.055 377.643 c 1
 329.724 411.26 l 1
 354.041 418.413 376.213 421.988 396.955 421.988 c 0
 453.458 421.988 493.512 401.962 517.114 362.624 c 0
 540.718 323.286 545.725 273.936 532.851 215.286 c 0
437.724 175.947 m 0
 466.332 309.697 434.862 376.213 344.027 376.213 c 0
 303.259 376.213 270.358 366.915 244.61 346.888 c 1
 239.604 337.591 233.882 324.717 227.444 308.982 c 0
 221.723 293.246 216.001 274.65 210.994 251.763 c 0
 205.272 227.444 200.98 201.695 198.835 173.802 c 0
 195.975 145.908 197.405 120.159 202.412 96.5566 c 0
 206.702 72.9541 216.716 53.6426 231.021 37.9072 c 0
 244.61 22.1719 266.067 14.3047 294.677 14.3047 c 0
 314.703 14.3047 333.299 19.3115 348.319 27.8945 c 0
 364.054 36.4766 377.643 48.6357 389.803 63.6562 c 0
 401.247 78.6758 411.26 95.8418 419.128 115.868 c 0
 426.995 135.18 433.432 155.206 437.724 175.947 c 0
EndSplineSet
Fore
SplineSet
255 -15 m 0
 139 -15 83 63 83 192 c 0
 83 353 178 511 330 603 c 1
 413 655 476 674 592 684 c 1
 590 668 l 1
 428 642 293 535 234 384 c 1
 305 420 327 428 371 428 c 0
 467 428 521 372 521 278 c 0
 521 111 391 -15 255 -15 c 0
272 15 m 0
 395 15 426 199 426 259 c 0
 426 338 390 382 322 382 c 0
 287 382 255 374 231 357 c 1
 189 331 171 230 171 160 c 0
 171 67 207 15 272 15 c 0
EndSplineSet
EndChar

StartChar: seven
Encoding: 55 55 24
Width: 499
Flags: W
HStem: -7 21G<170 246.75> 587 75<220 495>
LayerCount: 2
Back
SplineSet
620.823 647.288 m 1
 269.644 -5.72168 l 1
 203.842 -5.72168 l 1
 529.988 590.068 l 1
 311.843 590.068 l 2
 284.663 590.068 259.63 583.632 237.457 570.042 c 0
 225.3 562.889 205.987 542.147 178.809 508.531 c 1
 162.358 515.685 l 1
 251.763 663.737 l 1
 623.684 663.737 l 1
 620.823 647.288 l 1
EndSplineSet
Fore
SplineSet
590 662 m 1
 587 646 l 1
 236 -7 l 1
 170 -7 l 1
 495 587 l 1
 277 587 l 2
 223 587 204 576 145 507 c 1
 130 516 l 1
 220 662 l 1
 590 662 l 1
EndSplineSet
EndChar

StartChar: eight
Encoding: 56 56 25
Width: 499
Flags: W
HStem: -15 30<204.906 323.602> 647 30<320.61 438.278>
VStem: 83 78<48.9943 196.884> 167 83<460.284 562.213> 398 85<107.083 218.832> 472 69<488.855 623.07>
LayerCount: 2
Back
SplineSet
496.372 149.484 m 0
 490.65 122.305 480.638 97.9873 465.617 77.9609 c 0
 451.312 57.2188 433.432 40.0527 413.406 27.1787 c 0
 392.663 13.5898 369.775 4.29102 344.743 -2.14551 c 0
 319.71 -8.58301 294.677 -11.4434 268.212 -11.4434 c 0
 243.896 -11.4434 221.008 -8.58301 200.98 -1.43066 c 0
 180.239 5.72168 162.358 15.7354 148.053 29.3242 c 0
 133.033 42.9141 123.021 59.3643 117.299 79.3906 c 0
 111.576 98.7021 110.861 120.875 115.868 145.192 c 0
 120.875 169.511 128.027 189.538 136.609 205.272 c 0
 145.908 221.008 157.352 234.597 170.94 247.471 c 0
 183.814 260.345 199.55 273.219 218.146 285.378 c 0
 236.742 298.252 258.2 313.272 282.518 331.153 c 1
 268.212 350.465 254.623 366.915 242.464 379.789 c 0
 230.306 393.379 220.293 406.254 212.426 419.843 c 0
 204.557 432.717 199.55 447.021 197.405 462.757 c 0
 195.975 478.491 197.405 497.804 202.412 521.406 c 0
 206.702 545.008 216.716 566.466 231.021 585.062 c 0
 244.61 604.373 261.775 620.108 281.803 633.697 c 0
 301.829 646.571 324.001 657.3 346.888 664.452 c 0
 370.492 671.604 394.094 675.182 417.696 675.182 c 0
 439.869 675.182 460.61 672.319 480.638 667.313 c 0
 499.949 661.592 516.399 653.01 529.988 641.564 c 0
 543.578 630.122 553.592 615.102 558.599 597.936 c 0
 564.32 580.055 564.32 559.313 559.313 534.995 c 0
 550.731 493.512 531.419 461.325 501.379 437.724 c 0
 472.056 414.836 435.577 391.948 392.663 370.492 c 1
 409.829 351.18 426.28 334.014 441.3 318.994 c 0
 457.035 304.69 469.193 289.67 479.923 273.936 c 0
 489.937 258.2 497.087 241.034 499.949 221.723 c 0
 503.525 203.127 502.094 178.809 496.372 149.484 c 0
490.65 539.287 m 0
 496.372 570.042 493.512 595.075 482.068 613.671 c 0
 466.332 637.274 440.584 648.718 405.537 648.718 c 0
 375.499 648.718 348.319 639.419 324.717 620.823 c 0
 300.398 602.228 285.378 577.909 278.226 546.439 c 0
 267.497 494.942 297.537 442.015 367.631 388.373 c 1
 408.399 416.267 l 1
 437.724 439.154 l 1
 464.188 465.617 482.068 499.233 490.65 539.287 c 0
417.696 125.881 m 0
 425.563 162.358 420.558 191.683 402.677 215.286 c 0
 388.373 236.027 354.757 267.497 303.259 310.412 c 1
 268.212 282.518 l 1
 241.749 257.484 l 1
 217.432 228.16 200.98 194.543 193.113 155.206 c 0
 184.531 114.438 188.106 80.8213 203.842 54.3574 c 0
 219.576 27.8945 246.756 14.3047 285.378 14.3047 c 0
 316.85 14.3047 344.743 25.0332 369.775 46.4902 c 0
 394.809 67.2324 410.544 93.6953 417.696 125.881 c 0
EndSplineSet
Fore
SplineSet
483 195 m 0xf8
 483 91 398 -15 245 -15 c 0
 146 -15 83 38 83 116 c 0
 83 230 191 290 256 333 c 1
 189 404 167 437 167 480 c 0
 167 598 283 677 395 677 c 0
 483 677 541 630 541 561 c 0xf4
 541 447 408 389 369 371 c 1
 453 297 483 252 483 195 c 0xf8
262 15 m 0
 336 15 398 73 398 155 c 0xf8
 398 195 379 226 330 268 c 2
 278 312 l 1
 201 259 161 198 161 119 c 0
 161 54 199 15 262 15 c 0
382 647 m 0
 309 647 250 593 250 524 c 0
 250 479 278 438 344 390 c 1
 424 435 472 495 472 565 c 0xf4
 472 617 439 647 382 647 c 0
EndSplineSet
EndChar

StartChar: nine
Encoding: 57 57 26
Width: 499
Flags: W
HStem: -22 21<56 99.29> 237 43<249.314 359.6> 647 30<312.724 420.1>
VStem: 117 97<315.352 491.482> 461 90<367.923 586.375>
LayerCount: 2
Back
SplineSet
575.763 395.525 m 0
 552.161 283.948 497.804 190.253 411.26 114.438 c 0
 311.126 25.0332 203.127 -19.3115 87.9736 -19.3115 c 1
 89.4043 0 l 1
 129.457 5.00684 167.365 15.7354 204.557 32.1855 c 0
 241.034 48.6357 274.65 70.0928 306.12 96.5566 c 0
 337.591 123.021 365.485 153.06 391.233 185.961 c 0
 416.267 219.576 437.009 253.908 452.743 290.385 c 1
 426.995 271.789 401.247 258.2 374.782 249.616 c 0
 348.319 241.749 321.14 237.457 293.246 237.457 c 0
 237.457 237.457 197.405 256.77 173.087 296.106 c 0
 149.484 331.153 143.762 376.928 155.206 433.432 c 0
 170.226 502.094 199.55 557.882 243.181 602.228 c 0
 291.816 650.863 349.75 675.182 416.267 675.182 c 0
 487.075 675.182 536.426 645.142 563.605 584.347 c 0
 587.208 530.704 591.499 467.764 575.763 395.525 c 0
468.479 354.757 m 1
 477.776 394.094 l 2
 514.968 563.605 488.505 648.718 399.815 648.718 c 0
 328.292 648.718 280.371 590.068 254.623 473.485 c 0
 243.181 422.703 242.464 379.789 253.193 345.458 c 0
 266.782 301.829 296.822 279.656 342.598 279.656 c 0
 360.479 279.656 377.643 282.518 394.094 288.239 c 0
 410.544 294.677 427.71 302.544 445.591 313.272 c 0
 457.75 321.14 465.617 334.73 468.479 354.757 c 1
EndSplineSet
Fore
SplineSet
117 382 m 0
 117 548 252 677 382 677 c 0
 488 677 551 598 551 479 c 0
 551 311 446 146 308 59 c 1
 227 10 170 -9 54 -22 c 1
 56 -1 l 1
 212 23 347 130 423 294 c 1
 362 253 315 237 259 237 c 0
 170 237 117 293 117 382 c 0
306 280 m 0
 352 280 428 302 437 354 c 1
 447 403 461 475 461 519 c 0
 461 605 429 647 368 647 c 0
 338 647 311 637 290 617 c 0
 252 582 214 482 214 400 c 0
 214 324 248 280 306 280 c 0
EndSplineSet
EndChar

StartChar: colon
Encoding: 58 58 27
Width: 276
Flags: W
HStem: -12 112<109.458 181.483> 349 109<186.091 259.237>
VStem: 88 114<7.9707 78.561> 164 114<368.092 435.37>
LayerCount: 2
Back
SplineSet
301.829 411.26 m 0
 293.246 375.498 270.358 357.618 233.167 357.618 c 0
 218.146 357.618 205.987 362.624 196.688 373.353 c 0
 187.392 384.081 185.246 396.955 188.821 411.26 c 0
 196.688 445.591 219.576 465.617 256.055 469.909 c 0
 271.789 469.909 283.948 464.188 293.246 452.743 c 0
 301.829 440.584 304.69 426.995 301.829 411.26 c 0
222.438 43.6289 m 0
 219.576 28.6094 211.709 15.7354 198.835 5.72168 c 0
 185.246 -3.57617 170.94 -8.58301 155.206 -8.58301 c 0
 140.901 -8.58301 128.742 -3.57617 119.444 6.4375 c 0
 110.146 17.166 107.285 29.3242 110.146 43.6289 c 0
 113.723 59.3643 122.305 72.9541 135.18 85.1133 c 0
 148.768 96.5566 163.073 102.278 178.809 102.278 c 0
 194.543 102.278 206.702 96.5566 215.286 85.1133 c 0
 223.868 72.9541 226.729 59.3643 222.438 43.6289 c 0
EndSplineSet
Fore
SplineSet
278 415 m 0xd0
 278 369 234 349 209 349 c 0
 183 349 164 368 164 393 c 0
 164 416 193 458 234 458 c 0
 259 458 278 439 278 415 c 0xd0
202 54 m 0xe0
 202 16 164 -12 132 -12 c 0
 105 -12 88 9 88 32 c 0
 88 59 116 100 157 100 c 0
 182 100 202 81 202 54 c 0xe0
EndSplineSet
EndChar

StartChar: semicolon
Encoding: 59 59 28
Width: 276
Flags: W
HStem: -1 104<109.023 176.957> 349 109<185.156 259.237>
VStem: 164 114<368.092 436.049> 177 49<-22.6051 53.5>
LayerCount: 2
Back
SplineSet
301.829 411.26 m 0
 293.246 375.498 270.358 357.618 233.167 357.618 c 0
 218.146 357.618 205.987 362.624 196.688 373.353 c 0
 187.392 384.081 185.246 396.955 188.821 411.26 c 0
 196.688 445.591 219.576 465.617 256.055 469.909 c 0
 271.789 469.909 283.948 464.188 293.246 452.743 c 0
 301.829 440.584 304.69 426.995 301.829 411.26 c 0
243.181 5.72168 m 0
 236.027 -27.1787 214.569 -58.6494 177.379 -87.9736 c 2
 133.033 -123.021 l 2
 127.312 -126.597 121.59 -130.888 115.868 -133.749 c 0
 110.146 -137.325 103.709 -140.186 96.5566 -142.332 c 1
 92.2656 -121.59 l 1
 156.637 -85.1133 192.398 -49.3516 199.55 -12.874 c 0
 200.98 -4.29102 197.405 0 187.392 0 c 2
 175.947 -1.43066 l 1
 162.358 -2.86133 l 2
 120.875 -2.86133 102.994 12.874 110.146 45.0596 c 0
 116.583 84.3975 140.901 103.709 181.669 103.709 c 0
 235.312 103.709 256.055 71.5234 243.181 5.72168 c 0
EndSplineSet
Fore
SplineSet
89 32 m 0xd0
 89 76 125 103 161 103 c 0
 201 103 226 73 226 34 c 0
 226 -1 192 -89 78 -141 c 1
 72 -122 l 1
 145 -79 177 -36 177 -13 c 0
 177 -6 173 -1 166 -1 c 0
 161 -1 144 -6 138 -6 c 0
 107 -6 89 7 89 32 c 0xd0
278 415 m 0xe0
 278 369 234 349 209 349 c 0
 183 349 164 368 164 393 c 0
 164 433 210 458 234 458 c 0
 259 458 278 439 278 415 c 0xe0
EndSplineSet
EndChar

StartChar: less
Encoding: 60 60 29
Width: 563
Flags: W
HStem: -10 21G<495 538.889>
DStem2: 170 253 75 220 0.894427 -0.447214<0 424.406> 88 286 170 253 0.924541 0.381083<63.2366 561.312>
LayerCount: 2
Back
SplineSet
580.055 -5.72168 m 1
 110.146 226.729 l 1
 123.021 291.816 l 1
 694.492 527.127 l 1
 680.903 469.909 l 1
 173.087 261.062 l 1
 591.499 50.0664 l 1
 580.055 -5.72168 l 1
EndSplineSet
Fore
SplineSet
535 -10 m 1
 75 220 l 1
 88 286 l 1
 646 516 l 1
 630 444 l 1
 170 253 l 1
 549 62 l 1
 535 -10 l 1
EndSplineSet
EndChar

StartChar: equal
Encoding: 61 61 30
Width: 563
Flags: W
HStem: 120 66<69 560> 319 68<111 602>
LayerCount: 2
Back
SplineSet
651.578 336.875 m 1
 134.464 336.875 l 1
 145.192 388.373 l 1
 662.307 388.373 l 1
 651.578 336.875 l 1
607.949 131.604 m 1
 90.835 131.604 l 1
 102.278 183.1 l 1
 619.394 183.1 l 1
 607.949 131.604 l 1
EndSplineSet
Fore
SplineSet
617 387 m 1
 602 319 l 1
 97 319 l 1
 111 387 l 1
 617 387 l 1
574 186 m 1
 560 120 l 1
 54 120 l 1
 69 186 l 1
 574 186 l 1
EndSplineSet
EndChar

StartChar: greater
Encoding: 62 62 31
Width: 563
Flags: W
HStem: -10 21G<30.1667 74.4348>
DStem2: 41 62 26 -10 0.9243 0.381668<0 499.001> 138 516 122 444 0.893645 -0.448774<18.0134 443.314>
LayerCount: 2
Back
SplineSet
630.122 226.729 m 1
 60.0801 -5.72168 l 1
 71.5234 50.0664 l 1
 581.486 261.062 l 1
 160.928 469.909 l 1
 174.518 527.127 l 1
 642.996 291.816 l 1
 630.122 226.729 l 1
EndSplineSet
Fore
SplineSet
26 -10 m 1
 41 62 l 1
 502 253 l 1
 122 444 l 1
 138 516 l 1
 596 286 l 1
 583 220 l 1
 26 -10 l 1
EndSplineSet
EndChar

StartChar: question
Encoding: 63 63 32
Width: 443
Flags: W
HStem: -7 107<212.293 284.894> 646 31<295.492 401.081>
VStem: 177 66<489.789 596.5> 192 110<9.59564 79.875> 437 92<471.15 617.797>
LayerCount: 2
Back
SplineSet
539.287 522.837 m 0
 529.988 479.923 492.797 426.995 427.71 363.339 c 2
 379.074 316.133 l 1
 344.027 273.936 l 2
 328.292 255.338 309.697 220.293 288.239 168.795 c 1
 271.074 168.795 l 1
 281.803 217.432 302.544 265.352 332.584 313.272 c 2
 374.782 379.074 l 2
 413.406 440.584 436.294 491.365 445.591 531.419 c 0
 453.458 568.612 449.883 600.082 435.577 624.4 c 0
 421.273 649.433 396.24 662.307 360.479 662.307 c 0
 339.021 662.307 316.133 656.585 293.246 644.426 c 0
 268.212 630.122 254.623 614.387 251.763 599.367 c 0
 250.331 591.499 253.908 580.055 263.922 565.75 c 0
 274.65 548.585 278.226 534.995 275.365 522.837 c 0
 270.358 494.942 254.623 480.638 226.729 480.638 c 0
 193.113 480.638 180.239 502.094 188.821 545.008 c 0
 193.828 567.181 202.412 587.922 215.286 605.803 c 0
 228.16 623.684 243.896 639.419 262.49 651.578 c 0
 281.088 664.452 301.113 674.466 322.571 681.618 c 0
 344.027 689.485 365.485 693.062 388.373 693.062 c 0
 415.551 693.062 442.729 687.34 469.909 675.182 c 1
 500.664 658.016 l 1
 525.697 634.412 l 1
 543.578 600.797 547.869 563.605 539.287 522.837 c 0
310.412 43.6289 m 0
 307.551 29.3242 299.684 17.8809 286.093 8.58301 c 0
 273.219 0 258.915 -5.00684 244.61 -5.72168 c 0
 207.419 -7.86719 193.113 8.58301 200.98 43.6289 c 0
 207.419 75.8145 229.59 94.4111 266.782 99.418 c 0
 281.088 99.418 293.246 93.6953 302.544 82.9668 c 0
 311.843 71.5234 314.703 58.6494 310.412 43.6289 c 0
EndSplineSet
Fore
SplineSet
177 508 m 0xe8
 177 578 252 677 374 677 c 0
 424 677 529 652 529 552 c 0
 529 458 438 378 376 318 c 1
 330 271 305 231 280 164 c 1
 262 164 l 1
 272 208 293 256 321 306 c 1
 365 371 l 1
 417 451 437 518 437 555 c 0
 437 608 403 646 352 646 c 0
 300 646 243 613 243 580 c 0
 243 564 267 536 267 520 c 0
 267 516 261 469 215 469 c 0
 190 469 177 483 177 508 c 0xe8
192 32 m 0xd8
 192 69 227 100 258 100 c 0
 283 100 302 81 302 56 c 0
 302 19 270 -7 234 -7 c 0
 209 -7 192 9 192 32 c 0xd8
EndSplineSet
EndChar

StartChar: at
Encoding: 64 64 33
Width: 919
Flags: W
HStem: -15 40<393.399 605.733> 144 43<418.5 512.765> 144 32<648.964 722.583> 464 44<568.67 659.25> 645 32<523.298 709.502>
VStem: 177 85<147.976 372.32> 372 75<193.214 311.233> 580 66<177.162 215> 854 42<333.743 517.245>
LayerCount: 2
Back
SplineSet
836.109 380.505 m 0
 824.665 321.14 797.487 268.212 756.002 222.438 c 1
 710.228 168.795 658.016 142.332 600.797 142.332 c 0
 571.473 142.332 550.015 153.06 537.857 174.518 c 0
 527.844 186.676 524.267 200.266 527.127 213.854 c 1
 502.094 193.113 l 1
 476.346 174.518 l 2
 463.472 165.219 449.883 158.781 436.294 153.774 c 0
 422.703 148.768 409.114 145.192 395.525 143.762 c 1
 331.868 143.762 308.982 185.246 326.863 268.212 c 0
 331.868 291.816 340.452 315.418 353.326 339.737 c 0
 365.485 364.054 382.649 389.088 404.107 414.836 c 0
 454.89 477.062 511.393 508.531 574.333 508.531 c 1
 599.367 504.24 l 1
 614.387 496.372 625.83 479.923 632.982 455.604 c 1
 651.578 493.512 l 1
 722.387 493.512 l 1
 602.228 240.318 l 1
 594.36 215.286 l 1
 588.638 188.821 598.65 175.947 623.684 175.947 c 0
 645.142 175.947 665.884 183.1 684.479 196.688 c 0
 703.791 210.994 720.957 228.875 736.691 249.616 c 0
 752.427 271.074 765.301 293.246 775.314 316.133 c 0
 786.042 339.737 793.195 360.479 796.771 379.074 c 0
 804.638 417.696 803.923 452.743 794.625 484.93 c 0
 785.327 517.114 769.593 545.008 748.135 568.612 c 0
 725.962 591.499 699.499 610.095 668.029 623.684 c 0
 636.559 637.989 602.942 644.426 567.181 644.426 c 0
 519.26 644.426 475.631 635.129 436.294 616.531 c 0
 397.67 597.936 362.624 573.618 332.584 542.862 c 0
 302.544 512.107 276.796 476.346 256.77 434.862 c 0
 236.742 394.094 222.438 350.465 212.426 304.69 c 0
 203.842 264.637 203.127 227.444 211.709 193.113 c 0
 220.293 159.498 234.597 129.457 255.338 103.709 c 0
 276.796 78.6758 303.259 58.6494 335.445 44.3447 c 0
 367.631 30.7549 403.393 23.6025 442.015 23.6025 c 0
 505.671 23.6025 575.763 40.0527 651.578 72.9541 c 1
 656.585 42.1992 l 1
 610.095 25.0332 569.327 11.4434 532.851 2.14551 c 0
 497.087 -7.15234 464.902 -11.4434 436.294 -11.4434 c 0
 317.564 -11.4434 229.59 25.0332 173.087 99.418 c 1
 126.597 163.788 112.292 235.312 128.742 313.272 c 0
 152.345 419.128 205.272 505.671 288.239 572.902 c 0
 372.638 640.85 467.049 675.182 572.902 675.182 c 0
 659.445 675.182 730.254 648.718 783.896 596.506 c 0
 838.255 540.718 856.136 468.479 836.109 380.505 c 0
603.657 398.386 m 1
 612.241 442.015 602.228 464.188 574.333 464.188 c 0
 534.995 464.188 497.087 440.584 459.896 394.094 c 0
 425.563 351.895 404.107 311.126 395.525 271.074 c 0
 384.081 215.286 399.101 187.392 440.584 187.392 c 0
 472.056 187.392 507.101 216.001 545.008 272.504 c 0
 558.599 293.962 570.042 315.418 579.34 336.16 c 0
 588.638 356.901 596.506 377.643 603.657 398.386 c 1
EndSplineSet
Fore
SplineSet
177 256 m 0xbf80
 177 465 385 677 624 677 c 0
 788 677 896 576 896 439 c 0
 896 281 762 144 656 144 c 0xbf80
 609 144 580 168 580 209 c 2
 580 215 l 1
 536 171 483 144 439 144 c 0xdf80
 398 144 372 179 372 227 c 0
 372 273 407 381 504 458 c 1
 543 492 583 508 625 508 c 0
 661 508 672 497 686 456 c 1
 705 494 l 1
 773 494 l 1
 655 240 l 2
 650 231 646 220 646 207 c 0
 646 186 656 176 678 176 c 0
 754 176 854 302 854 426 c 0
 854 549 757 645 620 645 c 0
 394 645 262 411 262 252 c 0
 262 116 353 25 498 25 c 0
 565 25 618 38 705 73 c 1
 709 42 l 1
 603 -1 551 -15 480 -15 c 0
 299 -15 177 98 177 256 c 0xbf80
492 187 m 0xdf80
 575 187 662 376 662 425 c 0
 662 441 656 464 627 464 c 0
 559 464 447 349 447 240 c 0
 447 207 463 187 492 187 c 0xdf80
EndSplineSet
EndChar

StartChar: A
Encoding: 65 65 34
Width: 720
Flags: W
HStem: 0 19<19 56.0336 168.982 212 456 515.67 672.77 706> 215 41<270 501> 654 20G<478.291 515.499>
DStem2: 179 183 173 100 0.536319 0.844015<-123.647 62.4056 110.418 436.686> 511 674 444 532 0.219471 -0.975619<123.833 405.614 501.455 597.754>
LayerCount: 2
Back
SplineSet
705.937 0 m 1
 455.604 0 l 1
 459.896 17.8809 l 1
 492.082 17.8809 l 1
 509.963 23.6025 l 2
 524.267 27.1787 532.851 37.9072 536.426 55.7881 c 1
 536.426 77.9609 l 1
 529.988 118.729 l 1
 511.393 212.426 l 1
 253.193 212.426 l 1
 183.1 96.5566 l 2
 174.518 82.9668 168.795 70.8086 166.65 60.0801 c 0
 160.928 31.4707 180.954 17.8809 225.3 17.8809 c 1
 221.008 0 l 1
 26.4639 0 l 1
 30.7549 17.8809 l 1
 57.9336 17.8809 88.6895 39.3379 123.021 82.252 c 0
 125.881 87.2588 133.033 97.2715 143.762 113.007 c 0
 154.491 128.742 168.795 150.914 185.961 180.239 c 1
 493.512 662.307 l 1
 514.253 662.307 l 1
 640.135 103.709 l 2
 648.003 70.0928 656.585 47.2051 666.599 35.0469 c 0
 675.896 23.6025 690.917 17.8809 710.228 17.8809 c 1
 705.937 0 l 1
505.671 253.193 m 1
 449.883 522.837 l 1
 278.226 253.193 l 1
 505.671 253.193 l 1
EndSplineSet
Fore
SplineSet
710 19 m 1
 706 0 l 1
 451 0 l 1
 456 19 l 1
 513 21 535 28 535 66 c 0
 535 81 532 100 527 120 c 2
 507 215 l 1
 245 215 l 1
 173 100 l 2
 162 83 157 60 157 50 c 0
 157 29 176 19 217 19 c 1
 212 0 l 1
 15 0 l 1
 19 19 l 1
 67 21 82 37 179 183 c 1
 491 674 l 1
 511 674 l 1
 639 105 l 1
 658 32 665 22 710 19 c 1
270 256 m 1
 501 256 l 1
 444 532 l 1
 270 256 l 1
EndSplineSet
EndChar

StartChar: B
Encoding: 66 66 35
Width: 666
Flags: W
HStem: 0 37<230.92 406.142> 0 19<22 87.8978> 327 39<293 452.455> 625 37<344.666 509.797> 643 19<158 215.824>
VStem: 520 116<132.761 276.471> 565 103<444.099 584>
DStem2: 113.044 0 214.421 0 0.207912 0.978148<86.124 359.822 395.417 611.13>
LayerCount: 2
Back
SplineSet
650.148 175.947 m 0
 643.711 148.768 631.552 123.735 614.387 100.848 c 0
 597.221 78.6758 576.479 60.0801 552.161 44.3447 c 0
 527.844 29.3242 499.949 17.8809 469.193 10.0137 c 0
 438.438 2.14551 405.537 -0.714844 370.492 0 c 2
 35.0469 0 l 1
 39.3379 19.3115 l 1
 59.3643 19.3115 75.0996 20.0264 87.9736 22.8877 c 0
 100.848 25.0332 111.576 29.3242 120.159 35.7617 c 0
 128.742 42.1992 135.895 51.4971 141.616 62.9404 c 0
 146.624 74.3848 151.63 90.1191 155.206 108.716 c 2
 248.901 553.592 l 1
 256.77 588.637 256.055 612.956 247.471 625.115 c 1
 221.008 638.704 l 1
 173.087 644.426 l 1
 175.947 662.307 l 1
 457.035 662.307 l 2
 631.552 662.307 707.366 605.803 683.765 493.512 c 0
 673.036 445.591 648.718 409.829 609.38 385.512 c 0
 593.644 374.782 563.605 362.624 519.975 348.319 c 1
 625.115 325.432 668.744 267.497 650.148 175.947 c 0
580.055 487.79 m 0
 598.65 579.34 550.015 625.115 433.432 625.115 c 2
 389.803 625.115 l 2
 374.067 625.115 364.054 615.102 359.048 594.36 c 1
 310.412 364.769 l 1
 406.969 366.2 l 2
 504.956 366.915 562.174 407.684 580.055 487.79 c 0
536.426 180.239 m 0
 551.446 253.193 522.837 298.969 449.883 316.133 c 0
 425.563 323.286 376.213 326.863 301.829 326.863 c 1
 248.901 79.3906 l 1
 246.041 58.6494 252.478 45.0596 268.212 39.3379 c 0
 271.789 38.623 277.511 37.9072 285.378 37.1924 c 0
 293.246 37.1924 303.976 36.4766 317.564 36.4766 c 0
 442.729 36.4766 515.685 84.3975 536.426 180.239 c 0
EndSplineSet
Fore
SplineSet
636 214 m 0x34
 636 126 556 0 352 0 c 2xb4
 18 0 l 1
 22 19 l 1
 104 22 120 35 136 108 c 2
 230 554 l 2
 234 573 237 587 237 599 c 0
 237 633 215 640 154 643 c 1
 158 662 l 1x6c
 438 662 l 2
 590 662 668 617 668 530 c 0x32
 668 469 639 419 602 393 c 1
 574 371 551 360 497 349 c 1
 584 325 636 290 636 214 c 0x34
284 327 m 1
 231 78 l 2
 230 72 230 67 230 63 c 0
 230 42 245 37 286 37 c 0
 489 37 520 144 520 215 c 0
 520 258 499 287 458 306 c 0
 426 321 381 327 284 327 c 1
388 366 m 2
 531 366 565 465 565 521 c 0x32
 565 589 513 625 415 625 c 2
 371 625 l 2
 356 625 346 617 341 595 c 2
 293 366 l 1
 388 366 l 2
EndSplineSet
EndChar

StartChar: C
Encoding: 67 67 36
Width: 666
Flags: W
HStem: -15 44<299.499 487.144> 450 21G<690.5 718.436> 636 41<416.179 605.241>
VStem: 88 116<127.767 371.872> 693 22<450 490.744> 734 20<661.623 677>
LayerCount: 2
Back
SplineSet
668.029 110.146 m 1
 652.293 90.1191 625.83 69.3779 588.638 47.2051 c 0
 522.121 7.86719 450.598 -11.4434 373.353 -11.4434 c 0
 273.219 -11.4434 199.55 17.8809 152.345 77.9609 c 1
 107.285 139.471 95.8418 221.008 118.729 324.001 c 0
 129.457 371.922 146.624 416.267 170.226 457.035 c 0
 193.113 497.804 225.3 535.711 265.352 570.042 c 0
 346.173 639.419 432.717 670.176 524.267 663.737 c 2
 575.763 659.445 l 2
 583.632 658.016 592.214 657.3 602.942 655.155 c 0
 612.956 653.725 623.684 651.578 634.412 648.718 c 2
 693.062 631.552 l 1
 714.52 631.552 731.686 642.281 743.843 663.737 c 1
 763.155 663.737 l 1
 725.247 444.161 l 1
 704.506 444.161 l 1
 704.506 501.379 689.485 545.725 658.73 577.194 c 0
 627.976 608.664 583.632 623.684 525.697 623.684 c 0
 487.79 623.684 452.028 616.531 419.128 600.797 c 0
 385.512 585.062 356.187 560.743 329.724 528.559 c 0
 282.518 474.916 250.331 405.537 233.167 321.14 c 0
 223.868 279.656 221.008 242.464 222.438 208.849 c 0
 224.583 175.232 232.45 144.478 246.041 117.299 c 0
 276.081 57.9336 331.153 27.8945 409.829 27.8945 c 0
 489.937 27.8945 570.757 60.7949 651.578 127.312 c 1
 668.029 110.146 l 1
EndSplineSet
Fore
SplineSet
517 636 m 0
 322 636 204 432 204 234 c 0
 204 101 274 29 398 29 c 0
 480 29 554 60 643 130 c 1
 656 113 l 1
 580 32 470 -15 357 -15 c 0
 202 -15 88 70 88 239 c 0
 88 366 150 508 262 590 c 1
 335 645 425 677 507 677 c 0
 604 677 659 643 684 643 c 0
 705 643 724 655 734 677 c 1
 754 677 l 1
 715 450 l 1
 693 450 l 1
 688 516 678 543 655 576 c 1
 621 615 574 636 517 636 c 0
EndSplineSet
EndChar

StartChar: D
Encoding: 68 68 37
Width: 720
Flags: W
HStem: 0 37<221.734 411.911> 0 19<21 78.0476> 625 37<338.191 513.316> 643 19<157 205.661>
VStem: 653 112<284.991 512.089>
DStem2: 104.044 0 206.421 0 0.207912 0.978148<86.124 613.294>
LayerCount: 2
Back
SplineSet
774.6 329.724 m 0
 756.002 244.61 715.234 173.087 651.578 114.438 c 0
 568.612 37.9072 457.75 0 318.994 0 c 2
 33.6162 0 l 1
 37.9072 19.3115 l 1
 66.5166 19.3115 92.2656 25.0332 115.868 37.9072 c 1
 129.457 52.9277 139.471 75.8145 146.624 108.716 c 2
 241.749 555.021 l 2
 249.616 590.068 248.901 613.671 240.318 625.115 c 0
 238.174 627.261 235.312 630.122 231.735 632.982 c 0
 227.444 635.844 222.438 637.989 215.286 640.135 c 2
 171.657 644.426 l 1
 174.518 663.737 l 1
 445.591 663.737 l 2
 565.75 663.737 654.439 637.989 711.658 587.208 c 0
 777.46 531.419 798.202 445.591 774.6 329.724 c 0
666.599 329.724 m 0
 687.34 428.425 672.319 502.811 622.254 553.592 c 0
 576.479 602.228 504.24 627.261 404.107 627.261 c 0
 385.512 627.261 371.922 623.684 361.908 616.531 c 0
 357.618 612.956 353.326 602.942 348.319 587.208 c 1
 240.318 79.3906 l 1
 237.457 60.7949 241.034 47.9209 250.331 40.7686 c 0
 258.2 37.9072 271.789 36.4766 291.816 36.4766 c 0
 500.664 36.4766 625.115 134.464 666.599 329.724 c 0
EndSplineSet
Fore
SplineSet
127 108 m 1x48
 221 554 l 2
 226 574 229 589 229 601 c 0
 229 631 209 637 152 643 c 1
 157 662 l 1x58
 426 662 l 2
 621 662 765 587 765 412 c 0
 765 275 691 158 602 89 c 1
 529 34 416 0 300 0 c 2xa8
 16 0 l 1
 21 19 l 1
 97 23 111 37 127 108 c 1x48
653 406 m 0
 653 551 562 625 391 625 c 0
 350 625 337 617 331 586 c 2
 223 78 l 2
 221 72 221 67 221 63 c 0
 221 42 233 37 265 37 c 0xa8
 353 37 413 48 470 78 c 0
 581 135 653 266 653 406 c 0
EndSplineSet
EndChar

StartChar: E
Encoding: 69 69 38
Width: 610
Flags: W
HStem: 0 37<215.324 479.654> 0 19<16 72.1839> 327 41<278 503.723> 624 38<331.29 609.452> 643 19<152 200.471>
VStem: 514 24<231 255.67> 562 24<433.407 463> 631 25<519 554.75>
DStem2: 100.044 0 200.783 0 0.207912 0.978148<83.7994 355.19 396.957 607.989>
LayerCount: 2
Back
SplineSet
665.169 168.795 m 1
 584.347 0 l 1
 42.1992 0 l 1
 47.2051 19.3115 l 1
 80.8213 19.3115 105.14 25.0332 119.444 37.9072 c 0
 133.749 50.7812 144.478 74.3848 152.345 108.716 c 1
 247.471 555.021 l 1
 255.338 595.075 253.908 619.394 243.181 628.69 c 1
 219.576 638.704 l 1
 180.239 644.426 l 1
 183.1 663.737 l 1
 715.95 663.737 l 1
 688.771 519.975 l 1
 663.737 519.975 l 1
 666.599 567.896 658.016 597.936 637.274 610.81 c 0
 618.678 621.538 583.632 627.261 532.851 627.261 c 2
 398.386 627.261 l 2
 387.656 627.261 379.074 625.115 373.353 622.254 c 0
 366.915 616.531 361.908 606.518 359.048 591.499 c 2
 311.843 369.061 l 1
 465.617 369.061 l 2
 505.671 369.061 532.851 374.782 547.869 386.941 c 0
 564.32 398.386 580.055 424.135 594.36 464.188 c 1
 619.394 464.188 l 1
 571.473 233.167 l 1
 546.439 233.167 l 1
 549.3 274.65 545.008 300.398 532.851 308.982 c 1
 524.267 321.14 498.519 326.863 455.604 326.863 c 2
 301.829 326.863 l 1
 250.331 80.8213 l 1
 244.61 55.0732 261.062 40.0527 300.398 35.0469 c 0
 290.385 36.4766 293.246 37.1924 307.551 37.1924 c 0
 322.571 37.9072 349.75 37.9072 391.233 37.9072 c 0
 453.458 37.9072 499.949 45.7754 529.988 61.5098 c 0
 548.585 71.5234 567.181 85.1133 584.347 102.278 c 0
 602.228 120.159 619.394 142.332 635.844 168.795 c 1
 665.169 168.795 l 1
EndSplineSet
Fore
SplineSet
633 168 m 1xb7
 552 0 l 1
 12 0 l 1
 16 19 l 1
 89 23 108 40 123 108 c 2
 217 554 l 2
 220 571 223 584 223 596 c 0
 223 630 204 639 148 643 c 1
 152 662 l 1
 684 662 l 1x6f
 656 519 l 1
 631 519 l 1
 631 607 621 624 502 624 c 2
 368 624 l 2
 340 624 333 618 327 590 c 2
 278 368 l 1
 432 368 l 2
 521 368 538 393 562 463 c 1
 586 463 l 1
 538 231 l 1
 514 231 l 1
 514 240 516 249 516 256 c 0
 516 316 497 327 423 327 c 2
 270 327 l 1
 218 81 l 2
 217 74 215 66 215 61 c 0
 215 47 216 37 313 37 c 2
 340 37 l 2
 483 37 532 62 605 168 c 1
 633 168 l 1xb7
EndSplineSet
EndChar

StartChar: F
Encoding: 70 70 39
Width: 555
Flags: W
HStem: 0 19<16 73.3706 239.295 291> 327 41<278 494.788> 624 38<331.269 609.452> 643 19<152 200.471>
VStem: 505 24<231 254.671> 554 23<436.236 463>
DStem2: 99.4932 0 201.044 0 0.207912 0.978148<87.7931 355.305 397.072 608.103>
LayerCount: 2
Back
SplineSet
673.751 519.975 m 1
 648.718 519.975 l 1
 653.01 567.181 643.711 596.506 620.823 609.38 c 0
 604.374 620.108 570.757 625.115 519.975 625.115 c 2
 384.081 625.115 l 2
 363.339 625.115 350.465 613.671 345.458 590.068 c 2
 298.969 369.061 l 1
 442.015 369.061 l 2
 462.042 369.061 478.491 370.492 492.797 373.353 c 0
 507.101 376.213 519.26 381.935 528.559 389.088 c 0
 538.572 396.24 547.154 405.537 553.592 417.696 c 0
 560.743 429.141 566.466 444.161 571.473 462.757 c 1
 594.36 462.757 l 1
 546.439 231.735 l 1
 522.837 231.735 l 1
 527.844 268.212 524.267 293.962 511.393 306.836 c 0
 498.519 319.71 472.056 326.863 432.002 326.863 c 2
 290.385 329.724 l 1
 243.181 108.716 l 1
 235.312 74.3848 236.742 50.7812 246.756 37.9072 c 0
 256.77 25.0332 278.941 19.3115 313.272 19.3115 c 1
 308.982 0 l 1
 29.3242 0 l 1
 33.6162 19.3115 l 1
 70.8086 19.3115 95.8418 27.1787 110.146 42.1992 c 0
 122.305 55.0732 133.033 80.8213 140.901 120.159 c 1
 233.167 553.592 l 1
 241.749 590.783 241.034 615.102 230.306 627.261 c 1
 206.702 638.704 l 1
 166.65 644.426 l 1
 170.226 662.307 l 1
 701.646 662.307 l 1
 673.751 519.975 l 1
EndSplineSet
Fore
SplineSet
529 231 m 1xec
 505 231 l 1
 505 240 507 248 507 255 c 0
 507 315 488 327 415 327 c 2
 270 327 l 1
 224 108 l 2
 220 91 218 76 218 64 c 0
 218 31 239 22 296 19 c 1
 291 0 l 1
 12 0 l 1
 16 19 l 1
 92 23 107 37 125 120 c 2
 217 554 l 2
 220 571 223 584 223 596 c 0
 223 630 204 639 148 643 c 1
 152 662 l 1
 684 662 l 1xdc
 656 519 l 1
 631 519 l 1
 631 607 621 624 502 624 c 2
 366 624 l 2
 340 624 333 618 327 590 c 2
 278 368 l 1
 423 368 l 2
 504 368 526 384 554 463 c 1
 577 463 l 1
 529 231 l 1xec
EndSplineSet
EndChar

StartChar: G
Encoding: 71 71 40
Width: 720
Flags: W
HStem: -15 41<311.002 517.615> 335 19<529 585.696 733.371 781> 636 41<428.034 616.072>
VStem: 91 114<133.424 369.52> 705 23<464 503.237>
DStem2: 538.744 -15 634.909 -15 0.207912 0.978148<73.6248 311.749>
LayerCount: 2
Back
SplineSet
788.188 331.153 m 1
 759.579 328.292 742.413 324.001 735.261 317.564 c 0
 720.957 306.12 710.228 284.663 703.075 253.193 c 2
 660.877 57.2188 l 2
 658.73 49.3516 648.003 42.1992 629.407 35.0469 c 0
 610.095 28.6094 581.486 19.3115 543.578 8.58301 c 1
 509.963 2.86133 482.068 -2.14551 459.181 -5.72168 c 0
 436.294 -10.0137 418.413 -11.4434 405.537 -11.4434 c 0
 286.81 -11.4434 201.695 22.1719 150.914 90.835 c 0
 134.464 113.007 123.021 138.04 116.583 164.504 c 0
 110.146 191.683 107.285 221.008 108.716 251.763 c 0
 108.716 262.49 109.431 275.365 112.292 288.955 c 0
 114.438 303.259 118.014 318.994 121.59 335.445 c 0
 140.901 431.287 190.253 509.963 269.644 571.473 c 0
 348.319 633.697 435.577 665.169 529.988 665.169 c 0
 565.75 665.169 602.228 660.877 640.135 651.578 c 1
 698.784 631.552 l 1
 723.817 631.552 742.413 642.281 753.142 665.169 c 1
 773.168 665.169 l 1
 736.691 457.035 l 1
 714.52 457.035 l 1
 695.924 569.327 636.559 625.115 536.426 625.115 c 0
 453.458 625.115 384.081 592.929 328.292 527.127 c 0
 281.088 470.624 248.901 399.815 231.735 314.703 c 0
 222.438 273.936 219.576 236.027 221.723 201.695 c 0
 224.583 166.65 233.167 136.609 248.901 111.576 c 0
 285.378 53.6426 343.312 25.0332 423.418 25.0332 c 0
 436.294 25.0332 449.168 26.4639 462.757 28.6094 c 0
 476.346 30.7549 489.936 33.6162 504.24 36.4766 c 0
 543.578 45.0596 566.466 60.7949 571.473 82.252 c 1
 605.088 243.181 l 2
 612.956 278.941 612.956 303.976 605.088 316.133 c 1
 578.625 326.863 l 2
 571.473 329.724 558.599 331.153 539.287 331.153 c 1
 543.578 348.319 l 1
 792.48 348.319 l 1
 788.188 331.153 l 1
EndSplineSet
Fore
SplineSet
601 291 m 0
 601 326 588 332 526 335 c 1
 529 354 l 1
 784 354 l 1
 781 335 l 1
 721 331 706 318 694 259 c 2
 650 56 l 1
 603 21 472 -15 385 -15 c 0
 221 -15 91 72 91 236 c 0
 91 459 272 677 519 677 c 0
 614 677 659 643 691 643 c 0
 712 643 734 658 744 677 c 1
 766 677 l 1
 728 464 l 1
 705 464 l 1
 696 512 677 636 527 636 c 0
 458 636 391 609 337 560 c 0
 267 496 205 358 205 236 c 0
 205 104 280 26 415 26 c 0
 486 26 554 53 560 85 c 2
 595 248 l 2
 599 265 601 280 601 291 c 0
EndSplineSet
EndChar

StartChar: H
Encoding: 72 72 41
Width: 720
Flags: W
HStem: 0 19<23 81.2593 249.529 297 428 486.956 653.529 702> 315 44<286 580> 643 19<160 206.499 376.957 434 564 611.928 781.843 838>
DStem2: 106.493 0 210.044 0 0.207912 0.978148<90.1639 343.567 388.477 611.245> 512.493 0 614.044 0 0.207912 0.978148<89.7481 322.152 367.062 610.06>
LayerCount: 2
Back
SplineSet
722.387 0 m 1
 444.161 0 l 1
 448.451 19.3115 l 1
 484.213 19.3115 511.393 27.1787 528.559 42.1992 c 0
 538.572 52.2119 547.869 77.9609 556.452 120.159 c 2
 599.367 314.703 l 1
 294.677 314.703 l 1
 250.331 108.716 l 2
 243.896 77.2451 243.896 54.3574 251.763 39.3379 c 0
 253.908 36.4766 262.49 31.4707 276.796 25.0332 c 1
 321.14 19.3115 l 1
 316.133 0 l 1
 36.4766 0 l 1
 40.7686 19.3115 l 1
 77.2451 19.3115 103.709 27.1787 121.59 42.1992 c 0
 134.464 55.0732 143.762 80.8213 150.914 120.159 c 1
 244.61 555.021 l 2
 252.478 590.068 251.763 613.671 243.181 625.115 c 0
 241.034 627.261 238.174 630.122 234.597 632.982 c 0
 230.306 635.844 225.3 637.989 218.146 640.135 c 2
 174.518 645.856 l 1
 177.379 663.737 l 1
 457.035 663.737 l 1
 454.175 645.856 l 1
 435.577 645.856 419.843 644.426 407.684 642.281 c 0
 395.525 640.135 385.512 635.129 377.643 628.69 c 0
 369.775 621.538 364.054 612.241 359.048 600.797 c 0
 354.041 588.637 349.75 573.618 345.458 555.021 c 2
 303.259 360.479 l 1
 607.949 360.479 l 1
 650.148 555.021 l 1
 660.162 605.088 651.578 632.982 623.684 640.135 c 1
 581.486 645.856 l 1
 584.347 663.737 l 1
 862.572 663.737 l 1
 859.712 645.856 l 1
 824.665 645.856 800.348 639.419 786.042 627.261 c 0
 771.737 614.387 761.009 590.068 753.142 555.021 c 2
 658.016 108.716 l 1
 650.148 74.3848 650.863 50.7812 660.877 37.9072 c 0
 670.175 25.0332 692.347 19.3115 726.679 19.3115 c 1
 722.387 0 l 1
EndSplineSet
Fore
SplineSet
286 359 m 1
 589 359 l 1
 630 554 l 2
 634 573 636 586 636 598 c 0
 636 630 617 637 560 643 c 1
 564 662 l 1
 842 662 l 1
 838 643 l 1
 760 636 747 625 731 554 c 1
 637 108 l 2
 634 91 631 78 631 66 c 0
 631 32 650 23 706 19 c 1
 702 0 l 1
 423 0 l 1
 428 19 l 1
 507 23 520 37 538 120 c 2
 580 315 l 1
 277 315 l 1
 233 108 l 2
 230 91 227 78 227 66 c 0
 227 32 246 23 302 19 c 1
 297 0 l 1
 19 0 l 1
 23 19 l 1
 101 23 114 37 132 120 c 2
 224 554 l 2
 229 573 231 587 231 599 c 0
 231 631 211 637 155 643 c 1
 160 662 l 1
 438 662 l 1
 434 643 l 1
 354 636 343 625 327 554 c 1
 286 359 l 1
EndSplineSet
EndChar

StartChar: I
Encoding: 73 73 42
Width: 332
Flags: W
HStem: 0 19<22 90.109 258.264 315> 643 19<158 217.921 388.066 451>
DStem2: 116.044 0 217.044 0 0.207912 0.978148<89.6334 609.944>
LayerCount: 2
Back
SplineSet
332.584 0 m 1
 36.4766 0 l 1
 40.7686 19.3115 l 1
 60.7949 19.3115 76.5303 20.0264 89.4043 22.8877 c 0
 102.278 25.0332 112.292 29.3242 120.875 35.7617 c 0
 129.457 42.1992 135.895 51.4971 141.616 62.9404 c 0
 146.624 74.3848 151.63 90.1191 155.206 108.716 c 2
 248.901 553.592 l 2
 256.055 587.208 256.055 610.81 250.331 625.115 c 1
 237.457 637.989 212.426 644.426 174.518 644.426 c 1
 177.379 662.307 l 1
 473.485 662.307 l 1
 469.909 644.426 l 1
 436.294 644.426 409.114 639.419 389.803 628.69 c 1
 374.067 616.531 361.908 591.499 353.326 553.592 c 1
 258.915 108.716 l 2
 251.763 71.5234 253.193 47.2051 263.922 35.7617 c 0
 274.65 24.3184 298.969 19.3115 336.875 19.3115 c 1
 332.584 0 l 1
EndSplineSet
Fore
SplineSet
139 108 m 2
 233 554 l 2
 237 571 239 586 239 598 c 0
 239 633 218 640 154 643 c 1
 158 662 l 1
 456 662 l 1
 451 643 l 1
 368 639 350 625 334 554 c 1
 240 108 l 2
 236 91 234 78 234 66 c 0
 234 31 256 22 319 19 c 1
 315 0 l 1
 18 0 l 1
 22 19 l 1
 107 22 123 34 139 108 c 2
EndSplineSet
EndChar

StartChar: J
Encoding: 74 74 43
Width: 388
Flags: W
HStem: -15 38<80.5 176.325> 643 19<224 277.456 447.226 507>
DStem2: 172.894 -15 275.914 -15 0.207912 0.978148<107.73 626.457>
LayerCount: 2
Back
SplineSet
514.253 644.426 m 1
 462.042 644.426 429.855 630.122 416.267 600.797 c 0
 409.829 590.068 405.537 574.333 402.677 555.021 c 1
 324.001 183.1 l 1
 309.697 124.451 286.81 77.9609 253.193 42.1992 c 1
 215.286 6.4375 168.795 -11.4434 113.007 -11.4434 c 0
 87.2588 -11.4434 66.5166 -7.15234 50.0664 2.86133 c 0
 29.3242 15.7354 22.1719 34.3311 27.8945 58.6494 c 0
 30.04 70.0928 37.1924 81.5371 49.3516 92.2656 c 0
 61.5098 102.994 72.9541 108.716 85.1133 108.716 c 0
 104.424 108.716 117.299 100.848 123.021 86.543 c 1
 130.173 45.0596 l 1
 132.318 30.7549 138.04 23.6025 146.624 23.6025 c 0
 173.802 23.6025 191.683 45.7754 200.98 90.835 c 1
 300.398 555.021 l 2
 308.266 592.214 306.836 616.531 296.822 627.976 c 0
 286.093 638.704 262.49 644.426 225.3 644.426 c 1
 228.16 663.737 l 1
 517.114 663.737 l 1
 514.253 644.426 l 1
EndSplineSet
Fore
SplineSet
82 108 m 0
 143 108 108 23 142 23 c 0
 168 23 186 45 195 89 c 2
 293 554 l 2
 297 573 300 587 300 599 c 0
 300 631 280 639 220 643 c 1
 224 662 l 1
 511 662 l 1
 507 643 l 1
 423 637 412 625 395 554 c 1
 318 183 l 1
 291 59 214 -15 105 -15 c 0
 56 -15 22 9 22 44 c 0
 22 93 65 108 82 108 c 0
EndSplineSet
EndChar

StartChar: K
Encoding: 75 75 44
Width: 720
Flags: W
HStem: 0 19<38 97.4254 264.295 316 422 486.994 680.662 724> 643 19<174 224.045 395.143 454 554 606.353 749.582 811>
DStem2: 123.493 0 226.044 0 0.207912 0.978148<88.001 323.942 378.071 608.311> 300 349 413 376 0.772609 0.634883<104.447 413.073>
LayerCount: 2
Back
SplineSet
742.413 0 m 1
 437.724 0 l 1
 442.015 19.3115 l 1
 486.359 19.3115 511.393 27.1787 517.114 43.6289 c 0
 522.837 69.3779 491.365 125.166 423.418 212.426 c 1
 336.875 317.564 l 1
 307.551 296.106 l 1
 268.212 108.716 l 1
 260.345 74.3848 261.062 50.7812 269.644 37.9072 c 1
 291.816 23.6025 l 1
 303.259 20.7422 318.994 19.3115 338.306 19.3115 c 1
 334.014 0 l 1
 52.9277 0 l 1
 57.2188 19.3115 l 1
 92.2656 19.3115 119.444 27.1787 139.471 43.6289 c 0
 150.199 53.6426 159.498 79.3906 166.65 120.159 c 1
 258.915 553.592 l 2
 266.782 588.637 266.067 612.956 256.77 625.115 c 0
 247.471 637.989 225.3 644.426 190.253 644.426 c 1
 193.113 663.737 l 1
 477.776 663.737 l 1
 474.916 644.426 l 1
 444.161 644.426 417.696 637.989 395.525 625.115 c 1
 381.935 614.387 370.492 590.783 361.908 553.592 c 1
 318.994 349.75 l 1
 451.312 449.883 l 1
 572.902 543.578 l 2
 607.234 570.757 626.545 593.644 631.552 612.241 c 0
 635.129 633.697 614.387 644.426 570.042 644.426 c 1
 572.902 663.737 l 1
 834.678 663.737 l 1
 831.817 644.426 l 1
 815.368 644.426 801.062 642.281 789.618 638.704 c 2
 756.002 630.122 l 1
 732.4 619.394 700.931 597.936 662.307 565.75 c 2
 432.002 377.643 l 1
 651.578 74.3848 l 1
 678.043 45.0596 l 2
 695.924 27.8945 718.811 19.3115 746.705 19.3115 c 1
 742.413 0 l 1
EndSplineSet
Fore
SplineSet
549 643 m 1
 554 662 l 1
 816 662 l 1
 811 643 l 1
 743 639 725 630 643 565 c 1
 413 376 l 1
 592 127 l 1
 664 29 675 21 728 19 c 1
 724 0 l 1
 417 0 l 1
 422 19 l 1
 435 21 445 21 451 21 c 0
 480 21 497 28 497 48 c 0
 497 103 368 255 319 316 c 1
 289 296 l 1
 249 108 l 2
 245 91 243 76 243 64 c 0
 243 31 264 22 321 19 c 1
 316 0 l 1
 34 0 l 1
 38 19 l 1
 117 23 132 37 149 120 c 2
 242 554 l 2
 246 571 248 584 248 596 c 0
 248 630 227 639 170 643 c 1
 174 662 l 1
 458 662 l 1
 454 643 l 1
 372 637 359 625 343 554 c 1
 300 349 l 1
 511 510 l 2
 592 571 612 599 612 621 c 0
 612 634 601 640 576 642 c 0
 571 642 561 642 549 643 c 1
EndSplineSet
EndChar

StartChar: L
Encoding: 76 76 45
Width: 610
Flags: W
HStem: 0 40<217.647 489.254> 0 19<16 72.1839> 643 19<152 200.471 370.853 431>
DStem2: 100.044 0 200.783 0 0.207912 0.978148<89.0584 607.989>
LayerCount: 2
Back
SplineSet
668.029 174.518 m 1
 582.916 0 l 1
 42.1992 0 l 1
 47.2051 19.3115 l 1
 80.8213 19.3115 105.14 25.0332 119.444 37.9072 c 0
 133.749 50.7812 144.478 74.3848 152.345 108.716 c 1
 247.471 555.021 l 1
 255.338 595.075 253.908 619.394 243.181 628.69 c 1
 219.576 638.704 l 1
 180.239 644.426 l 1
 183.1 663.737 l 1
 467.049 663.737 l 1
 464.188 644.426 l 1
 416.267 640.135 l 1
 386.941 628.69 l 1
 371.207 616.531 359.048 592.214 351.895 555.021 c 2
 250.331 80.8213 l 1
 245.324 63.6562 248.187 52.9277 257.484 47.2051 c 0
 261.775 43.6289 273.219 41.4834 291.816 39.3379 c 0
 294.677 38.623 301.113 37.9072 310.412 37.9072 c 2
 341.167 37.9072 l 2
 429.141 37.9072 487.075 44.3447 515.685 57.2188 c 0
 559.313 75.8145 601.513 114.438 641.564 174.518 c 1
 668.029 174.518 l 1
EndSplineSet
Fore
SplineSet
609 174 m 1xa0
 634 174 l 1
 551 0 l 1
 12 0 l 1
 16 19 l 1x60
 89 23 108 40 123 108 c 2
 217 554 l 2
 220 571 223 584 223 596 c 0
 223 630 204 639 148 643 c 1
 152 662 l 1
 435 662 l 5
 431 643 l 1
 352 639 334 624 318 554 c 1
 218 81 l 2
 217 75 217 70 217 66 c 0
 217 44 234 40 296 40 c 2
 363 40 l 2
 497 40 554 83 609 174 c 1xa0
EndSplineSet
EndChar

StartChar: M
Encoding: 77 77 46
Width: 887
Flags: W
HStem: 0 19<16 70.5348 201.224 248 587 646.461 813.664 863> 643 19<155 211.051 944.636 999>
DStem2: 107.967 0 151.967 0 0.207912 0.978148<91.8314 572.626> 353 662 270 551 0.236307 -0.971679<88.2429 519.763> 476 157 417 0 0.55066 0.83473<0 522.908> 673.493 0 777.044 0 0.207912 0.978148<88.2087 585.741>
LayerCount: 2
Back
SplineSet
880.453 0 m 1
 600.797 0 l 1
 605.088 19.3115 l 1
 642.996 19.3115 670.176 26.4639 685.194 40.7686 c 0
 699.499 55.7881 709.513 82.252 715.95 120.159 c 1
 811.791 568.612 l 1
 436.294 0 l 1
 421.988 0 l 1
 286.81 546.439 l 1
 200.98 146.624 l 2
 190.968 100.848 188.821 69.3779 194.543 52.9277 c 0
 201.695 30.04 226.729 19.3115 269.644 19.3115 c 1
 265.352 0 l 1
 29.3242 0 l 1
 33.6162 19.3115 l 1
 76.5303 19.3115 106.57 30.04 123.021 52.9277 c 0
 134.464 67.2324 145.908 98.7021 156.637 146.624 c 1
 243.181 552.161 l 1
 251.763 589.354 250.331 613.671 238.889 625.115 c 0
 234.597 629.407 226.729 632.982 213.854 637.274 c 1
 168.795 642.996 l 1
 173.087 662.307 l 1
 369.061 662.307 l 1
 493.512 156.637 l 1
 821.804 662.307 l 1
 1020.64 662.307 l 1
 1016.35 642.996 l 1
 982.731 642.996 958.414 636.559 944.109 622.969 c 0
 929.806 610.095 919.075 586.493 911.208 552.161 c 1
 817.512 108.716 l 1
 806.784 60.7949 814.651 32.1855 842.546 23.6025 c 1
 884.745 19.3115 l 1
 880.453 0 l 1
EndSplineSet
Fore
SplineSet
795 573 m 1
 417 0 l 1
 404 0 l 1
 270 551 l 1
 183 146 l 2
 177 119 174 97 174 79 c 0
 174 35 196 22 252 19 c 1
 248 0 l 1
 12 0 l 1
 16 19 l 1
 101 25 117 44 139 146 c 2
 226 554 l 2
 230 573 233 587 233 599 c 0
 233 631 212 640 151 643 c 1
 155 662 l 1
 353 662 l 1
 476 157 l 1
 804 662 l 1
 1003 662 l 5
 999 643 l 1
 924 637 910 624 894 554 c 1
 800 108 l 1
 795 91 794 76 794 64 c 0
 794 31 813 22 867 19 c 1
 863 0 l 1
 583 0 l 1
 587 19 l 1
 666 23 681 37 699 120 c 2
 795 573 l 1
EndSplineSet
EndChar

StartChar: N
Encoding: 78 78 47
Width: 720
Flags: W
HStem: -12 21G<580.203 613.28> 0 19<16 70.5348 201.224 248> 643 19<152 194.983 612 660.896 791.534 844>
DStem2: 105.416 -12 149.416 -12 0.207912 0.978148<104.099 572.555> 324 662 233 587 0.514075 -0.857746<0 17.5501 76.2005 559.26> 565.402 -12 609 -12 0.207912 0.978148<195.267 606.45>
LayerCount: 2
Back
SplineSet
865.434 644.426 m 1
 826.811 644.426 796.771 632.268 776.029 607.949 c 0
 761.726 589.354 750.281 558.599 740.982 515.685 c 2
 630.122 -8.58301 l 1
 613.671 -8.58301 l 1
 286.81 539.287 l 1
 202.412 148.053 l 1
 192.398 100.848 190.253 69.3779 195.975 52.9277 c 0
 203.127 30.04 228.16 19.3115 271.074 19.3115 c 1
 266.782 0 l 1
 29.3242 0 l 1
 33.6162 19.3115 l 1
 75.8145 19.3115 105.854 30.04 124.451 52.9277 c 0
 135.895 67.2324 147.338 99.418 158.066 148.053 c 2
 253.193 590.068 l 1
 233.167 626.545 203.842 644.426 166.65 644.426 c 1
 170.226 663.737 l 1
 342.598 663.737 l 1
 623.684 181.669 l 1
 698.784 515.685 l 1
 708.798 562.174 710.228 594.36 704.506 610.81 c 0
 694.492 632.982 669.459 644.426 628.69 644.426 c 1
 631.552 663.737 l 1
 868.294 663.737 l 1
 865.434 644.426 l 1
EndSplineSet
Fore
SplineSet
687 583 m 0x60
 687 636 658 639 608 643 c 1
 612 662 l 1
 848 662 l 1
 844 643 l 1
 783 637 747 633 722 516 c 2
 609 -12 l 1
 592 -12 l 1xa0
 267 539 l 1
 183 146 l 2
 177 119 174 97 174 79 c 0
 174 35 196 22 252 19 c 1
 248 0 l 1
 12 0 l 1
 16 19 l 1
 101 25 117 44 139 146 c 2
 233 587 l 1
 204 636 192 643 148 643 c 1
 152 662 l 1
 324 662 l 1
 606 179 l 1
 678 516 l 2
 684 542 687 565 687 583 c 0x60
EndSplineSet
EndChar

StartChar: O
Encoding: 79 79 48
Width: 720
Flags: W
HStem: -15 37<290.877 445.874> 640 37<418.049 572.928>
VStem: 95 112<134.141 370.311> 658 110<297.982 531.138>
LayerCount: 2
Back
SplineSet
777.46 329.724 m 0
 757.434 231.021 710.228 148.768 635.844 83.6826 c 0
 563.605 20.0264 477.776 -11.4434 377.643 -11.4434 c 0
 278.941 -11.4434 206.702 20.0264 160.928 83.6826 c 0
 115.152 146.624 102.278 228.875 123.021 329.724 c 0
 143.762 428.425 191.683 510.678 266.782 577.194 c 0
 339.021 642.281 424.85 675.182 524.267 675.182 c 0
 623.684 675.182 695.924 642.281 740.982 577.194 c 0
 786.042 513.538 798.202 431.287 777.46 329.724 c 0
663.737 331.153 m 0
 680.903 411.975 680.903 480.638 663.737 536.426 c 1
 637.989 605.803 589.354 640.135 517.114 640.135 c 0
 442.015 640.135 378.359 605.803 326.863 537.857 c 0
 284.663 484.213 254.623 414.836 237.457 331.153 c 0
 219.576 248.901 220.293 180.954 238.889 125.881 c 0
 261.062 55.7881 309.697 20.7422 385.512 20.7422 c 0
 459.181 20.7422 522.837 55.7881 575.763 125.881 c 0
 616.531 181.669 645.856 250.331 663.737 331.153 c 0
EndSplineSet
Fore
SplineSet
768 420 m 0
 768 203 602 -15 352 -15 c 0
 207 -15 95 82 95 246 c 0
 95 465 271 677 504 677 c 0
 656 677 768 583 768 420 c 0
658 442 m 0
 658 564 602 640 497 640 c 0
 313 640 207 407 207 220 c 0
 207 155 221 101 248 70 c 1
 277 40 318 22 363 22 c 0
 457 22 538 83 571 148 c 1
 620 227 658 330 658 442 c 0
EndSplineSet
EndChar

StartChar: P
Encoding: 80 80 49
Width: 555
Flags: W
HStem: 0 19<21 73.6133 241.215 296> 289 39<272 433.109> 625 37<332.893 480.049> 643 19<157 200.765>
VStem: 539 110<433.817 581.633>
DStem2: 99.4932 0 203.044 0 0.207912 0.978148<88.2087 322.115 359.633 611.245>
LayerCount: 2
Back
SplineSet
663.737 483.498 m 0
 648.718 414.836 607.949 364.054 540.718 329.724 c 0
 514.253 316.133 484.93 306.12 453.458 299.684 c 0
 421.273 293.246 386.941 290.385 348.319 290.385 c 2
 324.001 290.385 l 1
 282.518 293.246 l 1
 243.181 108.716 l 2
 235.312 72.9541 237.457 49.3516 248.901 37.1924 c 0
 261.062 25.0332 283.948 19.3115 318.994 19.3115 c 1
 314.703 0 l 1
 33.6162 0 l 1
 37.9072 19.3115 l 1
 72.9541 19.3115 98.7021 27.1787 114.438 42.1992 c 0
 126.597 56.5039 136.609 82.252 143.762 120.159 c 1
 237.457 555.021 l 2
 245.324 590.068 244.61 613.671 236.027 626.545 c 0
 226.729 638.704 205.272 644.426 171.657 644.426 c 1
 174.518 663.737 l 1
 439.154 663.737 l 2
 474.916 663.737 505.671 660.162 532.851 653.725 c 0
 560.743 648.003 585.062 638.704 606.518 627.261 c 0
 659.445 596.506 678.043 548.585 663.737 483.498 c 0
555.021 482.068 m 0
 575.763 578.625 522.121 627.261 394.094 627.261 c 0
 377.643 627.261 366.2 625.115 359.762 620.823 c 0
 353.326 617.248 348.319 607.949 345.458 592.929 c 2
 290.385 332.584 l 1
 294.677 332.584 299.684 332.584 305.405 331.868 c 0
 311.126 331.153 316.133 330.438 321.14 329.724 c 2
 349.75 329.724 l 2
 465.617 329.724 533.565 380.505 555.021 482.068 c 0
EndSplineSet
Fore
SplineSet
264 291 m 1xe8
 226 108 l 1
 221 91 220 76 220 64 c 0
 220 31 240 22 300 19 c 1
 296 0 l 1
 16 0 l 1
 21 19 l 1
 98 26 107 37 125 120 c 2
 217 554 l 2
 221 573 224 587 224 599 c 0
 224 631 205 637 152 643 c 1
 157 662 l 1xd8
 420 662 l 2
 539 662 649 624 649 517 c 0
 649 431 584 356 516 322 c 0
 466 297 410 289 333 289 c 0
 306 289 290 289 264 291 c 1xe8
330 328 m 0
 497 328 539 438 539 517 c 0
 539 592 485 625 369 625 c 0xe8
 343 625 334 618 328 592 c 2
 272 331 l 1
 296 330 309 328 330 328 c 0
EndSplineSet
EndChar

StartChar: Q
Encoding: 81 81 50
Width: 720
Flags: W
HStem: -179 19<600.811 664> 640 37<416.111 570.969>
VStem: 95 112<129.113 368.388> 658 110<299.627 529.03>
LayerCount: 2
Back
SplineSet
637.274 -159.498 m 1
 594.36 -160.928 l 2
 454.175 -165.934 357.618 -128.027 306.12 -47.2051 c 1
 282.518 0 l 1
 251.763 7.86719 223.153 22.1719 196.688 42.9141 c 0
 170.94 64.3711 151.63 90.835 138.04 123.021 c 0
 112.292 183.814 107.285 252.478 123.021 329.724 c 0
 143.762 429.855 190.968 512.107 265.352 575.763 c 1
 339.021 642.281 425.564 675.182 522.837 675.182 c 0
 621.538 675.182 693.777 642.281 739.553 575.763 c 0
 784.613 512.823 796.771 431.287 776.029 329.724 c 0
 756.002 231.021 708.798 148.768 634.412 83.6826 c 0
 605.088 57.9336 570.757 37.9072 530.704 23.6025 c 0
 491.365 8.58301 456.319 -0.714844 424.85 -4.29102 c 1
 442.015 -40.7686 l 1
 476.346 -79.3906 l 1
 517.83 -120.875 572.902 -142.332 640.135 -142.332 c 1
 637.274 -159.498 l 1
662.307 329.724 m 0
 679.473 410.544 679.473 479.206 662.307 534.995 c 0
 638.704 603.657 590.068 638.704 515.685 638.704 c 0
 439.154 638.704 376.213 603.657 325.432 534.995 c 0
 303.976 506.386 286.093 475.631 271.789 441.301 c 0
 257.484 407.684 246.041 370.492 237.457 329.724 c 0
 218.861 245.324 218.861 177.379 237.457 124.451 c 0
 258.915 56.5039 307.551 22.1719 384.081 22.1719 c 0
 459.181 22.1719 522.121 56.5039 572.902 125.881 c 0
 615.816 183.814 645.142 251.763 662.307 329.724 c 0
EndSplineSet
Fore
SplineSet
95 243 m 0
 95 467 271 677 504 677 c 0
 668 677 768 571 768 416 c 0
 768 265 691 138 589 63 c 0
 535 23 495 6 425 -7 c 1
 483 -111 554 -157 668 -160 c 1
 664 -177 l 1
 649 -177 639 -179 623 -179 c 0
 463 -179 350 -135 300 -56 c 2
 265 -1 l 1
 198 23 171 42 141 85 c 0
 110 129 95 183 95 243 c 0
658 444 m 0
 658 612 551 640 501 640 c 0
 442 640 391 620 341 576 c 1
 270 510 207 362 207 217 c 0
 207 154 220 101 248 70 c 1
 278 40 318 22 365 22 c 0
 420 22 479 45 524 86 c 0
 590 148 658 303 658 444 c 0
EndSplineSet
EndChar

StartChar: R
Encoding: 82 82 51
Width: 666
Flags: W
HStem: 0 19<22 76.6057 242.295 294 623.268 659> 308 35<277 327> 625 37<334.967 492.522> 643 19<158 203.556>
VStem: 546 109<441.797 586.176>
DStem2: 101.493 0 204.044 0 0.207912 0.978148<88.001 333.932 371.995 611.453> 434 319 327 308 0.485402 -0.874291<0 309.965>
LayerCount: 2
Back
SplineSet
680.903 0 m 1
 519.975 0 l 1
 346.888 308.982 l 1
 290.385 306.12 l 1
 248.901 108.716 l 1
 241.034 74.3848 242.464 50.7812 252.478 37.9072 c 0
 263.207 25.0332 285.378 19.3115 318.994 19.3115 c 1
 314.703 0 l 1
 37.9072 0 l 1
 42.1992 19.3115 l 1
 77.9609 19.3115 102.994 27.1787 118.729 42.1992 c 0
 128.742 52.2119 138.04 77.9609 146.624 120.159 c 2
 240.318 555.021 l 1
 246.756 590.068 247.471 612.956 241.749 623.684 c 0
 231.021 637.989 208.849 644.426 175.947 644.426 c 1
 178.809 663.737 l 1
 454.175 663.737 l 2
 625.83 663.737 699.499 605.803 673.751 489.22 c 0
 655.155 400.532 582.201 344.027 454.175 318.994 c 1
 607.949 65.8018 l 2
 626.545 34.3311 652.293 19.3115 685.194 19.3115 c 1
 680.903 0 l 1
563.605 490.65 m 0
 583.632 581.486 535.711 627.261 420.558 627.261 c 0
 396.955 627.261 382.649 625.83 376.213 623.684 c 0
 362.624 619.394 354.757 607.949 351.895 590.068 c 1
 298.969 344.027 l 1
 331.153 344.027 359.762 346.173 385.512 349.034 c 0
 410.544 352.611 433.432 357.618 452.743 364.769 c 0
 512.823 385.512 550.015 426.995 563.605 490.65 c 0
EndSplineSet
Fore
SplineSet
664 19 m 1xe8
 659 0 l 1
 498 0 l 1
 327 308 l 1
 268 306 l 1
 227 108 l 2
 223 91 221 76 221 64 c 0
 221 31 242 22 299 19 c 1
 294 0 l 1
 18 0 l 1
 22 19 l 1
 98 25 110 37 127 120 c 2
 220 554 l 2
 224 573 227 587 227 599 c 0
 227 630 208 637 154 643 c 1
 158 662 l 1xd8
 434 662 l 2
 527 662 605 636 634 595 c 1
 647 574 655 552 655 526 c 0
 655 458 621 401 576 371 c 0
 536 344 504 333 434 319 c 1
 587 66 l 2
 608 32 625 22 664 19 c 1xe8
328 589 m 2
 277 343 l 1
 374 346 410 352 461 376 c 0
 508 398 546 460 546 524 c 0
 546 593 495 625 388 625 c 0xe8
 349 625 334 617 328 589 c 2
EndSplineSet
EndChar

StartChar: S
Encoding: 83 83 52
Width: 555
Flags: W
HStem: 21 1<126 271> 636 41<323.568 467.451>
VStem: 85 22<156.654 199> 173 97<464.089 553.998> 422 108<118.607 219.783> 542 25<463 528.13> 570 20<658.248 677>
LayerCount: 2
Back
SplineSet
547.869 166.65 m 0
 536.426 113.007 504.24 68.6621 452.743 33.6162 c 1
 404.107 3.57617 352.611 -11.4434 298.969 -11.4434 c 0
 277.511 -11.4434 250.331 -7.15234 216.716 2.86133 c 0
 200.266 8.58301 186.676 12.874 175.947 15.7354 c 0
 165.219 17.8809 155.921 19.3115 149.484 19.3115 c 0
 128.742 19.3115 117.299 9.29785 114.438 -10.0137 c 1
 90.835 -10.0137 l 1
 105.14 197.405 l 1
 127.312 197.405 l 1
 150.914 79.3906 206.702 20.7422 296.106 20.7422 c 0
 328.292 20.7422 358.333 31.4707 386.941 52.9277 c 0
 414.836 74.3848 432.717 100.848 439.154 133.033 c 0
 448.451 171.657 437.724 207.419 406.969 241.749 c 0
 400.532 248.187 389.088 257.484 374.067 268.929 c 0
 359.048 280.371 339.021 293.246 314.703 308.982 c 0
 291.816 324.717 272.504 338.306 257.484 350.465 c 0
 243.181 363.339 231.735 374.782 222.438 385.512 c 0
 198.12 418.413 190.253 458.465 199.55 505.671 c 0
 205.272 530.704 214.569 553.592 227.444 575.048 c 0
 241.034 595.79 257.484 613.671 276.796 628.69 c 0
 296.106 642.996 317.564 654.439 341.167 663.022 c 0
 364.769 670.891 389.803 675.182 416.267 675.182 c 0
 432.717 675.182 459.181 669.459 494.942 658.016 c 2
 549.3 641.564 l 1
 565.75 641.564 579.34 653.01 590.068 675.182 c 1
 612.241 675.182 l 1
 587.208 462.757 l 1
 563.605 462.757 l 1
 563.605 509.963 551.446 550.015 527.127 582.916 c 1
 497.804 617.248 460.61 634.412 414.836 634.412 c 0
 386.227 634.412 360.479 625.83 337.591 608.664 c 0
 314.703 591.499 299.684 568.612 293.246 540.718 c 0
 283.948 500.664 304.69 461.325 354.757 423.418 c 2
 494.942 321.14 l 2
 545.008 283.948 562.174 232.45 547.869 166.65 c 0
EndSplineSet
Fore
SplineSet
284 -15 m 0
 201 -15 158 21 126 21 c 0
 111 21 97 6 91 -13 c 1
 69 -13 l 1
 85 199 l 1
 107 199 l 1
 132 78 183 22 271 22 c 0
 353 22 422 81 422 167 c 0
 422 225 337 284 293 311 c 0
 211 360 173 407 173 469 c 0
 173 582 283 677 388 677 c 0
 459 677 504 642 530 642 c 0
 548 642 561 653 570 677 c 1
 590 677 l 1
 567 463 l 1
 542 463 l 1
 539 521 530 548 507 580 c 0
 479 617 441 636 395 636 c 0
 315 636 270 575 270 521 c 0
 270 399 530 367 530 204 c 0
 530 95 422 -15 284 -15 c 0
EndSplineSet
EndChar

StartChar: T
Encoding: 84 84 53
Width: 610
Flags: W
HStem: 0 19<164 226.404 397.493 453> 620 42<219.412 385 488 647.065>
VStem: 122 23<492 515.933> 674 23<492 530.387>
DStem2: 252.493 0 356.044 0 0.207912 0.978148<90.2826 634.001>
LayerCount: 2
Back
SplineSet
718.095 493.512 m 1
 693.062 493.512 l 1
 693.777 545.725 685.194 579.34 668.029 596.506 c 0
 650.148 613.671 614.387 622.254 560.743 622.254 c 2
 507.101 622.254 l 1
 398.386 108.716 l 1
 390.519 72.9541 391.948 49.3516 402.677 37.1924 c 0
 413.406 25.0332 437.724 19.3115 474.916 19.3115 c 1
 469.909 0 l 1
 177.379 0 l 1
 181.669 19.3115 l 1
 221.723 19.3115 250.331 27.1787 268.212 42.1992 c 0
 278.941 51.4971 288.239 77.2451 297.537 120.159 c 1
 404.107 622.254 l 1
 349.75 622.254 l 2
 297.537 622.254 258.915 614.387 234.597 597.936 c 0
 208.849 580.77 185.246 546.439 163.788 493.512 c 1
 140.901 493.512 l 1
 181.669 663.737 l 1
 746.705 663.737 l 1
 718.095 493.512 l 1
EndSplineSet
Fore
SplineSet
385 620 m 1
 333 620 l 2
 220 620 192 601 145 492 c 1
 122 492 l 1
 164 662 l 1
 728 662 l 1
 697 492 l 1
 674 492 l 1
 674 602 656 620 542 620 c 2
 488 620 l 1
 379 108 l 2
 375 91 374 76 374 66 c 0
 374 31 395 22 457 19 c 1
 453 0 l 1
 160 0 l 1
 164 19 l 1
 248 23 261 35 278 120 c 1
 385 620 l 1
EndSplineSet
EndChar

StartChar: U
Encoding: 85 85 54
Width: 720
Flags: W
HStem: -15 44<296.845 486.743> 643 19<155 205.583 375.375 434 614 657.533 792.217 841>
VStem: 145 100<76.4575 282.078>
DStem2: 100.373 -15 203.286 -15 0.207912 0.978148<190.566 625.381> 562.735 -15 608.035 -15 0.207912 0.978148<136.042 608.799>
LayerCount: 2
Back
SplineSet
873.301 644.426 m 1
 826.096 639.419 796.056 627.976 782.467 609.38 c 0
 777.46 602.228 772.453 591.499 766.732 576.479 c 0
 761.726 561.459 756.002 540.718 751.712 515.685 c 1
 695.924 254.623 l 1
 680.903 182.385 658.73 128.027 628.69 90.835 c 0
 574.333 22.1719 491.365 -11.4434 377.643 -11.4434 c 0
 213.854 -11.4434 149.484 72.9541 184.531 241.749 c 1
 251.763 555.021 l 2
 259.63 590.068 258.2 613.671 248.187 626.545 c 0
 238.174 638.704 215.286 644.426 180.239 644.426 c 1
 183.1 663.737 l 1
 467.049 663.737 l 1
 464.188 644.426 l 1
 445.591 644.426 430.57 642.996 418.413 640.85 c 0
 406.254 638.704 395.525 633.697 386.941 627.976 c 0
 377.643 621.538 371.207 612.241 366.2 600.797 c 0
 361.193 588.637 356.901 573.618 353.326 555.021 c 2
 283.948 233.167 l 2
 254.623 97.2715 298.969 29.3242 416.267 29.3242 c 0
 492.797 29.3242 553.592 55.7881 597.936 108.716 c 0
 608.664 120.875 617.963 138.756 626.545 160.213 c 0
 634.412 182.385 642.281 210.279 648.718 244.61 c 1
 707.366 515.685 l 2
 712.373 537.857 715.234 557.167 715.95 572.902 c 0
 717.38 588.637 715.95 600.082 711.658 607.949 c 0
 705.221 632.268 680.903 644.426 640.135 644.426 c 1
 642.996 663.737 l 1
 876.163 663.737 l 1
 873.301 644.426 l 1
EndSplineSet
Fore
SplineSet
245 148 m 0
 245 72 297 29 384 29 c 0
 458 29 530 62 567 108 c 1
 589 139 605 177 618 245 c 1
 677 516 l 2
 683 543 686 565 686 582 c 0
 686 627 664 639 609 643 c 1
 614 662 l 1
 845 662 l 1
 841 643 l 1
 757 633 741 617 721 516 c 1
 665 253 l 2
 628 78 538 -15 352 -15 c 0
 212 -15 145 40 145 155 c 0
 145 182 148 209 155 242 c 2
 221 554 l 2
 226 573 227 586 227 598 c 0
 227 631 208 639 151 643 c 1
 155 662 l 1
 438 662 l 1
 434 643 l 1
 352 636 340 625 324 554 c 2
 256 233 l 2
 249 198 245 171 245 148 c 0
EndSplineSet
EndChar

StartChar: V
Encoding: 86 86 55
Width: 720
Flags: W
HStem: -12 21G<360.309 393.114> 643 19<157 192.472 355.873 419 633 677.612 791.469 833>
DStem2: 353 499 236 538 0.228349 -0.973579<-102.862 347.109> 432 161 381 -12 0.518066 0.855341<0 519.824>
LayerCount: 2
Back
SplineSet
834.678 645.856 m 1
 821.089 645.856 810.361 643.711 802.493 640.135 c 2
 777.46 627.261 l 1
 770.308 620.108 761.726 610.095 753.142 597.936 c 2
 720.957 552.161 l 1
 380.505 -8.58301 l 1
 366.2 -8.58301 l 1
 233.167 540.718 l 1
 228.16 562.889 223.153 581.486 217.432 595.79 c 0
 212.426 609.38 206.702 620.108 202.412 627.261 c 1
 187.392 637.274 l 2
 177.379 642.996 165.219 645.856 150.914 645.856 c 1
 153.774 663.737 l 1
 420.558 663.737 l 1
 417.696 645.856 l 1
 386.941 645.856 365.485 642.281 351.895 635.844 c 1
 344.743 634.412 339.021 625.115 334.014 607.949 c 0
 333.299 600.797 339.737 565.75 354.757 500.664 c 2
 432.002 162.358 l 1
 658.016 529.988 l 1
 673.036 552.876 684.479 575.763 691.632 599.367 c 0
 697.354 630.122 675.896 645.856 628.69 645.856 c 1
 631.552 663.737 l 1
 837.539 663.737 l 1
 834.678 645.856 l 1
EndSplineSet
Fore
SplineSet
838 662 m 1
 833 643 l 1
 785 640 772 628 722 551 c 1
 381 -12 l 1
 365 -12 l 1
 236 538 l 1
 212 627 201 642 152 643 c 1
 157 662 l 1
 423 662 l 1
 419 643 l 1
 404 642 393 642 390 642 c 0
 345 638 334 620 334 601 c 0
 334 584 340 560 353 499 c 1
 432 161 l 1
 659 529 l 2
 680 563 694 591 694 611 c 0
 694 631 675 640 628 643 c 1
 633 662 l 1
 838 662 l 1
EndSplineSet
EndChar

StartChar: W
Encoding: 87 87 56
Width: 943
Flags: W
HStem: -12 21G<296.063 324.557 623.745 712> 643 19<145 176.863 331.239 387 454 498.803 653.762 716 874 915.56 1031.05 1068>
DStem2: 316 565 220 526 0.145282 -0.98939<-30.6879 381.164> 379 189 313 -12 0.500312 0.865845<0 282.639> 643 527 558 412 0.165529 -0.986205<-75.3927 38.185 99.3436 346.062> 702 186 642 -12 0.501642 0.865076<390.717 482.369>
LayerCount: 2
Back
SplineSet
1090.02 644.426 m 1
 1064.27 639.419 1045.67 633.697 1034.23 626.545 c 0
 1022.79 618.678 1009.91 604.373 997.751 582.916 c 2
 826.096 290.385 l 1
 738.121 133.033 l 1
 662.307 -8.58301 l 1
 648.718 -8.58301 l 1
 642.996 32.1855 634.412 87.9736 622.969 157.352 c 0
 612.241 227.444 596.506 312.558 577.194 413.406 c 1
 332.584 -8.58301 l 1
 317.564 -8.58301 l 1
 282.518 248.901 l 1
 238.889 527.127 l 1
 233.167 571.473 226.729 597.936 221.008 606.518 c 0
 209.563 628.69 188.821 641.564 159.498 644.426 c 1
 162.358 663.737 l 1
 408.399 663.737 l 1
 405.537 644.426 l 1
 396.24 644.426 386.227 643.711 376.213 641.564 c 2
 348.319 632.982 l 2
 341.167 630.122 335.445 622.254 332.584 610.81 c 0
 330.438 603.657 331.153 588.637 334.014 565.75 c 1
 398.386 188.821 l 1
 567.181 473.485 l 1
 552.161 555.021 l 1
 548.585 571.473 545.008 585.776 542.147 597.936 c 0
 539.287 609.38 534.995 617.963 529.988 622.254 c 0
 518.545 637.274 497.804 644.426 468.479 644.426 c 1
 471.339 663.737 l 1
 739.553 663.737 l 1
 736.691 644.426 l 1
 685.194 644.426 656.585 631.552 650.148 606.518 c 1
 651.578 582.916 l 1
 662.307 528.559 l 1
 720.957 185.961 l 1
 918.36 525.697 l 2
 936.241 556.453 946.97 580.77 950.547 599.367 c 0
 953.407 616.531 948.4 628.69 936.241 635.844 c 1
 918.36 641.564 l 1
 891.897 644.426 l 1
 894.759 663.737 l 1
 1092.88 663.737 l 1
 1090.02 644.426 l 1
EndSplineSet
Fore
SplineSet
631 602 m 0
 631 590 637 573 637 555 c 0
 637 549 642 532 643 527 c 2
 702 186 l 1
 898 524 l 1
 918 561 932 595 932 611 c 0
 932 630 914 639 870 643 c 1
 874 662 l 1
 1072 662 l 1
 1068 643 l 1
 1014 633 1002 624 971 573 c 0
 798 278 782 250 642 -12 c 1
 627 -12 l 1
 558 412 l 1
 313 -12 l 1
 299 -12 l 1
 220 526 l 1
 202 620 192 639 141 643 c 1
 145 662 l 1
 391 662 l 1
 387 643 l 1
 331 640 313 634 313 596 c 0
 313 587 315 576 316 565 c 2
 379 189 l 1
 546 472 l 1
 532 554 l 1
 514 633 507 642 450 643 c 1
 454 662 l 1
 721 662 l 1
 716 643 l 1
 671 642 631 636 631 602 c 0
EndSplineSet
EndChar

StartChar: X
Encoding: 88 88 57
Width: 720
Flags: W
HStem: 0 19<15 59.5111 190.966 243 412 476.303 666.168 705> 643 19<163 205.604 392.153 460 599 651.406 777.19 832>
DStem2: 183 133 249 141 0.716426 0.697663<-65.0528 264.3 388.233 678.933> 431 463 308 486 0.438471 -0.898745<-150.749 66.1801 142.789 392.724>
LayerCount: 2
Back
SplineSet
725.247 0 m 1
 426.28 0 l 1
 430.57 19.3115 l 1
 490.65 26.4639 l 1
 503.525 31.4707 511.393 40.0527 515.685 52.9277 c 0
 518.545 66.5166 508.531 98.7021 484.93 149.484 c 2
 419.128 290.385 l 1
 266.782 140.901 l 2
 223.868 97.9873 200.98 69.3779 197.405 55.7881 c 0
 193.113 31.4707 216.001 19.3115 266.782 19.3115 c 1
 262.49 0 l 1
 27.8945 0 l 1
 32.1855 19.3115 l 1
 60.7949 22.1719 83.6826 29.3242 100.848 40.7686 c 1
 148.053 82.252 l 1
 200.98 133.033 l 1
 399.815 326.863 l 1
 325.432 487.79 l 2
 307.551 524.981 292.531 554.307 279.656 576.479 c 0
 266.782 598.65 256.055 612.956 246.041 620.823 c 0
 239.604 627.976 230.306 632.982 218.861 636.559 c 0
 207.419 640.135 193.828 642.281 177.379 644.426 c 1
 180.239 663.737 l 1
 484.93 663.737 l 1
 482.068 644.426 l 1
 451.312 644.426 434.862 643.711 432.002 642.996 c 0
 413.406 637.989 402.677 628.69 398.386 613.671 c 0
 394.809 592.929 411.975 543.578 451.312 464.188 c 2
 480.638 405.537 l 1
 623.684 543.578 l 1
 662.307 582.916 l 2
 667.313 587.922 670.891 592.929 673.036 597.936 c 0
 675.182 602.228 678.043 607.234 679.473 612.241 c 0
 683.765 633.697 662.307 644.426 616.531 644.426 c 1
 619.394 663.737 l 1
 856.851 663.737 l 1
 853.99 644.426 l 1
 837.539 644.426 821.089 642.281 805.354 638.704 c 0
 790.334 634.412 775.314 627.976 761.726 617.963 c 0
 753.142 611.524 742.413 602.228 729.539 591.499 c 0
 716.665 580.77 701.646 567.181 683.765 550.731 c 2
 500.664 369.061 l 1
 634.412 93.6953 l 2
 655.87 48.6357 687.34 23.6025 729.539 19.3115 c 1
 725.247 0 l 1
EndSplineSet
Fore
SplineSet
836 662 m 1
 832 643 l 1
 769 639 746 627 664 549 c 1
 479 368 l 1
 612 92 l 1
 643 35 656 25 709 19 c 1
 705 0 l 1
 407 0 l 1
 412 19 l 1
 423 21 435 21 438 21 c 0
 473 22 494 32 494 56 c 0
 494 72 483 105 464 148 c 2
 400 289 l 1
 249 141 l 2
 202 94 177 64 177 45 c 0
 177 29 196 23 248 19 c 1
 243 0 l 1
 10 0 l 1
 15 19 l 1
 66 23 72 26 183 133 c 1
 381 327 l 1
 308 486 l 1
 239 625 223 640 158 643 c 1
 163 662 l 1
 464 662 l 1
 460 643 l 1
 432 642 l 1
 384 642 376 620 376 605 c 0
 376 582 393 538 431 463 c 2
 461 404 l 1
 603 542 l 1
 661 600 659 604 659 618 c 0
 659 636 643 642 595 643 c 1
 599 662 l 1
 836 662 l 1
EndSplineSet
EndChar

StartChar: Y
Encoding: 89 89 58
Width: 720
Flags: W
HStem: 0 19<218 287.565 455.7 520> 643 19<163 197.206 375.986 438 624 675.615 799.031 839>
DStem2: 369 570 289 486 0.409173 -0.912457<-33.363 244.395> 314.493 0 418.044 0 0.207912 0.978148<88.2075 300.779> 469 347 482 303 0.655185 0.755468<0 345.03>
LayerCount: 2
Back
SplineSet
846.838 645.856 m 1
 822.519 642.996 801.777 636.559 785.327 627.261 c 0
 772.453 619.394 757.434 607.234 740.982 591.499 c 0
 724.532 576.479 705.221 555.738 682.333 529.988 c 2
 486.359 304.69 l 1
 445.591 108.716 l 1
 437.724 72.9541 437.724 49.3516 447.021 36.4766 c 1
 461.325 25.0332 489.22 19.3115 529.988 19.3115 c 1
 525.697 0 l 1
 218.146 0 l 1
 222.438 19.3115 l 1
 265.352 19.3115 296.106 26.4639 314.703 40.7686 c 0
 325.432 51.4971 335.445 77.9609 344.027 120.159 c 2
 382.649 296.106 l 1
 293.246 487.79 l 2
 261.062 555.021 235.312 599.367 216.716 620.823 c 0
 200.266 637.989 182.385 645.856 162.358 645.856 c 1
 165.219 663.737 l 1
 447.021 663.737 l 1
 444.161 645.856 l 1
 396.24 645.856 369.775 635.129 366.2 613.671 c 0
 363.339 602.228 366.2 587.922 374.782 571.473 c 1
 474.916 348.319 l 1
 666.599 575.763 l 1
 678.043 587.208 685.194 599.367 688.771 612.241 c 0
 694.492 634.412 673.751 645.856 627.261 645.856 c 1
 630.122 663.737 l 1
 849.698 663.737 l 1
 846.838 645.856 l 1
EndSplineSet
Fore
SplineSet
844 662 m 1
 839 643 l 1
 788 639 756 617 678 529 c 1
 482 303 l 1
 441 108 l 2
 437 89 435 76 435 64 c 0
 435 28 457 21 524 19 c 1
 520 0 l 1
 214 0 l 1
 218 19 l 1
 309 23 322 34 340 120 c 2
 378 294 l 1
 289 486 l 1
 217 627 207 642 158 643 c 1
 163 662 l 1
 442 662 l 1
 438 643 l 1
 428 642 417 642 413 642 c 0
 378 640 360 630 360 603 c 0
 360 593 363 580 369 570 c 1
 469 347 l 1
 661 573 l 2
 677 592 684 602 684 618 c 0
 684 636 665 642 620 643 c 1
 624 662 l 1
 844 662 l 1
EndSplineSet
EndChar

StartChar: Z
Encoding: 90 90 59
Width: 610
Flags: W
HStem: 0 38<154 506.359> 624 38<252.24 580>
DStem2: 12 15 154 38 0.682061 0.731295<113.673 832.769>
LayerCount: 2
Back
SplineSet
654.438 175.947 m 1
 591.499 0 l 1
 26.4639 0 l 1
 29.3242 14.3047 l 1
 597.936 627.261 l 1
 376.213 627.261 l 2
 313.272 627.261 265.352 612.956 234.597 584.347 c 0
 216.716 570.042 198.835 539.287 180.239 493.512 c 1
 153.774 493.512 l 1
 209.563 663.737 l 1
 736.691 663.737 l 1
 733.831 648.718 l 1
 171.657 37.9072 l 1
 429.141 37.9072 l 2
 488.505 37.9072 534.28 52.2119 565.75 80.8213 c 0
 574.333 88.6895 584.347 100.133 595.79 116.583 c 0
 606.518 132.318 618.678 152.345 631.552 175.947 c 1
 654.438 175.947 l 1
EndSplineSet
Fore
SplineSet
410 38 m 2
 539 38 574 106 612 176 c 1
 636 176 l 1
 573 0 l 1
 9 0 l 1
 12 15 l 1
 580 624 l 1
 359 624 l 2
 218 624 188 561 161 491 c 1
 135 491 l 1
 192 662 l 1
 718 662 l 1
 715 647 l 1
 154 38 l 1
 410 38 l 2
EndSplineSet
EndChar

StartChar: bracketleft
Encoding: 91 91 60
Width: 332
Flags: W
HStem: -157 27<149.649 265> 637 25<305.281 434>
DStem2: 54 -157 131.421 -157 0.207912 0.978148<76.9059 829.572>
LayerCount: 2
Back
SplineSet
311.843 -127.312 m 1
 96.5566 -127.312 l 1
 273.936 707.366 l 1
 489.22 707.366 l 1
 483.498 682.333 l 1
 391.233 682.333 l 2
 360.479 682.333 342.598 667.313 335.445 637.274 c 1
 190.253 -48.6357 l 1
 183.814 -84.3975 195.975 -102.278 228.16 -102.278 c 2
 316.133 -102.278 l 1
 311.843 -127.312 l 1
EndSplineSet
Fore
SplineSet
271 -130 m 1
 265 -157 l 1
 54 -157 l 1
 229 662 l 1
 439 662 l 1
 434 637 l 1
 344 637 l 2
 312 637 297 624 290 593 c 2
 148 -79 l 2
 146 -86 145 -92 145 -98 c 0
 145 -120 158 -130 185 -130 c 2
 271 -130 l 1
EndSplineSet
EndChar

StartChar: backslash
Encoding: 92 92 61
Width: 276
Flags: W
HStem: -15 21G<214.63 284> 657 20G<135 204.37>
VStem: 135 149
DStem2: 202 677 135 677 0.117674 -0.993052<0 688.957>
LayerCount: 2
Back
SplineSet
332.584 -177.379 m 1
 276.796 -177.379 l 1
 174.518 693.062 l 1
 228.16 693.062 l 1
 332.584 -177.379 l 1
EndSplineSet
Fore
SplineSet
135 677 m 1
 202 677 l 1
 284 -15 l 1
 217 -15 l 1
 135 677 l 1
EndSplineSet
EndChar

StartChar: bracketright
Encoding: 93 93 62
Width: 332
Flags: W
HStem: -157 27<6 136.19> 637 25<174 287.563>
DStem2: 135.496 -157 210.916 -157 0.207912 0.978148<26.3787 775.094>
LayerCount: 2
Back
SplineSet
256.055 -127.312 m 1
 40.7686 -127.312 l 1
 45.0596 -102.278 l 1
 138.04 -102.278 l 2
 168.08 -102.278 186.676 -87.2588 193.113 -57.2188 c 1
 338.306 628.69 l 1
 346.888 664.452 334.73 682.333 300.398 682.333 c 2
 212.426 682.333 l 1
 218.146 707.366 l 1
 433.432 707.366 l 1
 256.055 -127.312 l 1
EndSplineSet
Fore
SplineSet
6 -130 m 1
 97 -130 l 2
 127 -130 144 -119 149 -86 c 1
 293 584 l 2
 294 590 294 596 294 602 c 0
 294 625 281 637 255 637 c 2
 168 637 l 1
 174 662 l 1
 385 662 l 1
 211 -157 l 1
 0 -157 l 1
 6 -130 l 1
EndSplineSet
EndChar

StartChar: asciicircum
Encoding: 94 94 63
Width: 468
Flags: W
HStem: 642 20G<331.753 411.699>
DStem2: 86 297 155 297 0.580182 0.814487<40.0326 393.776> 406 662 359 586 0.274025 -0.961723<60.2117 360.62>
LayerCount: 2
Back
SplineSet
553.592 304.69 m 1
 494.942 304.69 l 1
 405.537 623.684 l 1
 389.803 600.797 l 1
 180.239 304.69 l 1
 121.59 304.69 l 1
 385.512 678.043 l 1
 447.021 678.043 l 1
 553.592 304.69 l 1
EndSplineSet
Fore
SplineSet
155 297 m 1
 86 297 l 1
 346 662 l 1
 406 662 l 1
 510 297 l 1
 441 297 l 1
 359 586 l 1
 155 297 l 1
EndSplineSet
EndChar

StartChar: underscore
Encoding: 95 95 64
Width: 499
Flags: W
HStem: -125 50<-16 473>
LayerCount: 2
Back
SplineSet
518.545 -124.451 m 1
 5.72168 -124.451 l 1
 16.4502 -72.9541 l 1
 528.559 -72.9541 l 1
 518.545 -124.451 l 1
EndSplineSet
Fore
SplineSet
473 -125 m 1
 -26 -125 l 1
 -16 -75 l 1
 483 -75 l 1
 473 -125 l 1
EndSplineSet
EndChar

StartChar: quotesglleft
Encoding: 65536 -1 65
Width: 219
Flags: W
HStem: 442 224
VStem: 164 85<566.823 654.295> 261 22<449.5 457.781>
LayerCount: 2
Fore
SplineSet
164 617 m 0
 164 640 190 666 218 666 c 0
 231 666 243 661 249 646 c 1
 256 621 274 505 283 453 c 1
 261 442 l 1
 233 485 176 579 167 603 c 0
 166 608 164 612 164 617 c 0
EndSplineSet
EndChar

StartChar: a
Encoding: 97 97 66
Width: 443
Flags: W
HStem: -10 58<114.5 219.354 332.5 415.688> 437 23<255.633 344.842>
VStem: 54 95<56.4303 140.28> 129 91<319.209 390.292> 365 76<291.587 426.709>
DStem2: 286.483 -10 365.556 -10 0.207912 0.978148<101.105 283.883 294.686 397.357>
LayerCount: 2
Back
SplineSet
493.512 45.0596 m 1
 455.604 10.0137 419.128 -7.15234 385.512 -7.15234 c 0
 339.021 -7.15234 321.14 18.5957 331.153 70.0928 c 1
 258.915 18.5957 199.55 -7.15234 153.774 -7.15234 c 0
 119.444 -7.15234 93.6953 2.86133 75.0996 22.8877 c 0
 57.2188 42.9141 52.2119 70.0928 60.0801 103.709 c 0
 71.5234 155.921 104.424 197.405 158.066 230.306 c 0
 171.657 237.457 197.405 249.616 234.597 265.352 c 0
 271.789 281.088 321.14 300.398 384.081 324.001 c 1
 398.386 391.233 l 2
 411.26 451.312 389.088 482.068 332.584 482.068 c 0
 282.518 482.068 251.763 464.188 240.318 427.71 c 1
 240.318 424.85 l 1
 238.174 419.128 237.457 411.26 238.889 402.677 c 0
 239.604 394.094 239.604 388.373 238.889 385.512 c 0
 236.742 374.782 230.306 363.339 218.146 351.895 c 1
 202.412 341.882 188.821 336.875 177.379 336.875 c 0
 163.788 336.875 153.06 341.167 145.908 349.034 c 0
 138.756 357.618 136.609 369.775 140.901 385.512 c 0
 147.338 422.703 175.232 453.458 223.868 479.206 c 0
 243.896 489.936 263.922 497.087 283.948 501.379 c 0
 304.69 506.386 325.432 508.531 346.888 508.531 c 0
 408.399 508.531 448.451 494.227 467.049 465.617 c 0
 485.645 437.724 488.505 392.663 474.916 331.153 c 1
 429.141 115.868 l 2
 420.558 75.8145 426.995 55.0732 448.451 54.3574 c 0
 464.902 54.3574 482.068 60.7949 499.233 74.3848 c 1
 493.512 45.0596 l 1
344.027 135.895 m 1
 377.643 297.537 l 1
 250.331 258.2 179.524 206.702 165.219 143.762 c 0
 159.498 120.159 162.358 98.7021 173.087 79.3906 c 0
 180.954 63.6562 196.688 55.7881 221.008 55.7881 c 0
 263.207 55.7881 298.252 69.3779 326.863 96.5566 c 0
 329.724 100.848 332.584 105.854 334.73 113.007 c 0
 336.875 119.444 340.452 127.312 344.027 135.895 c 1
EndSplineSet
Fore
SplineSet
129 338 m 0xd8
 129 398 216 460 322 460 c 0
 393 460 441 435 441 369 c 0
 441 350 438 330 432 300 c 2
 390 105 l 2
 387 92 385 81 385 72 c 0
 385 54 393 47 409 47 c 0
 423 47 437 53 457 66 c 1
 451 40 l 1
 407 1 385 -10 350 -10 c 0
 315 -10 300 6 300 42 c 0
 300 48 300 56 302 63 c 1
 230 12 185 -10 141 -10 c 0
 88 -10 54 22 54 72 c 0xe8
 54 116 83 161 113 185 c 0
 163 223 182 230 349 291 c 1
 354 319 365 350 365 381 c 0
 365 417 344 437 303 437 c 0
 264 437 227 415 221 387 c 0
 220 379 220 372 220 363 c 0
 220 331 190 305 164 305 c 0
 144 305 129 319 129 338 c 0xd8
344 268 m 1
 269 242 149 203 149 105 c 0
 149 72 168 48 198 48 c 0
 220 48 249 57 275 70 c 0
 300 83 306 92 313 123 c 2
 344 268 l 1
EndSplineSet
EndChar

StartChar: b
Encoding: 98 98 67
Width: 499
Flags: W
HStem: -10 32<188.998 318.406> 397 63<305.313 394.401> 623 16<139 153.628> 663 20G<268 297>
VStem: 431 95<189.902 359.115>
DStem2: 68.2466 -10 150.846 -10 0.207912 0.978148<73.3791 407.067 410.425 621.307>
LayerCount: 2
Back
SplineSet
590.068 263.922 m 0
 583.632 232.45 572.188 202.412 555.737 173.087 c 0
 540.001 143.762 519.26 115.868 493.512 89.4043 c 0
 432.002 25.0332 356.187 -7.15234 265.352 -7.15234 c 0
 231.021 -7.15234 196.688 -1.43066 162.358 10.0137 c 0
 121.59 25.0332 102.994 42.1992 107.285 61.5098 c 2
 228.16 634.412 l 2
 233.167 658.73 234.597 673.036 233.167 676.611 c 0
 228.875 686.625 217.432 691.632 197.405 691.632 c 2
 191.683 691.632 l 1
 166.65 690.2 l 1
 171.657 707.366 l 1
 190.253 712.373 213.14 718.811 241.034 726.679 c 0
 268.929 734.546 303.259 743.843 344.027 756.002 c 1
 346.888 754.572 l 1
 276.796 419.128 l 1
 282.518 432.717 291.816 444.876 304.69 455.604 c 0
 317.564 466.332 331.868 475.631 347.604 483.498 c 0
 364.054 491.365 380.505 497.087 397.67 501.379 c 0
 414.836 506.386 430.57 508.531 445.591 508.531 c 0
 509.963 508.531 554.307 482.068 578.625 430.57 c 0
 600.797 384.081 605.088 328.292 590.068 263.922 c 0
483.498 223.868 m 0
 489.22 252.478 492.797 278.226 493.512 301.829 c 0
 494.942 325.432 492.082 346.888 486.359 366.2 c 0
 470.624 416.267 438.438 440.584 389.803 440.584 c 0
 363.339 440.584 338.306 433.432 314.703 419.128 c 0
 284.663 401.247 266.782 379.789 262.49 354.757 c 1
 203.842 79.3906 l 2
 201.695 70.0928 203.842 62.2256 210.279 55.7881 c 0
 216.716 48.6357 224.583 42.9141 234.597 38.623 c 0
 243.896 34.3311 254.623 30.7549 266.782 28.6094 c 0
 278.226 26.4639 288.239 25.0332 297.537 25.0332 c 0
 391.948 25.0332 454.175 91.5498 483.498 223.868 c 0
EndSplineSet
Fore
SplineSet
526 302 m 0
 526 122 372 -10 233 -10 c 0
 155 -10 81 21 81 50 c 1
 190 573 l 2
 193 583 193 592 193 599 c 0
 193 620 183 624 154 624 c 0
 146 624 142 624 135 623 c 1
 139 639 l 1
 192 653 243 666 293 683 c 1
 297 681 l 1
 231 375 l 1
 262 423 330 460 390 460 c 0
 473 460 526 395 526 302 c 0
255 22 m 0
 396 22 431 202 431 272 c 0
 431 350 397 397 337 397 c 0
 286 397 229 360 221 322 c 2
 167 66 l 1
 167 42 205 22 255 22 c 0
EndSplineSet
EndChar

StartChar: c
Encoding: 99 99 68
Width: 443
Flags: W
HStem: -10 72<200.208 302.271> 431 29<269.686 368.468>
VStem: 63 88<113.629 257.676> 379 97<327.699 418.902>
LayerCount: 2
Back
SplineSet
502.094 163.788 m 1
 423.418 50.0664 337.591 -7.15234 246.041 -7.15234 c 0
 182.385 -7.15234 136.609 17.8809 108.716 67.2324 c 0
 82.9668 111.576 77.2451 168.08 90.835 237.457 c 0
 106.57 312.558 142.332 376.213 199.55 427.71 c 0
 257.484 481.353 324.001 508.531 396.955 508.531 c 0
 437.009 508.531 470.624 499.233 497.804 482.068 c 0
 532.134 461.325 545.008 432.717 536.426 395.525 c 0
 529.988 364.054 509.963 348.319 476.346 348.319 c 0
 449.883 348.319 434.862 365.485 432.002 399.815 c 1
 430.57 423.418 l 1
 428.425 445.591 424.135 460.61 416.267 467.049 c 0
 408.399 474.199 393.379 477.776 370.492 477.776 c 0
 324.001 477.776 282.518 455.604 247.471 411.26 c 0
 216.001 371.922 195.975 328.292 185.961 281.088 c 0
 174.518 222.438 178.094 174.518 197.405 135.895 c 0
 219.576 91.5498 256.055 68.6621 308.982 68.6621 c 0
 328.292 68.6621 346.888 71.5234 363.339 77.2451 c 0
 379.789 82.252 396.24 90.1191 411.26 100.848 c 0
 422.703 108.716 434.147 118.729 447.736 129.457 c 0
 460.61 140.901 474.916 155.206 489.22 173.087 c 1
 502.094 163.788 l 1
EndSplineSet
Fore
SplineSet
476 371 m 0
 476 328 436 315 417 315 c 0
 397 315 381 333 379 360 c 1
 379 384 l 1
 376 420 365 431 330 431 c 0
 233 431 151 328 151 199 c 0
 151 116 195 62 270 62 c 0
 327 62 369 86 432 157 c 1
 442 146 l 1
 376 52 305 -10 214 -10 c 0
 120 -10 63 56 63 152 c 0
 63 252 122 354 189 404 c 0
 237 439 293 460 343 460 c 0
 419 460 476 420 476 371 c 0
EndSplineSet
EndChar

StartChar: d
Encoding: 100 100 69
Width: 499
Flags: W
HStem: -10 52<197.088 297.055> 432 28<277.902 377.295> 623 16<409 427.58> 663 20G<538.5 568>
VStem: 63 94<84.4745 255.012>
DStem2: 337.981 -10 421.643 -10 0.207912 0.978148<112.446 369.202 436.593 621.57>
LayerCount: 2
Back
SplineSet
567.181 47.2051 m 1
 394.094 -7.15234 l 1
 388.373 -4.29102 l 1
 402.677 60.0801 l 1
 359.048 15.0195 305.405 -7.15234 243.181 -7.15234 c 0
 199.55 -7.15234 162.358 5.00684 131.604 29.3242 c 0
 85.8281 69.3779 72.9541 138.756 93.6953 237.457 c 0
 101.563 274.65 113.723 308.266 130.173 338.306 c 0
 146.624 368.346 168.08 396.955 193.113 423.418 c 0
 250.331 479.923 312.558 508.531 380.505 508.531 c 0
 422.703 508.531 458.465 492.797 487.79 462.757 c 1
 524.267 634.412 l 2
 529.273 656.585 530.704 670.176 528.559 675.182 c 0
 527.127 680.188 522.837 683.765 516.399 685.91 c 0
 509.963 688.771 502.811 690.2 494.942 690.2 c 2
 489.22 690.2 l 1
 462.757 688.771 l 1
 467.049 707.366 l 1
 536.426 723.817 l 1
 637.274 756.002 l 1
 642.996 754.572 l 1
 509.963 125.881 l 1
 504.956 100.848 504.956 83.6826 509.246 75.0996 c 0
 513.538 67.2324 527.127 62.9404 550.731 62.9404 c 2
 570.042 64.3711 l 1
 567.181 47.2051 l 1
413.406 113.007 m 1
 468.479 369.061 l 1
 471.339 405.537 464.902 433.432 448.451 452.743 c 0
 431.287 469.909 407.684 479.206 376.213 479.206 c 0
 326.863 479.206 285.378 456.319 253.193 409.829 c 0
 226.729 374.782 207.419 330.438 194.543 276.796 c 0
 180.954 214.569 180.954 163.788 194.543 124.451 c 0
 212.426 72.9541 248.187 47.2051 301.829 47.2051 c 0
 355.472 47.2051 392.663 68.6621 413.406 113.007 c 1
EndSplineSet
Fore
SplineSet
63 145 m 0
 63 289 187 460 333 460 c 0
 374 460 397 450 429 417 c 1
 461 573 l 2
 464 583 464 592 464 599 c 0
 464 618 454 624 428 624 c 0
 419 624 413 624 404 623 c 1
 409 639 l 1
 475 656 513 666 564 683 c 1
 568 681 l 1
 448 114 l 2
 445 101 444 91 444 82 c 0
 444 63 454 57 480 57 c 0
 483 57 485 57 504 59 c 1
 499 42 l 1
 343 -10 l 1
 338 -7 l 1
 352 57 l 1
 308 10 267 -10 211 -10 c 0
 120 -10 63 51 63 145 c 0
331 432 m 0
 227 432 157 295 157 176 c 0
 157 92 193 42 259 42 c 0
 319 42 358 87 362 103 c 2
 410 333 l 2
 412 338 412 346 412 352 c 0
 412 395 378 432 331 432 c 0
EndSplineSet
EndChar

StartChar: e
Encoding: 101 101 70
Width: 443
Flags: W
HStem: -10 69<197.231 306.086> 277 32<166 369> 423 37<245.252 349.199>
VStem: 63 85<110.193 265.89> 369 98<309.227 403.896>
LayerCount: 2
Back
SplineSet
518.545 174.518 m 1
 509.963 156.637 498.519 138.756 485.645 120.875 c 0
 472.056 102.994 456.319 85.1133 436.294 68.6621 c 0
 376.928 17.8809 313.272 -7.15234 246.041 -7.15234 c 0
 188.821 -7.15234 145.908 9.29785 118.014 42.9141 c 0
 90.1191 77.2451 77.9609 123.021 82.252 181.669 c 0
 83.6826 197.405 87.2588 216.001 90.835 237.457 c 0
 106.57 312.558 138.04 374.782 185.961 423.418 c 0
 241.749 479.923 304.69 508.531 374.782 508.531 c 0
 436.294 508.531 479.923 489.936 506.386 454.175 c 0
 532.134 417.696 537.857 368.346 524.267 306.12 c 1
 181.669 306.12 l 1
 148.768 145.908 190.968 65.8018 308.982 65.8018 c 0
 370.492 65.8018 436.294 105.14 505.671 183.1 c 1
 518.545 174.518 l 1
421.988 342.598 m 1
 430.57 427.71 404.107 469.909 342.598 469.909 c 0
 278.226 469.909 228.16 427.71 193.113 342.598 c 1
 421.988 342.598 l 1
EndSplineSet
Fore
SplineSet
148 202 m 0
 148 114 187 59 267 59 c 0
 330 59 379 88 444 164 c 1
 457 157 l 1
 393 48 306 -10 211 -10 c 0
 116 -10 63 48 63 145 c 0
 63 312 182 460 333 460 c 0
 416 460 467 409 467 322 c 0
 467 309 466 294 464 277 c 1
 155 277 l 1
 149 246 148 223 148 202 c 0
166 309 m 1
 369 309 l 1
 369 333 l 2
 369 400 350 423 294 423 c 0
 233 423 192 387 166 309 c 1
EndSplineSet
EndChar

StartChar: f
Encoding: 102 102 71
Width: 332
Flags: W
HStem: 0 15<23 74.0542 223.786 280> 417 33<116 192 281 398> 655 28<348.053 451>
DStem2: 102.894 0 186.894 0 0.207912 0.978148<76.9132 426.414 477.197 602.721>
LayerCount: 2
Back
SplineSet
585.776 688.771 m 0
 580.055 658.016 560.028 642.996 525.697 642.996 c 0
 514.253 642.996 499.949 656.585 483.498 683.765 c 1
 470.624 711.658 456.319 725.247 440.584 725.247 c 0
 396.955 725.247 367.631 691.632 353.326 625.115 c 2
 325.432 497.804 l 1
 461.325 497.804 l 1
 454.175 464.188 l 1
 318.994 464.188 l 1
 246.041 114.438 l 1
 242.464 97.9873 239.604 82.9668 238.889 70.8086 c 0
 237.457 58.6494 239.604 48.6357 243.181 40.7686 c 0
 251.763 24.3184 279.656 16.4502 326.863 16.4502 c 1
 324.001 0 l 1
 36.4766 0 l 1
 39.3379 16.4502 l 1
 48.6357 17.166 57.2188 17.8809 65.8018 17.8809 c 0
 75.8145 17.8809 82.9668 18.5957 87.9736 20.7422 c 0
 92.9805 22.1719 98.7021 24.3184 105.854 27.1787 c 0
 113.723 29.3242 118.014 31.4707 120.159 33.6162 c 0
 133.749 47.2051 145.192 74.3848 153.774 114.438 c 1
 226.729 464.188 l 1
 135.895 464.188 l 1
 143.762 497.804 l 1
 234.597 497.804 l 1
 271.789 670.891 356.187 757.434 487.79 757.434 c 0
 512.823 757.434 535.711 752.427 555.021 742.413 c 0
 580.77 728.824 590.783 710.943 585.776 688.771 c 0
EndSplineSet
Fore
SplineSet
464 580 m 0
 419 580 436 655 382 655 c 0
 344 655 319 624 306 565 c 2
 281 450 l 1
 404 450 l 1
 398 417 l 1
 277 417 l 1
 209 104 l 2
 205 85 202 69 202 57 c 0
 202 23 223 16 283 15 c 1
 280 0 l 1
 21 0 l 1
 23 15 l 1
 97 19 108 31 125 104 c 1
 192 417 l 1
 110 417 l 1
 116 450 l 1
 198 450 l 1
 207 486 243 683 423 683 c 0
 479 683 517 662 517 630 c 0
 517 606 494 580 464 580 c 0
EndSplineSet
EndChar

StartChar: g
Encoding: 103 103 72
Width: 499
Flags: W
HStem: -218 57<105.989 271.969> -15 79<152.708 414.609> 149 25<250.347 335.412> 388 40<469.25 552> 432 28<274.601 356.945>
VStem: 0 78<-134.316 -83.1349> 83 69<37 97.5> 127 90<200.687 343.417> 391 84<255.27 386.547> 422 32<-81.9435 -1>
LayerCount: 2
Back
SplineSet
588.638 433.432 m 1
 500.664 433.432 l 1
 504.24 416.981 505.671 400.532 506.386 384.796 c 0
 506.386 368.346 504.956 351.895 500.664 335.445 c 0
 489.937 288.239 466.332 251.048 429.141 222.438 c 0
 391.948 194.543 349.034 180.239 300.398 180.239 c 0
 290.385 180.239 281.088 180.239 271.789 180.954 c 0
 262.49 181.669 253.193 182.385 244.61 184.531 c 2
 240.318 184.531 l 2
 232.45 184.531 218.146 176.662 197.405 160.928 c 1
 178.094 141.616 166.65 128.027 163.788 120.159 c 0
 160.928 103.709 187.392 93.6953 243.181 90.835 c 2
 376.213 83.6826 l 2
 412.689 81.5371 441.301 70.8086 462.042 51.4971 c 0
 482.783 31.4707 489.936 5.72168 482.068 -26.4639 c 0
 476.346 -55.7881 461.325 -81.5371 437.009 -102.994 c 0
 413.406 -125.166 385.512 -143.762 354.757 -158.781 c 0
 323.286 -173.802 291.1 -185.246 258.2 -193.113 c 0
 226.015 -200.98 196.688 -205.272 171.657 -205.272 c 0
 153.774 -205.272 134.464 -203.127 114.438 -200.266 c 0
 93.6953 -196.688 75.0996 -190.968 57.9336 -183.1 c 0
 40.7686 -175.232 27.1787 -164.504 17.8809 -151.63 c 0
 7.86719 -138.756 5.00684 -122.305 8.58301 -102.278 c 0
 16.4502 -68.6621 59.3643 -26.4639 138.04 23.6025 c 1
 104.424 43.6289 89.4043 62.2256 92.2656 79.3906 c 0
 97.9873 102.278 138.04 140.901 210.994 194.543 c 1
 153.06 223.868 130.888 270.358 143.762 332.584 c 0
 149.484 359.048 159.498 382.649 173.087 404.107 c 0
 186.676 425.564 203.127 444.161 222.438 459.181 c 0
 242.464 474.199 263.922 486.359 287.524 494.942 c 0
 311.843 504.24 336.875 508.531 363.339 508.531 c 0
 376.928 508.531 391.233 506.386 406.969 502.094 c 0
 422.703 498.519 440.584 492.797 459.896 484.93 c 0
 468.479 480.638 478.491 478.491 489.22 477.062 c 0
 499.949 475.631 509.246 474.916 517.114 474.916 c 2
 597.936 474.916 l 1
 588.638 433.432 l 1
413.406 308.982 m 0
 416.267 324.717 417.696 340.452 418.413 356.187 c 0
 418.413 371.922 417.696 387.656 414.836 404.107 c 0
 405.537 454.175 381.935 479.206 342.598 479.206 c 0
 290.385 479.206 256.77 447.021 243.181 384.081 c 0
 216.716 265.352 240.318 206.702 313.272 206.702 c 0
 365.485 206.702 398.386 241.034 413.406 308.982 c 0
449.883 -42.1992 m 0
 451.312 -30.04 449.168 -19.3115 441.3 -10.7285 c 0
 434.147 -2.86133 423.418 2.86133 408.399 5.72168 c 0
 404.822 7.15234 396.24 7.86719 383.366 7.86719 c 0
 369.775 8.58301 352.611 10.0137 331.153 11.4434 c 0
 298.969 13.5898 273.219 15.0195 253.193 16.4502 c 0
 233.882 17.166 218.146 17.8809 205.987 18.5957 c 0
 193.828 18.5957 184.531 19.3115 178.094 20.0264 c 0
 171.657 20.0264 165.219 20.7422 159.498 22.1719 c 1
 118.014 -17.166 94.4111 -47.9209 89.4043 -70.0928 c 0
 79.3906 -120.159 127.312 -145.192 233.167 -145.192 c 0
 252.478 -145.192 272.504 -143.047 292.531 -139.471 c 0
 312.558 -135.18 333.299 -129.457 356.187 -121.59 c 0
 411.26 -102.278 442.729 -75.8145 449.883 -42.1992 c 0
EndSplineSet
Fore
SplineSet
127 262 m 0xfd
 127 352 216 460 334 460 c 0
 360 460 385 456 412 445 c 2
 431 437 l 1
 448 431 464 428 483 428 c 2
 561 428 l 1
 552 388 l 1
 469 388 l 1
 473 372 475 357 475 344 c 0xfd80
 475 229 378 149 283 149 c 0
 266 149 231 153 226 154 c 1
 195 146 152 107 152 88 c 0
 152 73 176 66 224 64 c 2
 353 59 l 2
 416 56 454 23 454 -25 c 0
 454 -144 265 -218 154 -218 c 0
 64 -218 0 -180 0 -132 c 0
 0 -92 50 -48 126 1 c 1
 95 18 83 29 83 45 c 0xfe40
 83 86 161 135 198 163 c 1
 149 189 127 220 127 262 c 0xfd
146 -1 m 1
 117 -30 78 -64 78 -97 c 0
 78 -136 129 -161 211 -161 c 0
 389 -161 422 -75 422 -54 c 0xfc40
 422 -25 388 -15 306 -15 c 0
 258 -15 179 -9 146 -1 c 1
290 174 m 0
 371 174 391 265 391 315 c 0
 391 371 375 432 318 432 c 0
 237 432 217 332 217 275 c 0xfd80
 217 212 243 174 290 174 c 0
EndSplineSet
EndChar

StartChar: h
Encoding: 104 104 73
Width: 499
Flags: W
HStem: 0 15<12 48.3125 191.764 226 278 316.178 463.083 488> 406 54<314.879 434.5> 623 16<146 154.813> 663 20G<280.5 302>
VStem: 412 87<232.938 396.314>
DStem2: 73.1067 0 157.107 0 0.207912 0.978148<76.9864 394.541 401.859 611.6> 343.107 0 428.107 0 0.207912 0.978148<73.9339 349.276>
LayerCount: 2
Back
SplineSet
553.592 0 m 1
 321.14 0 l 1
 324.001 14.3047 l 1
 351.18 17.8809 371.922 23.6025 385.512 33.6162 c 0
 394.094 39.3379 400.532 49.3516 405.537 62.9404 c 0
 410.544 76.5303 414.836 92.9805 419.128 113.007 c 2
 465.617 332.584 l 1
 483.498 410.544 463.472 449.883 405.537 449.883 c 0
 369.775 449.883 324.001 426.28 269.644 379.074 c 1
 212.426 113.007 l 2
 208.134 92.9805 206.702 76.5303 206.702 62.9404 c 0
 206.702 50.0664 208.849 40.7686 213.854 33.6162 c 0
 217.432 27.8945 235.312 21.457 266.782 14.3047 c 1
 263.922 0 l 1
 26.4639 0 l 1
 29.3242 14.3047 l 1
 45.7754 16.4502 60.0801 20.0264 70.8086 25.748 c 0
 82.252 30.7549 90.1191 37.1924 95.126 43.6289 c 0
 103.709 54.3574 112.292 77.9609 120.159 113.007 c 2
 240.318 673.751 l 1
 231.735 683.765 218.861 688.771 202.412 688.771 c 2
 174.518 687.34 l 1
 177.379 705.937 l 1
 345.458 756.002 l 1
 348.319 753.142 l 1
 278.226 419.128 l 1
 333.299 478.491 393.379 508.531 459.896 508.531 c 0
 550.731 508.531 583.632 449.883 559.313 334.014 c 2
 512.823 113.007 l 1
 505.671 77.9609 504.24 55.0732 507.101 45.0596 c 0
 509.963 39.3379 515.685 34.3311 524.267 29.3242 c 0
 532.851 24.3184 543.578 19.3115 556.452 14.3047 c 1
 553.592 0 l 1
EndSplineSet
Fore
SplineSet
230 343 m 1
 179 103 l 2
 174 83 173 67 173 57 c 0
 173 26 187 19 229 15 c 1
 226 0 l 1
 9 0 l 1
 12 15 l 1
 72 23 81 32 95 103 c 1
 195 573 l 2
 198 584 198 593 198 599 c 0
 198 620 187 624 155 624 c 0
 151 624 148 624 142 623 c 1
 146 639 l 1
 196 655 264 672 297 683 c 1
 302 680 l 1
 237 376 l 1
 296 437 343 460 403 460 c 0
 466 460 499 426 499 360 c 0
 499 343 497 324 492 302 c 2
 450 103 l 2
 445 81 442 66 442 54 c 0
 442 28 456 22 491 15 c 1
 488 0 l 1
 275 0 l 1
 278 15 l 1
 337 21 350 34 365 103 c 2
 407 300 l 2
 410 316 412 331 412 343 c 0
 412 385 393 406 354 406 c 0
 315 406 283 390 230 343 c 1
EndSplineSet
EndChar

StartChar: i
Encoding: 105 105 74
Width: 276
Flags: W
HStem: 0 15<19 69.5249 213.921 253> 390 16<107 128.389> 440 20G<210.889 275> 582 101<227.09 299.047>
VStem: 211 105<598.788 667.244>
DStem2: 95.1067 0 179.107 0 0.207912 0.978148<73.7267 375.114>
LayerCount: 2
Back
SplineSet
286.81 0 m 1
 290.385 14.3047 l 1
 251.763 20.7422 230.306 27.8945 225.3 36.4766 c 0
 218.861 52.9277 219.576 77.9609 226.729 111.576 c 1
 311.843 508.531 l 1
 307.551 509.963 l 1
 123.021 448.451 l 1
 120.159 432.002 l 1
 165.219 437.724 l 1
 190.253 437.724 197.405 415.551 188.821 370.492 c 1
 133.033 111.576 l 2
 129.457 92.9805 125.166 77.2451 120.159 64.3711 c 0
 115.152 51.4971 108.716 41.4834 100.848 34.3311 c 0
 92.9805 27.1787 83.6826 22.1719 71.5234 19.3115 c 0
 60.0801 16.4502 45.0596 14.3047 26.4639 14.3047 c 1
 23.6025 0 l 1
 286.81 0 l 1
243.181 701.646 m 0
 239.604 685.194 241.749 671.604 250.331 660.877 c 0
 258.915 650.148 271.789 644.426 288.239 644.426 c 0
 305.405 644.426 319.71 650.148 332.584 660.877 c 0
 345.458 671.604 353.326 685.194 357.618 701.646 c 0
 360.479 718.095 357.618 731.686 349.034 742.413 c 0
 341.167 753.142 328.292 758.863 311.843 758.863 c 0
 295.392 758.863 280.371 753.142 267.497 742.413 c 0
 253.908 731.686 246.041 718.095 243.181 701.646 c 0
EndSplineSet
Fore
SplineSet
272 460 m 1
 275 457 l 1
 201 103 l 2
 196 82 193 66 193 54 c 0
 193 25 211 19 256 15 c 1
 253 0 l 1
 16 0 l 1
 19 15 l 1
 89 19 101 29 117 103 c 2
 166 334 l 2
 168 347 170 359 170 368 c 0
 170 387 163 394 145 394 c 0
 135 394 116 391 104 390 c 1
 107 406 l 1
 272 460 l 1
211 621 m 0
 211 659 245 683 272 683 c 0
 299 683 316 665 316 643 c 0
 316 612 287 582 250 582 c 0
 227 582 211 598 211 621 c 0
EndSplineSet
EndChar

StartChar: j
Encoding: 106 106 75
Width: 276
Flags: W
HStem: -218 33<-47.5 57.2949> 390 16<119 146.297> 440 20G<253.5 290> 582 101<241.767 313.265>
VStem: 226 104<599.375 667.244>
DStem2: 61.2277 -218 146.663 -218 0.207912 0.978148<110.909 598.097>
LayerCount: 2
Back
SplineSet
324.001 508.531 m 1
 318.994 509.963 l 1
 134.464 448.451 l 1
 131.604 432.002 l 1
 177.379 437.724 l 1
 201.695 437.724 209.563 415.551 200.98 370.492 c 1
 121.59 0 l 1
 120.159 0 l 1
 110.146 -47.2051 l 2
 102.994 -77.2451 97.2715 -101.563 92.9805 -120.159 c 0
 88.6895 -138.756 84.3975 -151.63 80.8213 -158.066 c 0
 63.6562 -187.392 44.3447 -202.412 22.1719 -202.412 c 0
 15.0195 -200.98 2.14551 -189.538 -17.8809 -166.65 c 1
 -32.9004 -145.192 -48.6357 -134.464 -64.3711 -134.464 c 0
 -67.2324 -134.464 -77.2451 -138.04 -93.6953 -145.192 c 1
 -104.424 -154.491 -111.576 -165.219 -114.438 -175.947 c 0
 -123.021 -217.432 -94.4111 -238.889 -27.8945 -238.889 c 0
 34.3311 -238.889 86.543 -219.576 127.312 -181.669 c 0
 168.795 -143.762 197.405 -86.543 213.854 -10.0137 c 1
 324.001 508.531 l 1
254.623 701.646 m 0
 251.048 685.194 253.193 671.604 262.49 660.877 c 0
 271.074 650.148 283.948 644.426 300.398 644.426 c 0
 316.85 644.426 331.868 650.148 344.027 660.877 c 0
 356.901 671.604 365.485 685.194 369.061 701.646 c 0
 371.922 718.095 369.061 731.686 361.193 742.413 c 0
 352.611 753.142 340.452 758.863 324.001 758.863 c 0
 306.836 758.863 292.531 753.142 278.941 742.413 c 0
 266.067 731.686 257.484 718.095 254.623 701.646 c 0
EndSplineSet
Fore
SplineSet
-56 -125 m 0
 -12 -125 -18 -185 22 -185 c 0
 73 -185 83 -116 98 -45 c 2
 179 334 l 2
 182 347 183 359 183 368 c 0
 183 385 176 394 161 394 c 0
 151 394 129 391 116 390 c 1
 119 406 l 1
 180 423 221 437 286 460 c 1
 290 457 l 1
 193 0 l 2
 163 -142 86 -218 -23 -218 c 0
 -72 -218 -105 -198 -105 -170 c 0
 -105 -141 -77 -125 -56 -125 c 0
226 621 m 0
 226 659 259 683 287 683 c 0
 312 683 330 666 330 643 c 0
 330 608 296 582 265 582 c 0
 242 582 226 598 226 621 c 0
EndSplineSet
EndChar

StartChar: k
Encoding: 107 107 76
Width: 499
Flags: W
HStem: 0 15<10 51.912 197.004 242 290 329.212 473.851 505> 435 15<371 412.885 515.273 573> 623 16<144 170.309> 663 20G<288 311>
DStem2: 82.5704 0 165.759 0 0.207912 0.978148<70.1643 272.694 284.078 608.433> 294 283 218 250 0.501386 -0.865224<0 234.505> 221 261 294 283 0.8 0.6<71.6 250.182>
LayerCount: 2
Back
SplineSet
139 623 m 5
 144 639 l 5
 198 655 268 671 308 683 c 5
 311 681 l 5
 221 261 l 5
 385 384 l 6
 400 395 413 409 416 417 c 6
 416 420 l 6
 416 431 404 435 368 437 c 5
 371 450 l 5
 576 450 l 5
 573 435 l 5
 564 435 l 6
 548 435 533 434 517 429 c 4
 486 420 415 375 330 309 c 6
 294 283 l 5
 407 88 l 5
 438 37 466 18 508 15 c 5
 505 0 l 5
 287 0 l 5
 290 15 l 5
 309 15 l 6
 321 15 331 21 333 29 c 4
 333 34 l 4
 333 38 331 44 327 51 c 4
 325 54 322 57 322 60 c 6
 319 64 l 5
 218 250 l 5
 180 67 l 6
 179 62 179 56 179 51 c 4
 179 19 211 16 245 15 c 5
 242 0 l 5
 7 0 l 5
 10 15 l 5
 85 26 88 29 100 82 c 6
 202 564 l 6
 205 577 207 587 207 596 c 4
 207 618 196 625 173 625 c 4
 163 625 154 624 139 623 c 5
574.333 0 m 1
 335.445 0 l 1
 339.737 17.8809 l 1
 357.618 17.8809 l 2
 374.067 17.8809 384.081 22.8877 388.373 33.6162 c 1
 258.915 273.936 l 1
 216.716 72.9541 l 2
 208.849 37.1924 225.3 19.3115 265.352 19.3115 c 2
 286.81 17.8809 l 1
 282.518 0 l 1
 25.0332 0 l 1
 29.3242 17.8809 l 1
 66.5166 22.1719 87.2588 27.1787 90.835 30.7549 c 0
 98.7021 37.9072 105.14 45.0596 111.576 54.3574 c 0
 117.299 62.9404 121.59 75.0996 124.451 90.835 c 1
 238.889 623.684 l 1
 243.896 650.148 245.324 666.599 243.181 672.319 c 0
 241.034 677.326 237.457 681.618 232.45 684.479 c 0
 226.729 688.056 218.861 690.2 208.134 690.2 c 2
 202.412 690.2 l 1
 171.657 687.34 l 1
 174.518 703.074 l 1
 354.757 753.142 l 1
 360.479 751.712 l 1
 262.49 290.385 l 1
 439.154 423.418 l 1
 460.61 437.009 473.485 449.883 476.346 461.325 c 0
 479.206 474.199 461.325 480.638 423.418 480.638 c 1
 426.28 497.804 l 1
 650.148 497.804 l 1
 647.288 479.206 l 1
 630.122 479.206 613.671 477.062 600.082 474.199 c 0
 585.776 470.624 572.902 466.332 560.743 461.325 c 0
 552.161 456.319 538.572 449.168 520.691 438.438 c 0
 502.811 428.425 482.783 415.551 461.325 399.815 c 2
 339.737 310.412 l 1
 465.617 96.5566 l 2
 480.638 72.2383 497.087 52.9277 515.685 39.3379 c 0
 534.28 25.748 555.021 18.5957 578.625 17.8809 c 1
 574.333 0 l 1
EndSplineSet
Fore
SplineSet
333 34 m 0
 333 46 324 57 322 60 c 2
 218 250 l 1
 180 67 l 2
 179 62 179 56 179 51 c 0
 179 19 211 16 245 15 c 1
 242 0 l 1
 7 0 l 1
 10 15 l 1
 85 26 88 29 100 82 c 2
 202 564 l 2
 205 577 207 587 207 596 c 0
 207 618 196 625 173 625 c 0
 163 625 154 624 139 623 c 1
 144 639 l 1
 198 655 268 671 308 683 c 1
 311 681 l 1
 221 261 l 1
 385 384 l 2
 405 399 416 412 416 420 c 0
 416 431 404 435 368 437 c 1
 371 450 l 1
 576 450 l 1
 573 435 l 1
 564 435 l 2
 525 435 491 434 330 309 c 1
 294 283 l 1
 407 88 l 1
 438 37 466 18 508 15 c 1
 505 0 l 1
 287 0 l 1
 290 15 l 1
 309 15 l 2
 316 15 333 17 333 34 c 0
EndSplineSet
EndChar

StartChar: l
Encoding: 108 108 77
Width: 276
Flags: W
HStem: 0 15<23 67.4098 214.558 256> 623 16<155 186.655> 663 20G<296 327>
VStem: 21 303
DStem2: 98.7201 0 181.358 0 0.207912 0.978148<72.2716 608.402>
LayerCount: 2
Back
SplineSet
283.948 0 m 1
 23.6025 0 l 1
 26.4639 14.3047 l 1
 58.6494 18.5957 82.252 25.748 97.2715 36.4766 c 0
 112.292 47.2051 123.021 67.2324 128.742 96.5566 c 1
 241.749 623.684 l 1
 243.896 637.989 245.324 648.003 246.756 655.155 c 0
 248.187 663.022 248.187 668.744 246.041 673.751 c 0
 239.604 685.194 227.444 691.632 210.994 691.632 c 2
 166.65 688.771 l 1
 171.657 707.366 l 1
 185.246 710.228 200.266 713.805 216.716 718.095 c 0
 233.167 721.672 244.61 724.532 250.331 726.679 c 2
 361.908 757.434 l 1
 221.008 93.6953 l 1
 209.563 40.7686 231.735 14.3047 286.81 14.3047 c 1
 283.948 0 l 1
EndSplineSet
Fore
SplineSet
151 623 m 1
 155 639 l 1
 227 656 268 666 324 683 c 1
 327 681 l 1
 199 83 l 2
 196 70 195 62 195 53 c 0
 195 25 212 18 259 15 c 1
 256 0 l 1
 21 0 l 1
 23 15 l 1
 88 21 105 34 117 86 c 2
 218 564 l 2
 221 577 223 587 223 596 c 0
 223 618 212 625 189 625 c 0
 182 625 164 624 151 623 c 1
EndSplineSet
EndChar

StartChar: m
Encoding: 109 109 78
Width: 777
Flags: W
HStem: 0 15<19 64.3058 199.739 239 289 333.184 471.145 510 560 598.704 733.939 775> 398 17<107 135.487> 409 51<338.504 446 598.099 717>
VStem: 693 82<227.891 401.068>
DStem2: 85.9327 0 170.759 0 0.207912 0.978148<67.1999 381.435> 355.72 0 437.807 0 0.207912 0.978148<76.6482 355.224> 623.72 0 705.846 0 0.207912 0.978148<71.9285 358.999>
LayerCount: 2
Back
SplineSet
871.871 0 m 1
 630.122 0 l 1
 632.982 14.3047 l 1
 644.426 16.4502 653.725 18.5957 661.592 20.0264 c 0
 668.744 21.457 674.466 22.1719 679.473 23.6025 c 0
 695.207 28.6094 705.937 39.3379 711.658 57.2188 c 1
 723.817 96.5566 l 1
 773.168 329.724 l 2
 782.467 370.492 783.896 398.386 779.606 413.406 c 0
 773.168 439.154 753.142 452.743 719.525 452.743 c 0
 665.169 452.743 620.108 429.855 582.916 384.081 c 1
 522.837 102.278 l 1
 511.393 43.6289 530.704 14.3047 581.486 14.3047 c 1
 578.625 0 l 1
 331.153 0 l 1
 334.014 14.3047 l 1
 349.75 16.4502 362.624 19.3115 373.353 22.1719 c 0
 384.081 25.0332 393.379 29.3242 399.815 35.0469 c 0
 406.969 40.7686 412.689 48.6357 416.981 57.9336 c 0
 421.273 67.2324 424.85 79.3906 427.71 95.126 c 1
 479.206 335.445 l 2
 495.657 413.406 477.776 452.743 426.28 452.743 c 0
 391.948 452.743 359.048 442.015 328.292 420.558 c 0
 316.133 412.689 306.836 406.254 299.684 400.532 c 0
 292.531 395.525 287.524 389.803 285.378 385.512 c 1
 219.576 74.3848 l 2
 210.994 34.3311 231.735 14.3047 281.088 14.3047 c 1
 278.226 0 l 1
 32.1855 0 l 1
 35.0469 14.3047 l 1
 87.2588 14.3047 118.729 40.7686 130.173 93.6953 c 1
 193.113 392.663 l 1
 198.12 409.829 196.688 424.85 188.821 436.294 c 0
 186.676 441.301 179.524 444.161 165.219 444.161 c 0
 158.066 444.161 150.914 443.444 145.192 443.444 c 0
 139.471 442.729 133.749 442.015 128.742 440.584 c 1
 133.033 458.465 l 1
 143.047 460.61 153.774 463.472 165.934 467.049 c 0
 178.809 471.339 188.821 474.199 195.975 476.346 c 2
 298.969 508.531 l 1
 306.12 508.531 l 1
 286.81 423.418 l 1
 333.299 450.598 366.2 469.193 387.656 479.923 c 0
 408.399 489.936 421.273 496.372 426.28 497.804 c 0
 445.591 504.956 462.757 508.531 477.776 508.531 c 0
 536.426 508.531 569.327 477.776 577.194 417.696 c 1
 643.711 477.776 709.513 508.531 774.6 508.531 c 0
 861.143 508.531 889.752 442.015 861.143 310.412 c 2
 813.222 83.6826 l 1
 805.354 43.6289 816.797 22.1719 848.269 19.3115 c 2
 874.731 14.3047 l 1
 871.871 0 l 1
EndSplineSet
Fore
SplineSet
104 398 m 1xd0
 107 415 l 1xd0
 166 431 202 441 258 460 c 1
 264 458 l 1
 248 384 l 1
 344 447 375 460 419 460 c 0
 473 460 501 434 508 376 c 1
 573 434 630 460 688 460 c 0
 746 460 775 426 775 359 c 0
 775 337 772 311 766 283 c 2
 722 76 l 2
 721 67 719 59 719 53 c 0
 719 29 731 19 753 18 c 1
 778 15 l 1
 775 0 l 1
 557 0 l 1
 560 15 l 1
 618 22 628 29 642 86 c 1
 686 297 l 2
 690 319 693 338 693 353 c 0
 693 394 674 409 633 409 c 0
 587 409 552 390 511 347 c 1
 458 95 l 1
 456 79 454 67 454 57 c 0
 454 26 470 16 513 15 c 1
 510 0 l 1
 286 0 l 1
 289 15 l 1
 347 19 360 29 374 86 c 1
 419 303 l 2
 422 321 425 337 425 349 c 0
 425 390 407 409 375 409 c 0xb0
 329 409 286 392 245 349 c 1
 185 67 l 2
 183 60 182 54 182 48 c 0
 182 25 199 18 242 15 c 1
 239 0 l 1
 16 0 l 1
 19 15 l 1
 75 16 92 31 104 85 c 2
 158 338 l 2
 161 353 163 365 163 374 c 0
 163 394 155 401 136 401 c 0
 125 401 117 401 104 398 c 1xd0
EndSplineSet
EndChar

StartChar: n
Encoding: 110 110 79
Width: 499
Flags: W
HStem: 0 15<21 58.4192 193.782 230 280 315.438 455.92 485> 398 17<104 126.531> 406 54<326.686 433.5>
VStem: 410 85<281.185 396.866>
DStem2: 81.0825 0 164.759 0 0.207912 0.978148<68.8268 379.241> 338.744 0 423.783 0 0.207912 0.978148<72.8006 353.681>
LayerCount: 2
Back
SplineSet
547.869 0 m 1
 321.14 0 l 1
 324.001 14.3047 l 1
 351.895 17.8809 369.775 23.6025 376.213 33.6162 c 1
 391.948 44.3447 404.107 69.3779 413.406 108.716 c 1
 461.325 339.737 l 1
 477.776 409.829 457.75 445.591 401.247 445.591 c 0
 373.353 445.591 331.868 425.564 278.226 385.512 c 1
 212.426 74.3848 l 2
 205.272 41.4834 225.3 21.457 271.074 14.3047 c 1
 268.212 0 l 1
 35.0469 0 l 1
 37.9072 14.3047 l 1
 71.5234 20.7422 l 1
 85.1133 25.0332 96.5566 34.3311 105.14 48.6357 c 0
 114.438 62.2256 120.875 79.3906 124.451 99.418 c 1
 183.1 373.353 l 1
 188.821 404.107 189.538 424.135 184.531 434.862 c 0
 183.814 437.009 180.239 438.438 174.518 439.154 c 0
 168.795 440.584 163.073 440.584 158.066 440.584 c 0
 142.332 440.584 131.604 439.869 125.881 437.724 c 1
 128.742 457.035 l 1
 141.616 459.181 153.774 462.042 165.934 465.617 c 0
 178.809 469.909 187.392 472.771 193.113 474.916 c 0
 208.134 479.206 223.868 484.93 241.034 489.936 c 0
 258.2 495.657 274.65 500.664 291.816 507.101 c 1
 301.829 507.101 l 1
 281.088 416.267 l 1
 301.113 432.717 317.564 446.307 332.584 457.75 c 0
 346.888 469.193 359.762 477.776 370.492 483.498 c 0
 404.107 499.233 434.862 507.101 462.757 507.101 c 0
 547.154 507.101 577.909 451.312 555.021 341.167 c 1
 500.664 89.4043 l 1
 494.942 65.8018 495.657 47.2051 502.094 33.6162 c 1
 507.101 28.6094 513.538 25.0332 520.691 22.8877 c 0
 527.844 20.0264 537.857 17.8809 550.731 14.3047 c 1
 547.869 0 l 1
EndSplineSet
Fore
SplineSet
101 398 m 1xd0
 104 415 l 1xd0
 161 431 199 442 252 460 c 1
 259 458 l 1
 242 379 l 1
 322 442 359 460 404 460 c 0
 463 460 495 425 495 362 c 0
 495 346 494 330 489 311 c 1
 441 81 l 2
 438 69 438 60 438 53 c 0
 438 28 451 19 488 15 c 1
 485 0 l 1
 277 0 l 1
 280 15 l 1
 331 19 347 37 360 100 c 2
 406 308 l 2
 409 322 410 335 410 347 c 0
 410 387 391 406 353 406 c 0xb0
 321 406 296 393 239 349 c 1
 179 67 l 2
 177 60 176 54 176 50 c 0
 176 26 192 18 233 15 c 1
 230 0 l 1
 18 0 l 1
 21 15 l 1
 73 19 88 34 100 89 c 2
 152 338 l 2
 155 352 157 363 157 372 c 0
 157 394 148 401 127 401 c 0
 117 401 107 401 101 398 c 1xd0
EndSplineSet
EndChar

StartChar: o
Encoding: 111 111 80
Width: 499
Flags: W
HStem: -10 28<217.515 319.616> 432 28<274.875 377.943>
VStem: 72 95<75.0241 279.919> 432 94<182.276 376.566>
LayerCount: 2
Back
SplineSet
97.9873 250.331 m 0
 91.5498 215.286 90.1191 182.385 95.126 150.914 c 0
 100.133 119.444 110.861 92.2656 126.597 68.6621 c 0
 143.047 45.0596 164.504 27.1787 190.968 12.874 c 0
 218.146 -0.714844 249.616 -7.15234 285.378 -7.15234 c 0
 321.856 -7.15234 356.187 -0.714844 389.088 12.874 c 0
 421.273 27.1787 451.312 45.0596 477.776 68.6621 c 0
 504.24 92.2656 526.412 119.444 545.725 150.914 c 0
 565.035 182.385 577.909 215.286 584.347 250.331 c 0
 592.214 285.378 593.644 318.994 587.923 349.75 c 0
 582.916 381.22 571.473 408.399 555.021 432.002 c 0
 538.572 455.604 517.114 474.199 489.937 487.79 c 0
 463.472 501.379 431.287 508.531 395.525 508.531 c 0
 359.048 508.531 325.432 501.379 293.246 487.79 c 0
 261.062 474.199 231.735 455.604 205.272 432.002 c 0
 178.809 408.399 155.921 381.22 138.04 349.75 c 0
 119.444 318.994 105.854 285.378 97.9873 250.331 c 0
195.975 248.901 m 0
 203.127 280.371 212.426 309.697 223.868 337.591 c 0
 236.027 365.485 249.616 389.803 266.067 409.829 c 0
 281.803 430.57 300.398 447.021 321.14 459.181 c 0
 341.167 471.339 364.054 477.776 388.373 477.776 c 0
 413.406 477.776 434.147 471.339 449.883 459.181 c 0
 465.617 447.021 477.062 430.57 484.213 409.829 c 0
 491.365 389.803 494.942 365.485 494.227 337.591 c 0
 494.227 309.697 489.936 280.371 483.498 248.901 c 0
 476.346 217.432 467.764 188.106 456.319 160.213 c 0
 444.876 132.318 431.287 108 416.267 87.2588 c 0
 400.532 66.5166 381.935 49.3516 361.193 37.1924 c 0
 339.737 25.0332 316.85 19.3115 291.816 19.3115 c 0
 266.782 19.3115 247.471 25.0332 232.45 37.1924 c 0
 216.716 49.3516 205.272 66.5166 197.405 87.2588 c 0
 190.253 108 185.961 132.318 185.961 159.498 c 0
 185.961 188.106 189.538 217.432 195.975 248.901 c 0
EndSplineSet
Fore
SplineSet
72 167 m 0
 72 338 207 460 349 460 c 0
 457 460 526 390 526 289 c 0
 526 122 379 -10 246 -10 c 0
 139 -10 72 63 72 167 c 0
265 18 m 0
 391 18 432 199 432 284 c 0
 432 374 394 432 330 432 c 0
 227 432 167 318 167 176 c 0
 167 92 190 18 265 18 c 0
EndSplineSet
EndChar

StartChar: p
Encoding: 112 112 81
Width: 499
Flags: W
HStem: -217 18<-38 9.52646 142.781 202> -10 32<212.824 322.344> 393 16<95 116.58> 400 60<316.202 441.887>
VStem: 437 93<198.586 363.858>
DStem2: 28.5076 -217 113.445 -217 0.207912 0.978148<76.0855 274.309 298.711 598.248>
LayerCount: 2
Back
SplineSet
163.788 -125.881 m 1
 199.55 37.9072 l 1
 226.729 7.86719 261.062 -7.15234 301.829 -7.15234 c 0
 339.021 -7.15234 373.353 0.714844 405.537 16.4502 c 0
 437.724 31.4707 466.332 52.2119 491.365 78.6758 c 0
 516.399 104.424 537.857 133.749 555.021 167.365 c 0
 572.902 201.695 585.062 236.027 591.499 271.074 c 0
 597.936 298.969 600.082 327.577 599.367 356.187 c 0
 597.936 384.081 592.214 409.829 582.201 432.002 c 0
 572.188 454.89 557.167 472.771 537.857 487.075 c 0
 517.83 501.379 492.797 508.531 461.325 508.531 c 0
 396.955 508.531 336.875 480.638 281.088 424.85 c 1
 294.677 508.531 l 1
 123.021 452.743 l 1
 118.729 434.862 l 1
 153.774 436.294 l 2
 172.372 436.294 182.385 430.57 183.1 419.128 c 0
 185.246 411.26 183.1 395.525 177.379 371.922 c 1
 68.6621 -134.464 l 1
 63.6562 -160.213 55.0732 -178.094 42.1992 -188.106 c 0
 30.04 -198.835 8.58301 -203.842 -20.7422 -203.842 c 1
 -23.6025 -221.008 l 1
 238.889 -221.008 l 1
 243.181 -200.98 l 1
 203.842 -200.98 180.239 -195.975 171.657 -187.392 c 0
 158.781 -177.379 155.921 -157.352 163.788 -125.881 c 1
490.65 236.027 m 0
 479.206 179.524 459.896 133.033 433.432 96.5566 c 0
 400.532 48.6357 359.048 25.0332 310.412 25.0332 c 0
 286.81 25.0332 265.352 31.4707 244.61 45.0596 c 1
 217.432 60.0801 205.987 77.9609 210.994 97.9873 c 1
 269.644 370.492 l 1
 274.65 380.505 281.088 389.803 290.385 398.386 c 0
 298.969 406.969 308.982 414.836 321.14 421.273 c 0
 332.584 427.71 344.743 432.717 357.618 436.294 c 0
 369.775 440.584 382.649 442.015 394.094 442.015 c 0
 419.128 442.015 439.869 436.294 454.89 423.418 c 0
 469.909 410.544 481.353 394.094 488.505 374.067 c 0
 495.657 354.041 499.233 331.868 498.519 307.551 c 0
 498.519 283.232 495.657 258.915 490.65 236.027 c 0
EndSplineSet
Fore
SplineSet
530 309 m 0xd8
 530 167 410 -10 259 -10 c 0
 217 -10 193 0 167 34 c 1
 133 -125 l 2
 130 -139 129 -152 129 -161 c 0
 129 -192 146 -198 205 -199 c 1
 202 -217 l 1
 -41 -217 l 1
 -38 -201 l 1
 23 -193 35 -183 47 -130 c 2
 146 337 l 2
 149 350 151 360 151 369 c 0
 151 388 141 394 117 394 c 0
 108 394 101 394 92 393 c 1
 95 409 l 1xe8
 155 426 193 439 250 460 c 1
 258 458 l 1
 240 381 l 1
 296 435 346 460 401 460 c 0
 480 460 530 400 530 309 c 0xd8
268 22 m 0
 377 22 437 181 437 280 c 0
 437 354 404 400 346 400 c 0xd8
 300 400 237 365 230 334 c 2
 179 83 l 1
 179 54 223 22 268 22 c 0
EndSplineSet
EndChar

StartChar: q
Encoding: 113 113 82
Width: 499
Flags: W
HStem: -217 13<209 237.143 423.624 442> -10 61<144 275.416> 434 27<283.703 392.578>
VStem: 60 94<87.3941 257.568>
DStem2: 295.445 -217 378.846 -217 0.207912 0.978148<70.0301 287.034 295.951 596.777>
LayerCount: 2
Back
SplineSet
502.094 -234.597 m 1
 507.101 -216.716 l 1
 462.042 -208.134 442.729 -186.676 449.883 -153.774 c 2
 588.638 505.671 l 1
 587.208 508.531 l 1
 581.486 507.101 l 1
 511.393 468.479 l 1
 469.909 494.942 431.287 508.531 395.525 508.531 c 0
 357.618 508.531 321.856 500.664 288.239 486.359 c 0
 255.338 471.339 225.3 451.312 198.835 426.28 c 0
 171.657 400.532 148.768 371.922 130.173 339.021 c 0
 111.576 306.12 98.7021 271.789 90.835 234.597 c 0
 83.6826 203.842 80.8213 174.518 81.5371 145.192 c 0
 81.5371 115.868 86.543 90.1191 95.8418 67.2324 c 0
 105.14 45.0596 120.159 27.1787 140.901 12.874 c 0
 160.928 -0.714844 188.106 -7.15234 221.008 -7.15234 c 0
 234.597 -7.15234 251.048 -5.72168 270.358 -1.43066 c 0
 288.955 2.14551 306.836 8.58301 324.001 16.4502 c 2
 370.492 42.1992 l 1
 405.537 68.6621 l 1
 363.339 -130.173 l 1
 357.618 -159.498 344.743 -180.954 325.432 -193.828 c 0
 305.405 -207.419 278.941 -213.854 244.61 -213.854 c 1
 240.318 -234.597 l 1
 502.094 -234.597 l 1
421.988 142.332 m 1
 404.107 99.418 l 1
 379.074 71.5234 340.452 57.2188 288.239 57.2188 c 0
 263.207 57.2188 243.181 63.6562 227.444 75.8145 c 0
 212.426 88.6895 201.695 105.14 194.543 125.881 c 0
 188.106 146.624 184.531 168.795 184.531 193.113 c 0
 184.531 217.432 186.676 241.749 191.683 265.352 c 0
 197.405 290.385 205.987 315.418 216.001 340.452 c 0
 226.015 365.485 239.604 388.373 254.623 408.399 c 0
 270.358 429.141 288.955 445.591 310.412 458.465 c 0
 331.868 471.339 356.187 477.776 384.081 477.776 c 0
 456.319 477.776 484.93 441.301 469.909 369.061 c 1
 421.988 142.332 l 1
EndSplineSet
Fore
SplineSet
60 138 m 0
 60 319 205 461 343 461 c 0
 382 461 410 453 451 425 c 1
 511 457 l 1
 521 457 l 1
 395 -141 l 2
 393 -151 391 -160 391 -166 c 0
 391 -187 406 -193 444 -204 c 1
 442 -217 l 1
 207 -217 l 1
 209 -201 l 1
 283 -195 303 -180 315 -125 c 2
 354 64 l 1
 300 16 240 -10 183 -10 c 0
 105 -10 60 48 60 138 c 0
340 434 m 0
 219 434 154 287 154 176 c 0
 154 101 182 51 252 51 c 0
 283 51 318 63 344 82 c 1
 356 89 363 103 368 127 c 2
 412 333 l 2
 415 346 416 357 416 368 c 0
 416 412 391 434 340 434 c 0
EndSplineSet
EndChar

StartChar: r
Encoding: 114 114 83
Width: 332
Flags: W
HStem: 0 15<7 43.6712 201.295 245> 390 16<94 119.271> 397 63<301.714 398.635>
DStem2: 76.3578 0 160.082 0 0.207912 0.978148<79.4028 375.062>
LayerCount: 2
Back
SplineSet
483.498 449.883 m 0
 479.206 433.432 472.771 420.558 462.757 412.689 c 0
 453.458 404.107 442.015 399.815 430.57 399.815 c 0
 422.703 399.815 416.267 401.962 409.829 406.254 c 0
 404.107 410.544 399.101 415.551 394.094 420.558 c 0
 389.088 425.564 384.796 429.855 379.789 434.147 c 0
 375.499 438.438 370.492 440.584 364.769 440.584 c 0
 348.319 440.584 328.292 429.855 306.12 406.969 c 0
 295.392 395.525 286.81 384.796 280.371 375.498 c 0
 273.936 366.2 270.358 357.618 268.212 348.319 c 2
 215.286 100.848 l 1
 201.695 43.6289 226.729 14.3047 290.385 14.3047 c 1
 286.81 0 l 1
 22.1719 0 l 1
 25.0332 14.3047 l 1
 41.4834 18.5957 55.7881 22.1719 67.2324 25.0332 c 0
 79.3906 27.8945 87.2588 30.7549 92.2656 33.6162 c 0
 97.2715 36.4766 102.278 43.6289 108 55.7881 c 0
 113.007 67.2324 117.299 80.1064 120.159 93.6953 c 2
 178.809 370.492 l 2
 183.814 393.379 183.814 409.829 180.239 421.988 c 0
 175.947 433.432 168.08 438.438 155.206 436.294 c 2
 117.299 432.002 l 1
 120.159 449.883 l 1
 195.26 474.199 253.908 493.512 296.106 508.531 c 1
 301.829 508.531 l 1
 279.656 408.399 l 1
 338.306 474.916 390.519 508.531 436.294 508.531 c 0
 476.346 508.531 492.082 488.505 483.498 449.883 c 0
EndSplineSet
Fore
SplineSet
374 362 m 0xa0
 342 362 334 397 315 397 c 0xa0
 289 397 233 347 227 315 c 2
 179 89 l 2
 176 78 174 69 174 60 c 0
 174 28 195 18 248 15 c 1
 245 0 l 1
 4 0 l 1
 7 15 l 1
 75 26 83 34 94 83 c 2
 146 334 l 2
 149 347 151 359 151 368 c 0
 151 387 144 394 126 394 c 0
 113 394 104 393 91 390 c 1
 94 406 l 1xc0
 157 425 196 438 253 460 c 1
 258 458 l 1
 237 366 l 1
 302 437 337 460 378 460 c 0
 407 460 423 445 423 420 c 0
 423 385 400 362 374 362 c 0xa0
EndSplineSet
EndChar

StartChar: s
Encoding: 115 115 84
Width: 388
Flags: W
HStem: -10 22<149.411 247.871> 430 20G<391.5 406> 437 21<239.056 325.533>
VStem: 85 15<120.142 152> 120 70<287.712 380.557> 297 79<72.3691 147.37> 366 15<313 351.17>
DStem2: 221 302 209 192 0.816722 -0.577032<-53.0656 175.774>
LayerCount: 2
Back
SplineSet
408.399 131.604 m 0
 399.101 87.9736 376.213 53.6426 339.737 29.3242 c 0
 303.976 5.00684 263.207 -7.15234 218.146 -7.15234 c 0
 203.842 -7.15234 180.954 -4.29102 149.484 1.43066 c 2
 95.126 11.4434 l 2
 86.543 11.4434 77.2451 7.86719 67.2324 0 c 1
 52.9277 0 l 1
 89.4043 170.226 l 1
 110.146 170.226 l 1
 107.285 145.192 107.285 126.597 111.576 113.007 c 1
 121.59 67.2324 l 1
 128.742 48.6357 140.186 35.0469 155.921 26.4639 c 0
 172.372 17.8809 191.683 12.874 215.286 12.874 c 0
 276.081 12.874 311.843 40.0527 324.001 93.6953 c 0
 329.724 125.166 316.133 152.345 283.948 175.947 c 2
 178.809 247.471 l 1
 149.484 278.226 l 2
 128.742 298.969 123.021 330.438 131.604 373.353 c 0
 136.609 394.094 145.192 412.689 157.352 429.141 c 0
 169.511 445.591 183.814 459.896 200.98 471.339 c 0
 217.432 483.498 235.312 492.082 255.338 498.519 c 0
 275.365 504.956 296.106 508.531 316.133 508.531 c 0
 336.16 508.531 349.034 507.101 356.901 504.956 c 0
 364.054 502.094 369.775 499.949 374.782 497.804 c 2
 411.26 484.93 l 1
 419.128 484.93 426.995 489.936 433.432 499.233 c 1
 447.021 499.233 l 1
 421.988 348.319 l 1
 402.677 348.319 l 1
 400.532 438.438 369.061 483.498 307.551 483.498 c 0
 256.77 483.498 223.868 459.181 208.134 409.829 c 1
 200.98 376.928 211.709 351.18 238.889 332.584 c 2
 344.027 262.49 l 2
 372.638 242.464 391.233 225.3 399.815 210.994 c 0
 412.689 189.538 415.551 163.073 408.399 131.604 c 0
EndSplineSet
Fore
SplineSet
100 152 m 1xbc
 101 101 100 12 198 12 c 0
 252 12 297 42 297 100 c 0
 297 125 284 144 259 160 c 2
 209 192 l 2
 146 233 120 267 120 309 c 0
 120 378 181 458 286 458 c 0xbc
 355 458 354 439 378 439 c 0
 382 439 388 444 395 450 c 1
 406 450 l 1
 381 313 l 1
 366 313 l 1xda
 362 403 340 437 283 437 c 0
 221 437 190 392 190 353 c 0
 190 333 201 313 221 302 c 1
 313 237 l 2
 357 207 376 180 376 144 c 0
 376 55 285 -10 205 -10 c 0
 180 -10 114 7 89 7 c 0
 78 7 73 6 63 -4 c 1
 51 -4 l 1
 85 152 l 1
 100 152 l 1xbc
EndSplineSet
EndChar

StartChar: t
Encoding: 116 116 85
Width: 276
Flags: W
HStem: -10 52<134.5 231.809> 417 33<108.408 155.104 249 344>
VStem: 89 87<45.4959 188.602>
DStem2: 68.0053 -10 151.817 -10 0.207912 0.978148<116.909 436.796>
LayerCount: 2
Back
SplineSet
331.153 72.9541 m 1
 314.703 50.7812 291.816 31.4707 263.922 16.4502 c 0
 235.312 0.714844 208.849 -7.15234 184.531 -7.15234 c 0
 119.444 -7.15234 95.8418 38.623 114.438 130.173 c 1
 184.531 461.325 l 1
 124.451 461.325 l 1
 121.59 469.909 l 1
 142.332 484.213 162.358 498.519 183.1 514.253 c 0
 205.272 532.851 226.015 551.446 244.61 571.473 c 0
 263.207 590.783 283.948 613.671 307.551 640.135 c 1
 310.412 623.684 l 1
 282.518 497.804 l 1
 395.525 497.804 l 1
 388.373 461.325 l 1
 275.365 461.325 l 1
 208.134 146.624 l 1
 194.543 80.1064 205.987 47.2051 243.181 47.2051 c 0
 266.782 47.2051 291.816 59.3643 318.994 85.1133 c 1
 331.153 72.9541 l 1
EndSplineSet
Fore
SplineSet
350 450 m 1
 344 417 l 1
 243 417 l 1
 182 132 l 1
 177 114 176 98 176 86 c 0
 176 56 187 42 215 42 c 0
 237 42 256 53 283 78 c 1
 293 66 l 1
 249 15 207 -10 158 -10 c 0
 111 -10 89 16 89 66 c 0
 89 81 91 98 95 117 c 2
 160 417 l 1
 107 417 l 1
 104 420 104 421 104 425 c 0
 104 431 111 437 123 444 c 1
 142 448 230 532 270 579 c 1
 274 579 275 577 275 573 c 0
 275 571 275 568 274 565 c 2
 249 450 l 1
 350 450 l 1
EndSplineSet
EndChar

StartChar: u
Encoding: 117 117 86
Width: 499
Flags: W
HStem: -10 58<159.5 266.549> 37 13<464.133 486> 437 13<104 132.397 354 382.743>
VStem: 92 88<60.2221 150.947>
DStem2: 67.3676 -10 153.305 -10 0.207912 0.978148<139.069 416.358> 335.72 -10 416.131 -10 0.207912 0.978148<108.435 415.2>
LayerCount: 2
Back
SplineSet
553.592 39.3379 m 1
 547.869 38.623 539.287 37.1924 527.127 34.3311 c 0
 515.685 32.1855 500.664 27.8945 483.498 22.1719 c 2
 389.803 -5.72168 l 1
 406.969 85.1133 l 1
 348.319 36.4766 l 2
 310.412 7.15234 269.644 -7.15234 225.3 -7.15234 c 0
 195.26 -7.15234 168.795 0.714844 145.192 16.4502 c 1
 119.444 46.4902 111.576 85.1133 121.59 133.033 c 1
 181.669 411.26 l 1
 187.392 442.015 183.814 461.325 171.657 469.909 c 1
 165.219 479.206 151.63 483.498 128.742 483.498 c 1
 131.604 497.804 l 1
 291.816 497.804 l 1
 215.286 139.471 l 1
 211.709 114.438 214.569 94.4111 225.3 79.3906 c 0
 227.444 74.3848 230.306 70.8086 234.597 67.9473 c 0
 238.174 65.8018 242.464 62.9404 247.471 60.0801 c 1
 282.518 55.7881 l 1
 316.133 55.7881 350.465 68.6621 386.941 93.6953 c 1
 399.101 100.848 408.399 118.729 414.836 148.053 c 1
 471.339 409.829 l 1
 477.776 439.154 475.631 458.465 465.617 466.332 c 0
 456.319 474.916 435.577 479.206 404.107 479.206 c 1
 406.969 497.804 l 1
 582.916 497.804 l 1
 502.094 120.159 l 1
 497.804 92.9805 498.519 75.0996 504.956 67.9473 c 0
 510.678 60.7949 528.559 57.2188 556.452 57.2188 c 1
 553.592 39.3379 l 1
EndSplineSet
Fore
SplineSet
489 50 m 1x70
 486 37 l 1x70
 432 22 395 12 341 -9 c 1
 337 -7 l 1
 354 76 l 1
 312 42 258 -10 190 -10 c 0
 129 -10 92 26 92 86 c 0
 92 97 92 108 95 120 c 2
 149 372 l 2
 152 382 152 391 152 398 c 0
 152 425 138 434 101 437 c 1
 104 450 l 1
 250 450 l 1
 182 125 l 2
 180 119 180 113 180 108 c 0
 180 73 204 48 236 48 c 0xb0
 267 48 300 60 331 82 c 1
 347 92 356 107 362 135 c 2
 412 371 l 2
 415 381 415 390 415 398 c 0
 415 425 398 431 352 434 c 1
 354 450 l 1
 513 450 l 1
 441 107 l 2
 438 95 437 86 437 79 c 0
 437 55 450 50 489 50 c 1x70
EndSplineSet
EndChar

StartChar: v
Encoding: 118 118 87
Width: 499
Flags: W
HStem: -15 21G<248 256> 435 15<114 139.549 271.744 308 434 460.296 543.046 570>
DStem2: 258 371 177 319 0.20601 -0.97855<-24.1921 261.17> 305 114 291 37 0.524246 0.851567<0 339.25>
LayerCount: 2
Back
SplineSet
617.963 480.638 m 1
 598.65 480.638 580.77 469.909 563.605 449.883 c 0
 556.452 439.869 550.015 430.57 545.725 422.703 c 0
 541.433 414.121 534.995 404.822 527.127 394.094 c 1
 311.843 40.7686 l 1
 278.226 -2.86133 l 1
 271.074 -10.0137 l 1
 262.49 1.43066 l 1
 250.331 36.4766 l 1
 165.219 439.154 l 1
 152.345 462.757 l 2
 144.478 474.916 131.604 480.638 113.007 480.638 c 1
 115.868 497.804 l 1
 331.153 497.804 l 1
 328.292 480.638 l 1
 294.677 477.776 276.081 466.332 271.074 447.021 c 0
 270.358 442.015 269.644 436.294 270.358 430.57 c 0
 271.074 424.85 271.789 417.696 272.504 408.399 c 1
 324.001 127.312 l 1
 434.862 310.412 l 2
 456.319 345.458 472.771 373.353 483.498 393.379 c 0
 494.227 413.406 502.094 429.855 507.101 444.161 c 2
 508.531 449.883 l 2
 509.963 459.181 507.101 467.049 499.233 472.056 c 0
 491.365 477.776 479.923 480.638 464.188 480.638 c 1
 467.049 497.804 l 1
 620.823 497.804 l 1
 617.963 480.638 l 1
EndSplineSet
Fore
SplineSet
573 450 m 1
 570 435 l 1
 539 432 532 425 488 357 c 1
 291 37 l 1
 270 -1 259 -15 253 -15 c 0
 243 -15 239 24 237 34 c 2
 177 319 l 1
 154 423 149 434 111 435 c 1
 114 450 l 1
 311 450 l 1
 308 435 l 1
 282 433 253 429 253 395 c 0
 253 388 257 379 258 371 c 2
 305 114 l 1
 458 374 l 2
 467 390 472 401 472 410 c 0
 472 425 458 432 431 435 c 1
 434 450 l 1
 573 450 l 1
EndSplineSet
EndChar

StartChar: w
Encoding: 119 119 88
Width: 720
Flags: W
HStem: -15 21G<228.5 234 481.5 488> 435 15<116 132.916 261.155 293 357 381.923 521.173 557 666 687.889>
DStem2: 240 372 154 372 0.175095 -0.984551<-12.7889 264.672> 284 111 267 25 0.557093 0.83045<0 208.111> 495 340 428 265 0.175285 -0.984518<-44.7238 14.0842 62.0947 227.193> 533 116 523 35 0.520651 0.853769<0 338.386>
LayerCount: 2
Back
SplineSet
853.99 480.638 m 1
 837.539 477.776 817.512 457.75 795.341 421.988 c 2
 562.174 39.3379 l 1
 532.851 1.43066 l 1
 521.406 -10.0137 l 1
 515.685 -10.0137 509.963 4.29102 504.24 33.6162 c 1
 459.896 293.246 l 1
 278.226 29.3242 l 1
 270.358 14.3047 262.49 5.00684 253.193 0 c 1
 244.61 -10.0137 l 1
 233.167 5.72168 226.015 20.7422 223.868 35.0469 c 1
 143.762 457.035 l 1
 141.616 471.339 131.604 479.206 113.007 480.638 c 1
 115.868 497.804 l 1
 313.272 497.804 l 1
 310.412 480.638 l 1
 275.365 477.776 254.623 465.617 248.901 444.161 c 0
 248.187 434.862 253.193 394.809 265.352 324.001 c 1
 298.969 124.451 l 1
 447.021 344.027 l 1
 434.862 416.267 l 1
 423.418 457.035 l 1
 415.551 467.764 399.815 475.631 376.213 480.638 c 1
 379.074 497.804 l 1
 603.657 497.804 l 1
 600.797 480.638 l 1
 553.592 469.909 l 1
 540.001 464.188 531.419 454.175 528.559 439.154 c 0
 527.844 435.577 529.988 411.26 536.426 366.2 c 1
 574.333 128.742 l 1
 726.679 373.353 l 2
 732.4 382.649 738.838 394.094 744.56 407.684 c 0
 750.996 421.988 755.287 434.147 757.434 444.161 c 0
 761.009 459.181 748.85 471.339 719.525 480.638 c 1
 722.387 497.804 l 1
 856.851 497.804 l 1
 853.99 480.638 l 1
EndSplineSet
Fore
SplineSet
666 450 m 1
 790 450 l 1
 787 435 l 1
 765 428 760 423 734 381 c 2
 523 35 l 1
 498 -4 491 -15 485 -15 c 0
 478 -15 476 -7 469 29 c 2
 428 265 l 1
 267 25 l 1
 248 -1 237 -15 231 -15 c 0
 226 -15 221 0 215 29 c 2
 154 372 l 1
 142 423 136 434 113 435 c 1
 116 450 l 1
 296 450 l 1
 293 435 l 1
 252 429 239 422 239 385 c 0
 239 381 239 376 240 372 c 2
 284 111 l 1
 417 311 l 1
 416 328 412 347 409 366 c 0
 400 420 390 431 354 435 c 1
 357 450 l 1
 560 450 l 1
 557 435 l 1
 504 428 491 417 491 385 c 0
 491 379 492 368 495 340 c 1
 533 116 l 1
 669 338 l 1
 689 368 702 395 702 410 c 0
 702 422 691 429 664 435 c 1
 666 450 l 1
EndSplineSet
EndChar

StartChar: x
Encoding: 120 120 89
Width: 499
Flags: W
HStem: 0 15<21 52.8603 131.248 163 281 315.966 452.082 479> 435 15<119 154.281 285.25 324 371 398.781 491.236 526>
DStem2: 104 66 158 75 0.659178 0.751987<-11.0326 204.731 316.834 460.534> 312 305 189 375 0.390773 -0.920487<-109.465 0 37.1582 45.0605 79.735 245.935>
LayerCount: 2
Back
SplineSet
531.419 0 m 1
 308.982 0 l 1
 311.843 14.3047 l 1
 342.598 20.7422 l 2
 352.611 23.6025 359.048 31.4707 361.908 45.0596 c 0
 362.624 49.3516 362.624 54.3574 360.479 60.0801 c 0
 358.333 65.8018 356.187 72.9541 353.326 80.8213 c 2
 291.816 216.716 l 1
 175.947 82.252 l 2
 158.066 61.5098 147.338 45.7754 143.762 35.0469 c 0
 141.616 21.457 154.491 14.3047 183.1 14.3047 c 1
 180.239 0 l 1
 20.7422 0 l 1
 23.6025 14.3047 l 1
 45.0596 18.5957 58.6494 22.8877 64.3711 27.8945 c 0
 72.2383 31.4707 80.8213 37.9072 89.4043 45.0596 c 0
 97.9873 52.9277 108 62.2256 118.729 72.9541 c 2
 282.518 256.055 l 1
 212.426 414.836 l 2
 207.419 426.28 201.695 437.009 195.26 447.021 c 0
 189.538 456.319 182.385 465.617 174.518 474.916 c 1
 131.604 480.638 l 1
 134.464 497.804 l 1
 363.339 497.804 l 1
 360.479 480.638 l 1
 329.007 480.638 311.843 472.056 307.551 455.604 c 0
 304.69 444.876 318.279 405.537 348.319 336.875 c 1
 409.829 406.254 442.729 445.591 447.021 455.604 c 0
 450.598 472.056 437.724 480.638 408.399 480.638 c 1
 411.26 497.804 l 1
 585.776 497.804 l 1
 582.916 480.638 l 1
 545.008 480.638 511.393 464.902 483.498 433.432 c 2
 363.339 300.398 l 1
 459.896 82.252 l 2
 478.491 40.7686 503.525 18.5957 534.995 14.3047 c 1
 531.419 0 l 1
EndSplineSet
Fore
SplineSet
278 0 m 1
 281 15 l 1
 311 18 327 21 327 44 c 0
 327 48 325 53 324 57 c 2
 264 198 l 1
 158 75 l 1
 128 37 129 38 129 29 c 0
 129 19 139 15 166 15 c 1
 163 0 l 1
 18 0 l 1
 21 15 l 1
 54 18 66 25 104 66 c 2
 253 231 l 1
 189 375 l 2
 161 438 146 435 116 435 c 1
 119 450 l 1
 327 450 l 1
 324 435 l 1
 286 434 275 425 275 409 c 0
 275 393 297 335 312 305 c 1
 330 324 346 343 353 349 c 0
 385 380 403 403 403 417 c 0
 403 429 394 434 368 435 c 1
 371 450 l 1
 529 450 l 1
 526 435 l 1
 494 434 460 417 435 391 c 1
 327 271 l 1
 413 75 l 1
 434 31 451 15 482 15 c 1
 479 0 l 1
 278 0 l 1
EndSplineSet
EndChar

StartChar: y
Encoding: 121 121 90
Width: 499
Flags: W
HStem: -218 85<26.47 126.386> 435 15<110 132.157 264.658 312 435 468.64 543.48 567>
DStem2: 312 117 151 404 0.237132 -0.971477<-283.955 -0.403637> 312 117 268 -18 0.511706 0.859161<0 339.868>
LayerCount: 2
Back
SplineSet
297.537 -19.3115 m 2
 565.75 432.002 l 1
 583.632 465.617 605.088 482.068 628.69 482.068 c 1
 631.552 497.804 l 1
 482.068 497.804 l 1
 479.206 482.068 l 1
 514.968 482.068 530.704 471.339 525.697 451.312 c 1
 346.888 128.742 l 1
 279.656 409.829 l 1
 273.936 424.135 271.789 437.009 273.936 449.883 c 0
 277.511 471.339 302.544 482.068 346.888 482.068 c 1
 349.75 497.804 l 1
 121.59 497.804 l 1
 118.729 483.498 l 1
 150.199 477.776 165.934 465.617 166.65 447.021 c 1
 272.504 22.1719 l 1
 273.219 20.0264 273.936 18.5957 273.219 17.8809 c 0
 272.504 16.4502 272.504 15.0195 272.504 12.874 c 1
 219.576 -70.0928 l 1
 183.814 -125.166 153.06 -152.345 127.312 -152.345 c 0
 118.014 -152.345 106.57 -148.768 94.4111 -141.616 c 0
 82.252 -133.749 67.9473 -130.173 51.4971 -130.173 c 0
 14.3047 -130.173 -7.15234 -147.338 -12.874 -181.669 c 0
 -23.6025 -225.3 -1.43066 -247.471 54.3574 -247.471 c 0
 126.597 -247.471 207.419 -171.657 297.537 -19.3115 c 2
EndSplineSet
Fore
SplineSet
123 -133 m 0
 167 -133 246 -1 246 26 c 0
 246 48 226 119 212 158 c 1
 151 404 l 1
 146 420 132 432 107 437 c 1
 110 450 l 1
 315 450 l 1
 312 435 l 1
 253 434 248 419 248 394 c 0
 248 387 249 378 250 371 c 2
 312 117 l 1
 467 393 l 1
 478 408 476 413 476 415 c 0
 476 428 461 435 432 435 c 1
 435 450 l 1
 570 450 l 1
 567 435 l 1
 543 432 529 422 511 390 c 2
 268 -18 l 1
 185 -163 125 -218 57 -218 c 0
 19 -218 -6 -199 -6 -170 c 0
 -6 -141 22 -116 48 -116 c 0
 87 -116 102 -133 123 -133 c 0
EndSplineSet
EndChar

StartChar: z
Encoding: 122 122 91
Width: 443
Flags: W
HStem: 0 29<139 362.604> 420 30<181.692 382>
DStem2: 29 15 139 29 0.659291 0.751888<83.0484 537.244>
LayerCount: 2
Back
SplineSet
479.206 146.624 m 1
 434.862 0 l 1
 17.8809 0 l 1
 20.7422 14.3047 l 1
 409.829 462.757 l 1
 254.623 462.757 l 2
 218.861 462.757 193.113 453.458 178.094 434.862 c 0
 163.073 416.267 151.63 393.379 143.762 366.2 c 1
 120.159 366.2 l 1
 152.345 497.804 l 1
 539.287 497.804 l 1
 536.426 480.638 l 1
 142.332 33.6162 l 1
 294.677 33.6162 l 2
 318.994 33.6162 339.737 35.7617 356.901 39.3379 c 0
 374.067 43.6289 388.373 50.0664 401.247 59.3643 c 0
 414.121 68.6621 424.85 80.8213 434.147 95.8418 c 0
 443.444 110.861 452.743 130.173 461.325 152.345 c 1
 479.206 146.624 l 1
EndSplineSet
Fore
SplineSet
447 135 m 1
 404 0 l 1
 26 0 l 1
 29 15 l 1
 382 420 l 1
 245 420 l 2
 185 420 167 406 141 333 c 1
 123 333 l 1
 151 450 l 1
 498 450 l 1
 495 435 l 1
 139 29 l 1
 278 29 l 2
 381 29 397 60 429 139 c 1
 447 135 l 1
EndSplineSet
EndChar

StartChar: braceleft
Encoding: 123 123 92
Width: 478
Flags: W
HStem: -182 12<295.924 312> 669 11<475.699 492>
VStem: 170 73<-146.25 -19.4884> 220 73<64 224.916>
DStem2: 146.03 -182 220.305 -182 0.207912 0.978148<108.792 367.938 489.811 837.222>
LayerCount: 2
Back
SplineSet
278.226 -183.1 m 1
 221.723 -183.1 182.385 -174.518 159.498 -156.637 c 0
 134.464 -135.18 127.312 -95.8418 139.471 -39.3379 c 2
 177.379 139.471 l 2
 185.246 174.518 184.531 200.266 175.947 217.432 c 0
 166.65 234.597 146.624 247.471 115.868 256.055 c 1
 150.199 265.352 175.232 278.226 190.968 295.392 c 0
 207.419 312.558 219.576 337.591 226.729 371.922 c 1
 266.782 555.021 l 2
 278.226 610.81 301.113 649.433 335.445 670.891 c 0
 364.769 688.771 408.399 697.354 465.617 697.354 c 1
 462.757 685.194 l 1
 425.563 678.043 398.386 664.452 380.505 645.142 c 0
 363.339 626.545 350.465 597.936 342.598 559.313 c 2
 306.12 388.373 l 1
 298.969 349.75 286.81 319.71 269.644 297.537 c 1
 253.908 281.088 226.015 266.782 185.961 256.055 c 1
 203.842 250.331 217.432 243.896 228.16 237.457 c 0
 239.604 230.306 246.756 222.438 251.763 212.426 c 0
 256.77 202.412 258.915 190.968 258.2 176.662 c 0
 258.2 162.358 255.338 145.192 250.331 124.451 c 1
 213.854 -45.0596 l 2
 205.987 -82.252 206.702 -110.146 216.716 -128.742 c 0
 226.729 -147.338 248.187 -161.644 281.088 -171.657 c 1
 278.226 -183.1 l 1
EndSplineSet
Fore
SplineSet
313 -170 m 1xe0
 312 -182 l 1
 218 -180 170 -166 170 -89 c 0xe0
 170 -75 171 -59 176 -41 c 1
 214 136 l 2
 217 152 220 167 220 179 c 0
 220 217 201 234 152 250 c 1
 224 270 248 293 262 363 c 2
 299 541 l 1
 312 598 335 637 368 655 c 0
 401 674 429 680 495 680 c 1
 492 669 l 1
 419 650 391 621 375 546 c 2
 340 378 l 2
 322 294 297 270 218 249 c 1
 271 234 293 217 293 173 c 0xd0
 293 160 290 142 286 122 c 2
 249 -47 l 2
 245 -64 243 -79 243 -92 c 0
 243 -135 264 -157 313 -170 c 1xe0
EndSplineSet
EndChar

StartChar: bar
Encoding: 124 124 93
Width: 199
Flags: W
HStem: -15 21G<64 134.249> 657 20G<206.751 277>
VStem: 64 213
DStem2: 64 -15 130 -15 0.207912 0.978148<13.7222 707.441>
LayerCount: 2
Back
SplineSet
103.709 -177.379 m 1
 52.9277 -177.379 l 1
 238.889 693.062 l 1
 290.385 693.062 l 1
 103.709 -177.379 l 1
EndSplineSet
Fore
SplineSet
64 -15 m 1
 211 677 l 1
 277 677 l 1
 130 -15 l 1
 64 -15 l 1
EndSplineSet
EndChar

StartChar: braceright
Encoding: 125 125 94
Width: 478
Flags: W
HStem: -182 12<94 113.372> 669 11<275 287.376>
VStem: 294 72<273.5 438.234> 343 72<517.317 644.402>
DStem2: 182.305 -182 256.242 -182 0.207912 0.978148<60.1893 407.563 528.886 789.899>
LayerCount: 2
Back
SplineSet
348.319 256.055 m 1
 314.703 247.471 288.955 234.597 272.504 216.716 c 0
 256.055 199.55 243.896 173.087 236.027 139.471 c 1
 197.405 -39.3379 l 2
 185.961 -95.126 163.073 -134.464 128.742 -156.637 c 0
 101.563 -174.518 57.9336 -183.1 -1.43066 -183.1 c 1
 1.43066 -171.657 l 1
 67.2324 -155.921 107.285 -113.723 121.59 -45.0596 c 2
 158.066 124.451 l 2
 166.65 163.788 178.094 191.683 191.683 209.563 c 0
 207.419 230.306 236.027 245.324 278.226 254.623 c 1
 243.181 265.352 221.723 280.371 213.14 298.969 c 0
 204.557 317.564 205.272 346.888 213.854 388.373 c 2
 250.331 559.313 l 2
 258.2 596.506 257.484 624.4 248.187 643.711 c 0
 238.889 663.022 217.432 676.611 183.1 685.194 c 1
 185.961 697.354 l 1
 245.324 697.354 285.378 688.771 306.12 670.891 c 0
 330.438 649.433 336.16 610.095 324.001 553.592 c 1
 285.378 371.922 l 1
 271.789 311.843 293.246 273.219 348.319 256.055 c 1
EndSplineSet
Fore
SplineSet
272 669 m 1xd0
 275 680 l 1
 372 680 415 662 415 589 c 0xd0
 415 574 413 558 409 541 c 2
 372 363 l 2
 369 346 366 333 366 319 c 0
 366 281 385 265 432 250 c 1
 362 229 338 207 324 136 c 1
 286 -42 l 2
 260 -167 189 -179 92 -182 c 1
 94 -170 l 1
 167 -152 195 -122 211 -47 c 2
 248 122 l 2
 265 204 289 230 368 250 c 1
 315 265 294 283 294 324 c 0xe0
 294 338 297 356 302 378 c 2
 337 546 l 2
 341 564 343 579 343 592 c 0
 343 634 322 655 272 669 c 1xd0
EndSplineSet
EndChar

StartChar: asciitilde
Encoding: 126 126 95
Width: 540
Flags: W
HStem: 186 66<358.696 483.861> 253 66<164.959 292.646>
LayerCount: 2
Back
SplineSet
606.518 279.656 m 1
 568.612 241.749 l 1
 542.147 219.576 l 2
 519.26 200.98 492.082 191.683 459.896 191.683 c 0
 438.438 191.683 404.107 203.127 357.618 225.3 c 0
 313.272 248.901 278.226 261.062 251.763 261.062 c 0
 218.861 261.062 184.531 236.027 149.484 187.392 c 1
 124.451 238.889 l 1
 167.365 297.537 216.001 326.863 269.644 326.863 c 0
 293.246 326.863 328.292 315.418 374.782 293.246 c 0
 419.128 271.789 452.028 259.63 474.916 257.484 c 0
 504.24 257.484 539.287 282.518 580.055 331.153 c 1
 606.518 279.656 l 1
EndSplineSet
Fore
SplineSet
230 319 m 0
 328 319 355 252 428 252 c 0
 460 252 478 264 513 303 c 1
 560 271 l 1
 499 207 464 186 419 186 c 0
 322 186 300 253 223 253 c 0
 192 253 171 242 138 204 c 1
 89 234 l 1
 149 299 185 319 230 319 c 0
EndSplineSet
EndChar

StartChar: uni0E10.descless
Encoding: 63232 63232 96
Width: 521
Flags: W
HStem: 0 21G<283 363.221> 155 28<164.41 215.932> 289 33<181.248 260> 409 30<170.562 267.195> 463 42<419.168 505.81> 499 65<227.012 368.443> 537 20G<525.5 565>
VStem: 133 27<186.796 262.651> 236 29<204.613 271.571> 347 76<238.204 362.669>
LayerCount: 2
Back
SplineSet
420.558 288.239 m 1
 429.141 339.021 411.975 379.074 369.061 406.969 c 0
 333.299 428.425 286.093 439.154 228.16 439.154 c 0
 210.994 439.154 198.12 439.154 190.253 438.438 c 0
 182.385 438.438 175.947 437.724 170.226 436.294 c 1
 193.113 478.491 233.167 499.233 288.239 499.233 c 0
 297.537 499.233 308.266 497.087 321.14 492.797 c 0
 333.299 488.505 348.319 484.213 364.769 479.206 c 0
 381.22 473.485 395.525 469.193 406.969 466.332 c 0
 419.128 464.188 428.425 462.757 436.294 462.757 c 0
 491.365 462.757 534.28 494.227 565.75 556.453 c 1
 534.995 556.453 l 1
 524.981 542.147 514.968 529.988 504.24 519.975 c 0
 492.797 509.963 479.206 505.671 462.757 505.671 c 0
 453.458 505.671 439.869 510.678 424.135 521.406 c 0
 407.684 532.134 394.809 540.718 384.081 546.439 c 0
 371.922 552.876 359.762 557.882 346.173 560.028 c 0
 333.299 562.889 319.71 563.605 306.12 563.605 c 0
 285.378 563.605 265.352 560.028 246.041 551.446 c 0
 226.729 542.862 208.134 532.134 191.683 517.83 c 0
 175.232 503.525 160.213 487.075 147.338 468.479 c 0
 133.749 449.883 123.735 429.855 115.868 408.399 c 1
 182.385 408.399 233.882 403.393 271.074 392.663 c 0
 328.292 376.213 353.326 341.167 344.027 286.81 c 1
 332.584 236.027 l 1
 327.577 263.922 316.133 285.378 298.969 300.398 c 0
 281.088 314.703 259.63 322.571 234.597 322.571 c 0
 206.702 322.571 184.531 313.987 167.365 298.252 c 0
 150.914 281.803 139.471 261.775 134.464 237.457 c 0
 130.888 217.432 133.033 199.55 142.332 181.669 c 0
 150.914 163.788 163.788 155.206 181.669 155.206 c 0
 200.98 155.206 218.146 163.073 233.167 179.524 c 0
 247.471 195.26 257.484 213.854 262.49 234.597 c 0
 265.352 248.901 265.352 261.775 263.922 272.504 c 1
 283.232 251.763 294.677 218.861 298.969 173.802 c 0
 302.544 128.027 297.537 70.0928 282.518 0 c 1
 359.048 0 l 1
 420.558 288.239 l 1
234.597 237.457 m 0
 230.306 219.576 223.868 205.987 215.286 196.688 c 0
 206.702 187.392 197.405 183.1 187.392 183.1 c 0
 176.662 183.1 168.795 187.392 163.788 196.688 c 0
 159.498 205.987 158.781 219.576 162.358 237.457 c 0
 166.65 251.763 172.372 263.922 180.954 273.936 c 0
 189.538 283.948 198.835 288.239 209.563 288.239 c 0
 221.008 288.239 228.875 283.232 233.167 271.789 c 0
 236.742 260.345 237.457 248.901 234.597 237.457 c 0
EndSplineSet
Fore
SplineSet
437 463 m 0xfbc0
 390 463 321 499 289 499 c 0
 231 499 193 479 170 437 c 1
 182 438 193 439 229 439 c 0
 333 439 423 403 423 315 c 0
 423 306 422 297 420 289 c 2
 359 0 l 1
 283 0 l 1
 294 56 300 103 300 142 c 0
 300 205 287 248 264 272 c 1
 264 268 265 264 265 259 c 0
 265 209 227 155 182 155 c 0
 151 155 133 186 133 220 c 0
 133 254 159 322 234 322 c 0
 286 322 324 293 333 236 c 1
 338 259 347 284 347 309 c 0
 347 400 226 409 116 409 c 1
 146 494 224 564 306 564 c 0xf5c0
 395 564 429 505 463 505 c 0
 497 505 516 527 535 557 c 1
 565 557 l 1
 535 494 491 463 437 463 c 0xfbc0
187 183 m 0
 209 183 236 208 236 253 c 0
 236 271 229 289 209 289 c 0
 182 289 160 249 160 217 c 0
 160 195 170 183 187 183 c 0
EndSplineSet
EndChar

StartChar: uni0E34.left
Encoding: 63233 63233 97
Width: 0
Flags: W
HStem: 693 39<-360.977 -178.728> 798 52<-344.094 -179.019>
VStem: -445 84<733.708 778.387>
LayerCount: 2
Back
SplineSet
-294 731 m 0
 -205 731 -145 706 -92 668 c 1
 -98 715 -163 798 -248 798 c 0
 -284 798 -338 790 -347 754 c 0
 -347 750 l 0
 -347 732 -318 731 -294 731 c 0
-66 618 m 1
 -98 643 -144 664 -192 677 c 1
 -220 687 -258 693 -297 693 c 2
 -325 693 l 2
 -335 693 -346 693 -354 691 c 0
 -385 691 -407 696 -419 706 c 0
 -425 712 -429 725 -429 735 c 0
 -429 740 l 0
 -422 773 -379 809 -350 825 c 0
 -319 841 -284 850 -245 850 c 0
 -155 850 -62 772 -62 661 c 0
 -62 647 -63 633 -66 618 c 1
EndSplineSet
Fore
Refer: 180 3636 N 1 0 0 1 -82 0 2
EndChar

StartChar: uni0E35.left
Encoding: 63234 63234 98
Width: 0
Flags: W
HStem: 693 39<-360.977 -178.728> 798 52<-344.094 -177.793>
VStem: -445 84<733.708 778.387>
DStem2: -146.922 618 -88.8933 618 0.207912 0.978148<172.776 290.46>
LayerCount: 2
Back
SplineSet
-28 901 m 1
 -69 712 l 1
 -64 696 -62 678 -62 661 c 0
 -62 647 -63 633 -66 618 c 1
 -98 643 -144 664 -192 677 c 1
 -220 687 -258 693 -297 693 c 2
 -325 693 l 2
 -335 693 -346 693 -354 691 c 0
 -385 691 -407 696 -419 706 c 0
 -425 712 -429 725 -429 735 c 0
 -429 740 l 0
 -422 773 -379 809 -350 825 c 0
 -319 841 -284 850 -245 850 c 0
 -193 850 -146 826 -110 787 c 1
 -85 901 l 1
 -28 901 l 1
-294 731 m 0
 -205 731 -145 706 -92 668 c 1
 -98 715 -163 798 -248 798 c 0
 -284 798 -338 790 -347 754 c 0
 -347 750 l 0
 -347 732 -318 731 -294 731 c 0
EndSplineSet
Fore
Refer: 181 3637 N 1 0 0 1 -82 0 2
EndChar

StartChar: uni0E36.left
Encoding: 63235 63235 99
Width: 0
Flags: W
HStem: 693 39<-360.977 -178.728> 798 52<-344.094 -177.84> 872 36<-127.039 -56.3415>
VStem: -445 84<733.708 778.387> -52 38<798.857 868.082>
LayerCount: 2
Back
SplineSet
-66 618 m 1
 -98 643 -144 664 -192 677 c 1
 -220 687 -258 693 -297 693 c 2
 -325 693 l 2
 -335 693 -346 693 -354 691 c 0
 -385 691 -407 696 -419 706 c 0
 -425 712 -429 725 -429 735 c 0
 -429 740 l 0
 -422 773 -379 809 -350 825 c 0
 -319 841 -284 850 -245 850 c 0
 -223 850 -199 845 -180 836 c 1
 -164 873 -126 901 -86 901 c 0
 -47 901 -22 874 -22 839 c 0
 -22 833 -22 826 -23 820 c 0
 -29 790 -51 762 -82 749 c 1
 -69 722 -62 694 -62 664 c 0
 -62 649 -63 634 -66 618 c 1
-294 731 m 0
 -205 731 -145 706 -92 668 c 1
 -98 715 -163 798 -248 798 c 0
 -284 798 -338 790 -347 754 c 0
 -347 750 l 0
 -347 732 -318 731 -294 731 c 0
-95 864 m 0
 -122 864 -149 841 -149 810 c 0
 -149 791 -135 776 -113 776 c 0
 -86 776 -59 800 -59 831 c 0
 -59 850 -73 864 -95 864 c 0
EndSplineSet
Fore
Refer: 182 3638 N 1 0 0 1 -82 0 2
EndChar

StartChar: uni0E37.left
Encoding: 63236 63236 100
Width: 0
Flags: W
HStem: 693 39<-360.977 -178.728> 798 52<-344.094 -185.953>
VStem: -445 84<733.708 778.387>
DStem2: -146.922 618 -88.8933 618 0.207912 0.978148<172.776 289.482>
LayerCount: 2
Back
SplineSet
-28 901 m 1
 -69 712 l 1
 -64 696 -62 678 -62 661 c 0
 -62 647 -63 633 -66 618 c 1
 -98 643 -144 664 -192 677 c 1
 -220 687 -258 693 -297 693 c 2
 -325 693 l 2
 -335 693 -346 693 -354 691 c 0
 -385 691 -407 696 -419 706 c 0
 -425 712 -429 725 -429 735 c 0
 -429 740 l 0
 -422 773 -379 809 -350 825 c 0
 -319 841 -284 850 -245 850 c 0
 -223 850 -201 845 -182 836 c 1
 -167 901 l 1
 -116 901 l 1
 -135 810 l 1
 -125 801 -113 792 -104 782 c 1
 -79 901 l 1
 -28 901 l 1
-294 731 m 0
 -205 731 -145 706 -92 668 c 1
 -98 715 -163 798 -248 798 c 0
 -284 798 -338 790 -347 754 c 0
 -347 750 l 0
 -347 732 -318 731 -294 731 c 0
EndSplineSet
Fore
Refer: 183 3639 N 1 0 0 1 -82 0 2
EndChar

StartChar: ellipsis
Encoding: 8230 8230 101
Width: 998
Flags: W
HStem: -12 112<140.162 212.483 473.208 544.483 806.685 876.617>
VStem: 119 114<7.9707 79.2069> 451 114<7.9707 78> 785 113<8.91227 79.1263>
LayerCount: 2
Back
SplineSet
675.182 43.6289 m 0
 669.459 12.874 647.288 -5.72168 607.949 -10.0137 c 1
 573.618 -10.0137 557.882 7.86719 560.743 43.6289 c 1
 570.042 82.9668 592.929 102.278 631.552 102.278 c 0
 647.288 102.278 659.445 96.5566 668.029 85.1133 c 0
 675.896 74.3848 678.043 60.7949 675.182 43.6289 c 0
451.312 43.6289 m 0
 445.591 12.874 422.703 -5.72168 384.081 -10.0137 c 1
 349.75 -10.0137 334.014 7.86719 336.875 43.6289 c 1
 345.458 82.9668 369.061 102.278 406.969 102.278 c 0
 422.703 102.278 434.862 96.5566 444.161 85.1133 c 0
 451.312 74.3848 454.175 60.7949 451.312 43.6289 c 0
226.729 43.6289 m 0
 220.293 7.86719 197.405 -10.0137 159.498 -10.0137 c 0
 121.59 -10.0137 105.854 7.86719 113.007 43.6289 c 0
 121.59 82.9668 145.192 102.278 183.1 102.278 c 0
 221.008 102.278 236.027 82.9668 226.729 43.6289 c 0
EndSplineSet
Fore
SplineSet
233 54 m 0
 233 16 195 -12 163 -12 c 0
 136 -12 119 9 119 32 c 0
 119 64 150 100 186 100 c 0
 212 100 233 81 233 54 c 0
565 54 m 0
 565 16 527 -12 495 -12 c 0
 469 -12 451 9 451 32 c 0
 451 64 484 100 520 100 c 0
 545 100 565 81 565 54 c 0
898 56 m 0
 898 18 861 -12 828 -12 c 0
 803 -12 785 9 785 32 c 0
 785 64 817 100 853 100 c 0
 879 100 898 81 898 56 c 0
EndSplineSet
EndChar

StartChar: uni0E48.low_left
Encoding: 63237 63237 102
Width: 0
Flags: W
HStem: 652 222<-126 -115.438>
VStem: -126 73<848.625 874>
LayerCount: 2
Back
SplineSet
-52.9277 874.731 m 1
 -77.9609 786.757 l 1
 -118.729 665.169 l 1
 -123.735 656.585 -130.173 651.578 -138.04 651.578 c 0
 -148.768 651.578 -153.06 656.585 -150.914 665.169 c 1
 -140.901 786.757 l 1
 -125.881 874.731 l 1
 -52.9277 874.731 l 1
EndSplineSet
Fore
Refer: 107 63242 N 1 0 0 1 -117 0 0
EndChar

StartChar: uni0E49.low_left
Encoding: 63238 63238 103
Width: 0
Flags: W
HStem: 652 26<-379 -333.881> 652 34<-302 -222.781> 727 27<-318.123 -290.979> 854 29<-302.113 -252.399>
VStem: -349 28<756.231 832.456> -250 30<773.023 851.978> -95 70<820.987 883>
LayerCount: 2
Back
SplineSet
-25.0332 883.313 m 1
 -41.4834 808.215 -79.3906 750.281 -139.471 708.798 c 0
 -164.504 691.632 -190.968 677.326 -217.432 667.313 c 0
 -244.61 657.3 -273.219 651.578 -304.69 651.578 c 2
 -384.081 651.578 l 1
 -379.074 678.043 l 1
 -346.173 680.903 -316.133 698.068 -290.385 728.108 c 1
 -301.829 726.679 l 2
 -342.598 726.679 -357.618 753.142 -345.458 805.354 c 0
 -341.882 825.381 -332.584 843.262 -317.564 858.997 c 0
 -303.259 875.446 -286.81 883.313 -268.212 883.313 c 0
 -250.331 883.313 -237.457 875.446 -228.16 859.712 c 0
 -219.576 843.977 -217.432 826.811 -222.438 806.784 c 0
 -234.597 750.281 -261.062 710.228 -301.829 685.194 c 1
 -245.324 685.194 -199.55 705.221 -163.788 743.843 c 0
 -147.338 761.726 -133.033 781.751 -121.59 804.638 c 0
 -110.146 827.525 -100.848 853.99 -95.126 883.313 c 1
 -25.0332 883.313 l 1
-251.763 805.354 m 0
 -248.901 819.658 -249.616 831.103 -252.478 840.399 c 0
 -256.055 848.983 -263.207 853.99 -273.936 853.99 c 0
 -296.106 853.99 -311.126 837.539 -317.564 805.354 c 0
 -325.432 771.737 -318.279 754.572 -296.106 754.572 c 0
 -274.65 754.572 -259.63 771.737 -251.763 805.354 c 0
EndSplineSet
Fore
Refer: 108 63243 N 1 0 0 1 -158 0 0
EndChar

StartChar: uni0E4A.low_left
Encoding: 63239 63239 104
Width: 0
Flags: W
HStem: 652 25<-402.932 -353.468 -255 -228.482> 779 24<-344 -338.168> 816 34<-343.436 -283.481 -235.668 -174.41>
VStem: -434 27<679.819 755.407> -333 27<698.675 775.544> -283 28<753 778.67> -171 38<726.391 813.335>
LayerCount: 2
Back
SplineSet
-25.0332 852.559 m 1
 -54.3574 716.665 -133.033 648.718 -261.062 648.718 c 1
 -254.623 678.043 l 1
 -237.457 682.333 -220.293 692.347 -204.557 708.081 c 0
 -188.106 724.532 -178.094 741.698 -174.518 760.294 c 0
 -166.65 797.487 -175.947 816.083 -203.842 816.083 c 0
 -228.875 816.083 -246.041 794.625 -254.623 753.142 c 1
 -282.518 753.142 l 1
 -273.936 794.625 -283.948 816.083 -313.272 816.083 c 0
 -318.279 816.083 -323.286 814.651 -329.007 812.507 c 0
 -334.014 809.645 -339.021 806.784 -344.027 802.493 c 1
 -327.577 802.493 -316.133 795.341 -310.412 781.751 c 0
 -304.69 767.447 -303.976 749.566 -308.982 728.108 c 0
 -321.14 677.326 -346.888 651.578 -386.941 651.578 c 0
 -403.393 651.578 -416.267 660.162 -425.563 675.896 c 0
 -434.862 692.347 -437.009 709.513 -432.002 728.108 c 0
 -428.425 750.281 -419.128 771.022 -405.537 789.618 c 0
 -394.809 803.923 -381.935 817.512 -366.2 829.672 c 0
 -350.465 841.831 -330.438 848.269 -306.12 848.269 c 0
 -281.088 848.269 -264.637 834.678 -257.484 806.784 c 1
 -251.763 818.943 -243.181 828.242 -232.45 836.109 c 0
 -221.008 843.977 -210.279 848.269 -199.55 848.269 c 0
 -145.192 848.269 -124.451 819.658 -135.895 761.726 c 0
 -145.192 725.247 -163.073 698.068 -190.253 679.473 c 1
 -142.332 697.354 -111.576 736.691 -97.9873 798.202 c 1
 -93.6953 823.235 l 1
 -89.4043 852.559 l 1
 -25.0332 852.559 l 1
-335.445 728.108 m 0
 -332.584 743.843 -333.299 756.002 -336.875 765.301 c 0
 -341.167 774.6 -348.319 779.606 -360.479 779.606 c 0
 -371.207 779.606 -380.505 773.883 -389.088 763.155 c 0
 -396.955 752.427 -402.677 740.982 -404.107 728.108 c 0
 -408.399 713.088 -408.399 700.931 -404.107 691.632 c 0
 -400.532 681.618 -393.379 676.611 -382.649 676.611 c 0
 -359.048 676.611 -343.312 693.777 -335.445 728.108 c 0
EndSplineSet
Fore
Refer: 109 63244 N 1 0 0 1 -164 0 0
EndChar

StartChar: uni0E4B.low_left
Encoding: 63240 63240 105
Width: 0
Flags: W
HStem: 744 47<-305 -227 -144 -68>
VStem: -315 257
LayerCount: 2
Back
SplineSet
-202.412 883.313 m 1
 -216.716 791.049 l 1
 -303.259 791.049 l 1
 -313.272 743.843 l 1
 -225.3 743.843 l 1
 -240.318 651.578 l 1
 -177.379 651.578 l 1
 -153.774 743.843 l 1
 -65.8018 743.843 l 1
 -55.7881 791.049 l 1
 -142.332 791.049 l 1
 -118.729 883.313 l 1
 -202.412 883.313 l 1
EndSplineSet
Fore
Refer: 110 63245 N 1 0 0 1 -163 -59 0
EndChar

StartChar: uni0E4C.low_left
Encoding: 63241 63241 106
Width: 0
Flags: W
HStem: 652 38<-224.295 -162.919>
VStem: -289 62<690.707 791.615> -143 41<710.66 808.556> -11 74<939.769 983>
LayerCount: 2
Back
SplineSet
-131.604 742.413 m 1
 -131.604 742.413 -131.604 745.989 -130.173 753.856 c 0
 -129.457 761.009 -130.173 768.162 -131.604 774.6 c 0
 -135.895 788.903 -144.478 795.341 -158.066 795.341 c 0
 -168.08 795.341 -176.662 791.049 -185.246 782.467 c 0
 -193.828 773.168 -199.55 760.294 -203.842 742.413 c 0
 -212.426 704.506 -205.272 685.194 -181.669 685.194 c 0
 -177.379 685.194 -172.372 687.34 -165.219 690.2 c 0
 -158.781 693.062 -153.06 696.639 -148.053 701.646 c 0
 -143.047 707.366 -139.471 714.52 -138.04 722.387 c 0
 -135.895 730.254 -133.749 736.691 -131.604 742.413 c 1
-131.604 826.096 m 1
 -99.418 817.512 -88.6895 788.903 -97.9873 740.982 c 0
 -102.994 718.095 -114.438 697.354 -131.604 678.758 c 0
 -149.484 660.877 -168.795 651.578 -190.253 651.578 c 0
 -216.001 651.578 -235.312 660.877 -248.901 678.043 c 0
 -262.49 695.924 -266.782 717.38 -262.49 742.413 c 0
 -254.623 776.744 -236.027 804.638 -208.134 826.811 c 0
 -179.524 848.983 -140.186 866.864 -89.4043 880.453 c 0
 -62.2256 888.32 -42.1992 896.904 -29.3242 906.918 c 0
 -16.4502 916.215 -10.7285 931.949 -11.4434 951.977 c 1
 54.3574 966.996 l 1
 54.3574 961.99 52.9277 954.837 51.4971 944.825 c 0
 48.6357 929.089 40.7686 915.5 27.8945 904.057 c 0
 15.0195 891.897 -5.72168 881.168 -35.0469 871.871 c 0
 -51.4971 865.434 -69.3779 858.282 -88.6895 850.413 c 0
 -108 841.831 -122.305 833.963 -131.604 826.096 c 1
EndSplineSet
Fore
Refer: 111 63246 N 1 0 0 1 -53 0 2
EndChar

StartChar: uni0E48.low
Encoding: 63242 63242 107
Width: 0
Flags: W
HStem: 652 222<-9 1.5625>
VStem: -9 73<848.625 874>
AnchorPoint: "AboveMark" 39 937 basemark 0
AnchorPoint: "AboveBase" 20 615 mark 0
LayerCount: 2
Back
SplineSet
64.3711 874.731 m 1
 39.3379 786.757 l 1
 -1.43066 665.169 l 1
 -6.4375 656.585 -12.874 651.578 -20.7422 651.578 c 0
 -31.4707 651.578 -35.7617 656.585 -33.6162 665.169 c 1
 -23.6025 786.757 l 1
 -8.58301 874.731 l 1
 64.3711 874.731 l 1
EndSplineSet
Fore
SplineSet
64 874 m 1
 40 787 l 1
 -1 665 l 2
 -4 655 -12 652 -21 652 c 0
 -29 652 -35 656 -34 665 c 2
 -23 787 l 1
 -9 874 l 1
 64 874 l 1
EndSplineSet
EndChar

StartChar: uni0E49.low
Encoding: 63243 63243 108
Width: 0
Flags: W
HStem: 652 34<-144 -64.7808> 652 26<-221 -175.881> 727 27<-160.123 -132.979> 854 29<-144.113 -94.3986>
VStem: -191 28<756.231 832.456> -92 30<773.023 851.978> 63 70<820.987 883>
AnchorPoint: "AboveMark" -28 937 basemark 0
AnchorPoint: "AboveBase" 20 615 mark 0
LayerCount: 2
Back
SplineSet
133.033 883.313 m 1
 116.583 808.215 78.6758 750.281 19.3115 708.798 c 0
 -6.4375 691.632 -32.1855 677.326 -59.3643 667.313 c 0
 -85.8281 657.3 -115.152 651.578 -146.624 651.578 c 2
 -225.3 651.578 l 1
 -221.008 678.043 l 1
 -188.106 680.903 -158.066 698.068 -131.604 728.108 c 1
 -143.762 726.679 l 2
 -184.531 726.679 -199.55 753.142 -187.392 805.354 c 0
 -183.814 825.381 -174.518 843.262 -159.498 858.997 c 0
 -145.192 875.446 -128.742 883.313 -110.146 883.313 c 0
 -92.2656 883.313 -79.3906 875.446 -70.0928 859.712 c 0
 -61.5098 843.977 -59.3643 826.811 -64.3711 806.784 c 0
 -75.8145 750.281 -102.278 710.228 -143.762 685.194 c 1
 -87.2588 685.194 -40.7686 705.221 -5.72168 743.843 c 0
 10.7285 761.726 25.0332 781.751 36.4766 804.638 c 0
 48.6357 827.525 57.2188 853.99 62.9404 883.313 c 1
 133.033 883.313 l 1
-93.6953 805.354 m 0
 -90.835 819.658 -90.835 831.103 -94.4111 840.399 c 0
 -97.9873 848.983 -105.14 853.99 -115.868 853.99 c 0
 -138.04 853.99 -153.06 837.539 -159.498 805.354 c 0
 -167.365 771.737 -160.213 754.572 -138.04 754.572 c 0
 -115.868 754.572 -101.563 771.737 -93.6953 805.354 c 0
EndSplineSet
Fore
SplineSet
-144 686 m 1xbe
 -12 686 46 799 63 883 c 1
 133 883 l 1
 117 809 79 751 19 709 c 1
 -34 674 -83 652 -146 652 c 2
 -226 652 l 1
 -221 678 l 1x7e
 -186 681 -158 697 -132 728 c 1
 -144 727 l 1
 -176 727 -191 742 -191 774 c 0
 -191 833 -152 883 -110 883 c 0
 -80 883 -62 857 -62 825 c 0
 -62 800 -80 724 -144 686 c 1xbe
-138 754 m 0
 -101 754 -92 808 -92 824 c 0
 -92 842 -99 854 -116 854 c 0
 -153 854 -163 802 -163 784 c 0
 -163 764 -155 754 -138 754 c 0
EndSplineSet
EndChar

StartChar: uni0E4A.low
Encoding: 63244 63244 109
Width: 0
Flags: W
HStem: 652 25<-238.932 -189.468 -91 -64.4824> 779 24<-180 -174.168> 816 34<-179.436 -119.481 -71.6682 -10.4095>
VStem: -270 27<679.819 755.407> -169 27<698.675 775.544> -119 28<753 778.67> -7 38<726.391 813.335>
AnchorPoint: "AboveMark" -66 937 basemark 0
AnchorPoint: "AboveBase" 20 615 mark 0
LayerCount: 2
Back
SplineSet
139.471 852.559 m 1
 110.146 716.665 31.4707 648.718 -96.5566 648.718 c 1
 -90.835 678.043 l 1
 -72.9541 682.333 -56.5039 692.347 -40.0527 708.081 c 0
 -24.3184 724.532 -14.3047 741.698 -10.0137 760.294 c 0
 -2.14551 797.487 -12.1592 816.083 -39.3379 816.083 c 0
 -65.0859 816.083 -82.252 794.625 -90.835 753.142 c 1
 -118.729 753.142 l 1
 -110.146 794.625 -120.159 816.083 -149.484 816.083 c 0
 -154.491 816.083 -159.498 814.651 -164.504 812.507 c 0
 -170.226 809.645 -175.232 806.784 -180.239 802.493 c 1
 -163.788 802.493 -152.345 795.341 -146.624 781.751 c 0
 -140.901 767.447 -140.186 749.566 -145.192 728.108 c 0
 -156.637 677.326 -182.385 651.578 -222.438 651.578 c 0
 -239.604 651.578 -252.478 660.162 -261.775 675.896 c 0
 -271.074 692.347 -273.219 709.513 -268.212 728.108 c 0
 -266.067 738.838 -263.207 749.566 -258.915 759.579 c 0
 -255.338 769.593 -249.616 779.606 -241.749 789.618 c 0
 -231.021 806.069 -217.432 820.374 -202.412 831.817 c 0
 -186.676 843.977 -166.65 849.698 -142.332 849.698 c 0
 -118.014 849.698 -101.563 835.393 -93.6953 806.784 c 1
 -87.9736 818.943 -80.1064 828.242 -70.0928 836.109 c 0
 -60.7949 843.977 -48.6357 848.269 -35.0469 848.269 c 0
 18.5957 848.269 39.3379 819.658 27.8945 761.726 c 0
 19.3115 725.247 0.714844 698.068 -26.4639 679.473 c 1
 21.457 697.354 52.2119 736.691 65.8018 798.202 c 1
 70.0928 823.235 l 1
 74.3848 852.559 l 1
 139.471 852.559 l 1
-171.657 728.108 m 0
 -168.795 743.843 -168.795 756.002 -173.087 765.301 c 0
 -176.662 774.6 -184.531 779.606 -195.975 779.606 c 0
 -206.702 779.606 -216.716 773.883 -224.583 763.155 c 0
 -233.167 752.427 -238.174 740.982 -240.318 728.108 c 0
 -243.896 713.088 -243.896 700.931 -240.318 691.632 c 0
 -236.027 681.618 -228.875 676.611 -218.146 676.611 c 0
 -194.543 676.611 -179.524 693.777 -171.657 728.108 c 0
EndSplineSet
Fore
SplineSet
-270 711 m 0
 -270 751 -229 850 -142 850 c 0
 -117 850 -101 835 -94 807 c 1
 -82 831 -63 848 -35 848 c 0
 9 848 31 829 31 790 c 0
 31 750 11 706 -26 680 c 1
 22 697 53 737 66 798 c 1
 75 853 l 1
 139 853 l 1
 110 716 31 649 -97 649 c 1
 -91 678 l 1
 -55 686 -7 730 -7 783 c 0
 -7 805 -18 816 -40 816 c 0
 -64 816 -82 795 -91 753 c 1
 -119 753 l 1
 -117 763 -116 772 -116 779 c 0
 -116 804 -127 816 -149 816 c 0
 -160 816 -168 811 -180 803 c 1
 -154 803 -142 783 -142 755 c 0
 -142 732 -153 652 -223 652 c 0
 -251 652 -270 680 -270 711 c 0
-218 677 m 0
 -186 677 -169 714 -169 745 c 0
 -169 766 -178 779 -196 779 c 0
 -227 779 -243 733 -243 708 c 0
 -243 689 -234 677 -218 677 c 0
EndSplineSet
EndChar

StartChar: uni0E4B.low
Encoding: 63245 63245 110
Width: 0
Flags: W
HStem: 803 47<-142 -64 19 95>
VStem: -152 257
AnchorPoint: "AboveMark" 9 977 basemark 0
AnchorPoint: "AboveBase" 20 615 mark 0
LayerCount: 2
Back
SplineSet
-39.3379 941.963 m 1
 -55.7881 849.698 l 1
 -142.332 849.698 l 1
 -152.345 802.493 l 1
 -64.3711 802.493 l 1
 -79.3906 710.228 l 1
 -16.4502 710.228 l 1
 7.15234 802.493 l 1
 95.126 802.493 l 1
 105.14 849.698 l 1
 19.3115 849.698 l 1
 43.6289 941.963 l 1
 -39.3379 941.963 l 1
EndSplineSet
Fore
SplineSet
-40 942 m 1
 44 942 l 1
 19 850 l 1
 105 850 l 1
 95 803 l 1
 7 803 l 1
 -16 710 l 1
 -79 710 l 1
 -64 803 l 1
 -152 803 l 1
 -142 850 l 1
 -56 850 l 1
 -40 942 l 1
EndSplineSet
EndChar

StartChar: uni0E4C.low
Encoding: 63246 63246 111
Width: 0
Flags: W
HStem: 652 38<-171.295 -109.919>
VStem: -236 62<690.707 791.615> -90 41<710.66 808.556> 42 74<939.769 983>
AnchorPoint: "AboveMark" -92 937 basemark 0
AnchorPoint: "AboveBase" -8 615 mark 0
LayerCount: 2
Back
SplineSet
-90.835 751.712 m 1
 -90.835 751.712 -90.1191 755.287 -89.4043 763.87 c 0
 -88.6895 772.453 -88.6895 779.606 -90.835 786.757 c 0
 -96.5566 802.493 -105.854 810.361 -118.729 810.361 c 0
 -129.457 810.361 -139.471 805.354 -149.484 795.341 c 0
 -159.498 785.328 -166.65 771.022 -171.657 751.712 c 0
 -180.239 710.228 -171.657 690.2 -145.192 690.2 c 0
 -140.186 690.2 -134.464 691.632 -127.312 694.492 c 0
 -120.875 697.354 -114.438 701.646 -108.716 707.366 c 0
 -103.709 713.088 -100.133 720.957 -97.2715 729.539 c 0
 -95.126 738.121 -92.9805 745.274 -90.835 751.712 c 1
-90.835 843.977 m 1
 -54.3574 834.678 -42.1992 803.923 -52.9277 750.281 c 0
 -58.6494 724.532 -70.8086 701.646 -90.1191 681.618 c 0
 -109.431 661.592 -130.888 651.578 -155.206 651.578 c 0
 -183.814 651.578 -205.272 661.592 -220.293 680.188 c 0
 -235.312 699.499 -240.318 723.102 -234.597 751.712 c 0
 -217.432 826.811 -154.491 877.593 -43.6289 905.486 c 0
 -12.874 913.354 10.0137 922.652 23.6025 933.381 c 0
 37.1924 944.109 43.6289 960.561 42.1992 982.731 c 1
 115.868 999.183 l 1
 115.868 993.461 114.438 985.594 113.007 975.58 c 0
 108.716 959.129 100.133 944.109 86.543 929.806 c 0
 72.9541 916.215 49.3516 904.057 16.4502 893.327 c 0
 -3.57617 887.605 -23.6025 880.453 -43.6289 871.156 c 0
 -64.3711 861.857 -80.1064 852.559 -90.835 843.977 c 1
EndSplineSet
Fore
SplineSet
-119 810 m 0
 -141 810 -174 783 -174 724 c 0
 -174 701 -164 690 -145 690 c 0
 -123 690 -90 712 -90 771 c 0
 -90 804 -107 810 -119 810 c 0
-49 785 m 0
 -49 714 -100 652 -155 652 c 0
 -204 652 -236 683 -236 729 c 0
 -236 764 -218 861 -44 905 c 0
 16 920 42 936 42 978 c 2
 42 983 l 1
 116 999 l 1
 116 997 113 976 113 976 c 1
 93 891 -17 901 -91 844 c 1
 -63 837 -49 818 -49 785 c 0
EndSplineSet
EndChar

StartChar: uni0E0D.descless
Encoding: 63247 63247 112
Width: 795
Flags: W
HStem: -9 28<145 230.5> 0 28<483 614.32> 132 29<198.341 250.221> 429 25<192 219.967> 516 48<273.853 441.668> 534 20G<732.772 813>
VStem: 94 79<20.7363 146.389> 256 25<46.0822 126.191> 485 79<345.926 474.709>
DStem2: 75.7443 -9 151.754 -9 0.207912 0.978148<166.087 379.398> 399.087 -9 475.135 -9 0.207912 0.978148<53.638 424.358> 617.87 -9 693.87 -9 0.207912 0.978148<41.9932 575.466>
LayerCount: 2
Back
SplineSet
713.088 80.8213 m 1
 701.646 27.1787 674.466 0 631.552 0 c 2
 401.247 0 l 1
 482.068 376.213 l 2
 490.65 417.696 484.213 450.598 461.325 477.062 c 0
 439.154 502.811 406.969 515.685 366.2 515.685 c 0
 296.822 515.685 238.889 494.942 191.683 454.175 c 1
 241.749 454.175 278.226 432.717 301.829 389.803 c 1
 280.371 384.081 262.49 374.067 247.471 359.762 c 0
 233.167 345.458 223.153 326.863 218.146 303.259 c 2
 183.1 138.04 l 1
 190.968 145.192 198.835 151.63 206.702 155.206 c 0
 214.569 159.498 223.868 160.928 234.597 160.928 c 0
 251.048 160.928 263.922 153.774 273.219 139.471 c 0
 282.518 124.451 283.948 102.994 278.226 74.3848 c 0
 266.782 19.3115 230.306 -8.58301 170.226 -8.58301 c 0
 139.471 -8.58301 118.014 0 105.14 17.8809 c 0
 92.9805 35.0469 90.1191 59.3643 96.5566 90.835 c 2
 138.04 283.948 l 1
 151.63 344.743 188.821 383.366 248.901 399.815 c 1
 227.444 419.128 189.538 429.141 134.464 429.141 c 1
 154.491 468.479 190.253 500.664 243.181 527.127 c 0
 288.239 551.446 333.299 563.605 377.643 563.605 c 0
 524.267 563.605 584.347 501.379 557.882 376.213 c 2
 483.498 27.8945 l 1
 572.902 27.8945 l 2
 587.208 27.8945 600.797 32.1855 612.956 40.7686 c 0
 625.115 50.0664 632.982 62.9404 637.274 80.8213 c 2
 736.691 553.592 l 1
 813.222 553.592 l 1
 713.088 80.8213 l 1
254.623 74.3848 m 0
 258.915 91.5498 257.484 105.14 251.763 115.868 c 0
 246.041 126.597 238.174 131.604 228.16 131.604 c 0
 218.861 131.604 208.134 126.597 196.688 115.868 c 0
 185.961 105.14 178.094 90.835 174.518 72.9541 c 0
 171.657 62.2256 172.372 50.7812 176.662 37.9072 c 0
 180.954 25.0332 190.253 19.3115 205.272 19.3115 c 0
 214.569 19.3115 224.583 23.6025 234.597 33.6162 c 0
 243.896 43.6289 251.048 57.2188 254.623 74.3848 c 0
EndSplineSet
Fore
SplineSet
281 104 m 0x7b80
 281 55 259 -9 170 -9 c 0
 120 -9 94 16 94 62 c 0
 94 70 94 81 97 91 c 2
 138 284 l 2
 151 344 187 382 249 400 c 1
 229 419 189 429 135 429 c 1
 154 469 190 501 243 527 c 1
 287 552 333 564 378 564 c 0xbb80
 502 564 564 519 564 429 c 0
 564 413 562 395 558 376 c 2
 483 28 l 1
 573 28 l 2
 602 28 630 45 637 81 c 2
 737 554 l 1
 813 554 l 1x7780
 713 81 l 2
 702 26 674 0 631 0 c 2
 401 0 l 1
 482 376 l 2
 485 387 485 398 485 407 c 0
 485 473 438 516 366 516 c 0
 297 516 239 495 192 454 c 1
 242 454 278 432 302 390 c 1
 259 378 229 350 218 303 c 1
 183 138 l 1
 198 154 212 161 234 161 c 0
 262 161 281 142 281 104 c 0x7b80
205 19 m 0
 227 19 256 45 256 92 c 0
 256 116 245 132 229 132 c 0
 207 132 173 103 173 59 c 0
 173 40 182 19 205 19 c 0
EndSplineSet
EndChar

StartChar: quoteleft
Encoding: 8216 8216 113
Width: 332
Flags: W
HStem: 434 104<271.773 339.418> 657 20G<333.5 375>
VStem: 224 47<479 568.677>
LayerCount: 2
Back
SplineSet
298.969 504.24 m 0
 294.677 485.645 285.378 469.909 271.074 458.465 c 0
 257.484 449.883 242.464 444.876 226.729 444.161 c 0
 209.563 444.161 193.828 449.883 180.239 461.325 c 1
 162.358 479.923 158.066 507.101 165.219 542.147 c 0
 171.657 572.902 193.828 605.803 233.167 640.135 c 0
 263.922 668.744 290.385 685.91 311.843 693.062 c 1
 317.564 673.751 l 1
 252.478 637.989 216.001 601.513 209.563 565.75 c 0
 208.134 556.453 212.426 551.446 221.008 550.731 c 2
 234.597 552.161 l 1
 247.471 555.021 l 1
 289.67 555.021 306.836 537.857 298.969 504.24 c 0
EndSplineSet
Fore
SplineSet
283 538 m 0
 288 538 291 541 309 541 c 0
 340 541 359 526 359 502 c 0
 359 463 325 434 287 434 c 0
 249 434 224 460 224 498 c 0
 224 571 296 643 371 677 c 1
 375 658 l 1
 304 614 271 572 271 548 c 0
 271 542 275 538 283 538 c 0
EndSplineSet
EndChar

StartChar: quoteright
Encoding: 8217 8217 114
Width: 332
Flags: W
HStem: 573 104<229.023 296.957>
VStem: 297 49<550.989 627.5>
LayerCount: 2
Back
SplineSet
317.564 594.36 m 0
 311.843 569.327 293.246 539.287 261.062 505.671 c 0
 231.735 477.062 201.695 456.319 171.657 444.161 c 1
 166.65 462.757 l 1
 231.735 499.949 266.782 536.426 273.936 572.902 c 0
 276.081 581.486 271.789 585.776 262.49 585.776 c 2
 250.331 584.347 l 1
 237.457 582.916 l 2
 194.543 582.916 176.662 600.082 184.531 634.412 c 0
 192.398 668.744 216.716 688.056 257.484 693.062 c 1
 275.365 693.062 290.385 687.34 303.259 675.182 c 0
 321.14 656.585 325.432 630.122 317.564 594.36 c 0
EndSplineSet
Fore
SplineSet
209 606 m 0
 209 650 245 677 281 677 c 0
 321 677 346 647 346 608 c 0
 346 573 314 484 198 434 c 1
 193 453 l 1
 265 495 297 536 297 561 c 0
 297 567 293 573 287 573 c 0
 284 573 272 568 258 568 c 0
 227 568 209 583 209 606 c 0
EndSplineSet
EndChar

StartChar: quotedblleft
Encoding: 8220 8220 115
Width: 443
Flags: W
HStem: 434 104<198.773 266.418 431.773 499.418> 657 20<260.5 302 493.5 535>
VStem: 151 47<479 568.677> 384 47<479 568.677>
LayerCount: 2
Back
SplineSet
512.823 505.671 m 0
 504.24 460.61 480.638 437.724 444.161 437.724 c 0
 389.088 437.724 368.346 469.193 380.505 531.419 c 0
 395.525 597.221 445.591 650.863 529.988 693.062 c 1
 536.426 673.751 l 1
 471.339 637.989 436.294 601.513 429.141 565.75 c 0
 426.995 559.313 429.141 555.738 434.862 553.592 c 1
 445.591 564.32 458.465 570.042 473.485 570.042 c 0
 509.963 571.473 523.552 550.015 512.823 505.671 c 0
300.398 505.671 m 0
 291.816 460.61 268.212 437.724 231.735 437.724 c 0
 176.662 437.724 155.921 469.193 168.795 531.419 c 0
 183.1 597.221 233.167 650.863 317.564 693.062 c 1
 324.001 673.751 l 1
 258.915 637.989 223.868 601.513 216.716 565.75 c 0
 214.569 559.313 216.716 555.738 222.438 553.592 c 1
 233.167 564.32 246.041 570.042 261.062 570.042 c 0
 297.537 571.473 311.126 550.015 300.398 505.671 c 0
EndSplineSet
Fore
Refer: 113 8216 N 1 0 0 1 160 0 2
Refer: 113 8216 N 1 0 0 1 -73 0 2
EndChar

StartChar: quotedblright
Encoding: 8221 8221 116
Width: 443
Flags: W
HStem: 573 104<180.023 247.957 412.023 479.957>
VStem: 248 49<550.989 627.5> 480 49<550.989 627.5>
LayerCount: 2
Back
SplineSet
534.995 605.088 m 0
 519.975 539.287 469.909 485.645 385.512 444.161 c 1
 379.074 462.757 l 1
 444.161 499.233 479.206 534.995 486.359 571.473 c 0
 487.075 577.194 485.645 580.77 480.638 582.916 c 1
 469.909 572.188 457.035 567.181 442.015 567.181 c 0
 405.537 565.035 391.948 586.493 402.677 631.552 c 0
 411.26 675.896 434.862 698.784 471.339 698.784 c 0
 526.412 698.784 547.154 667.313 534.995 605.088 c 0
322.571 605.088 m 0
 307.551 539.287 257.484 485.645 173.087 444.161 c 1
 166.65 462.757 l 1
 231.735 499.233 266.782 534.995 273.936 571.473 c 0
 274.65 577.194 273.219 580.77 268.212 582.916 c 1
 257.484 572.188 244.61 567.181 230.306 567.181 c 0
 193.113 565.035 179.524 586.493 190.253 631.552 c 0
 199.55 675.896 222.438 698.784 258.915 698.784 c 0
 313.987 698.784 334.73 667.313 322.571 605.088 c 0
EndSplineSet
Fore
Refer: 114 8217 N 1 0 0 1 183 0 2
Refer: 114 8217 N 1 0 0 1 -49 0 2
EndChar

StartChar: bullet
Encoding: 8226 8226 117
Width: 348
Flags: W
HStem: 196 270<197.547 291.417>
VStem: 107 277<283.923 377.636>
LayerCount: 2
Back
SplineSet
406.969 339.737 m 0
 403.393 321.14 396.24 303.259 385.512 286.093 c 0
 374.782 268.929 361.193 254.623 345.458 241.749 c 0
 329.724 228.875 313.272 218.861 295.392 211.709 c 0
 276.796 204.557 258.2 200.98 238.889 200.98 c 0
 200.98 200.98 170.94 214.569 150.199 241.749 c 0
 129.457 268.929 122.305 301.829 130.173 339.737 c 0
 134.464 359.048 141.616 377.643 152.345 394.094 c 0
 163.073 410.544 175.947 424.85 190.968 437.009 c 0
 205.987 449.168 223.153 459.181 241.749 466.332 c 0
 260.345 474.199 278.941 477.776 297.537 477.776 c 0
 335.445 477.776 365.485 464.188 386.941 437.009 c 0
 408.399 410.544 414.836 377.643 406.969 339.737 c 0
EndSplineSet
Fore
SplineSet
107 303 m 0
 107 394 196 466 274 466 c 0
 340 466 384 420 384 359 c 0
 384 267 291 196 215 196 c 0
 151 196 107 242 107 303 c 0
EndSplineSet
EndChar

StartChar: endash
Encoding: 8211 8211 118
Width: 499
Flags: W
HStem: 201 49<53 542>
LayerCount: 2
Back
SplineSet
786.757 250.331 m 1
 114.438 250.331 l 1
 125.881 300.398 l 1
 798.202 300.398 l 1
 786.757 250.331 l 1
EndSplineSet
Fore
SplineSet
53 250 m 1
 552 250 l 1
 542 201 l 1
 42 201 l 1
 53 250 l 1
EndSplineSet
EndChar

StartChar: emdash
Encoding: 8212 8212 119
Width: 998
Flags: W
HStem: 201 49<53 1043>
LayerCount: 2
Back
SplineSet
1520.59 250.331 m 1
 114.438 250.331 l 1
 125.881 300.398 l 1
 1532.03 300.398 l 1
 1520.59 250.331 l 1
EndSplineSet
Fore
SplineSet
53 250 m 1
 1053 250 l 1
 1043 201 l 1
 42 201 l 1
 53 250 l 1
EndSplineSet
EndChar

StartChar: uni0E31.left
Encoding: 63248 63248 120
Width: 0
Flags: W
HStem: 620 33<-224.343 -73.6995> 681 32<-241.665 -195.295> 816 34<-231.862 -176.421>
VStem: -309 61<692.199 801.535> -174 33<734.17 813.649> 56 73<788.019 850>
LayerCount: 2
Back
SplineSet
218.146 834.678 m 1
 204.557 767.447 173.802 713.088 125.881 670.891 c 0
 101.563 648.718 70.0928 631.552 31.4707 620.823 c 0
 -7.15234 610.095 -42.1992 605.088 -74.3848 605.088 c 0
 -95.8418 605.088 -119.444 607.949 -144.478 613.671 c 0
 -169.511 619.394 -188.106 627.976 -200.98 638.704 c 0
 -230.306 663.737 -240.318 698.068 -231.735 739.553 c 0
 -217.432 803.209 -180.954 834.678 -120.159 834.678 c 0
 -75.0996 834.678 -58.6494 806.784 -70.0928 751.712 c 0
 -75.0996 730.254 -85.1133 710.228 -100.133 693.062 c 0
 -115.152 675.182 -133.033 666.599 -153.774 666.599 c 1
 -166.65 669.459 l 1
 -159.498 658.73 -144.478 650.863 -123.735 645.856 c 0
 -102.994 640.85 -82.252 638.704 -62.9404 638.704 c 0
 -52.2119 638.704 -40.0527 640.135 -26.4639 642.996 c 0
 -12.874 645.856 0.714844 650.148 14.3047 656.585 c 0
 28.6094 662.307 41.4834 669.459 54.3574 677.326 c 0
 67.2324 685.91 77.9609 695.924 86.543 707.366 c 0
 114.438 743.843 134.464 786.042 145.192 834.678 c 1
 218.146 834.678 l 1
-100.848 751.712 m 0
 -97.9873 766.016 -98.7021 778.175 -102.278 787.474 c 0
 -106.57 796.771 -114.438 801.062 -125.881 801.062 c 0
 -149.484 801.062 -164.504 784.613 -171.657 751.712 c 0
 -179.524 715.95 -171.657 698.784 -148.053 698.784 c 0
 -139.471 698.784 -129.457 703.791 -118.729 714.52 c 0
 -114.438 719.525 -111.576 725.247 -108.716 731.686 c 0
 -105.14 738.121 -102.994 744.56 -100.848 751.712 c 0
EndSplineSet
Fore
Refer: 177 3633 N 1 0 0 1 -82 0 2
EndChar

StartChar: uni0E4D.left
Encoding: 63249 63249 121
Width: 0
Flags: W
HStem: 645 37<-187.62 -110.368> 777 36<-173.382 -99.0432>
VStem: -229 37<686.944 757.763> -94 37<698.62 772.343>
LayerCount: 2
Back
SplineSet
-225.3 728.108 m 0
 -230.306 704.506 -226.015 684.479 -212.426 668.744 c 0
 -198.835 652.293 -180.954 644.426 -158.066 644.426 c 0
 -135.895 644.426 -114.438 652.293 -94.4111 668.744 c 0
 -74.3848 684.479 -62.2256 704.506 -57.2188 728.108 c 0
 -52.2119 751.712 -56.5039 771.737 -69.3779 788.188 c 0
 -82.9668 804.638 -100.848 813.222 -123.021 813.222 c 0
 -145.192 813.222 -166.65 804.638 -187.392 788.188 c 0
 -208.134 771.737 -221.008 751.712 -225.3 728.108 c 0
-188.821 728.108 m 0
 -186.676 741.698 -180.239 753.142 -168.795 762.44 c 0
 -156.637 771.737 -143.762 776.029 -130.173 776.029 c 0
 -116.583 776.029 -106.57 771.737 -100.133 762.44 c 0
 -93.6953 753.142 -91.5498 741.698 -93.6953 728.108 c 0
 -96.5566 714.52 -103.709 703.074 -114.438 694.492 c 0
 -125.166 685.194 -137.325 680.903 -150.914 680.903 c 0
 -164.504 680.903 -175.232 685.194 -182.385 694.492 c 0
 -189.538 703.074 -191.683 714.52 -188.821 728.108 c 0
EndSplineSet
Fore
Refer: 203 3661 N 1 0 0 1 -135 -4 0
EndChar

